M48
; DRILL file {KiCad (5.1.6-0-10_14)} date Tuesday, August 10, 2021 at 12:06:42 PM
; FORMAT={-:-/ absolute / inch / decimal}
; #@! TF.CreationDate,2021-08-10T12:06:42-04:00
; #@! TF.GenerationSoftware,Kicad,Pcbnew,(5.1.6-0-10_14)
FMAT,2
INCH
T1C0.0100
T2C0.0118
T3C0.0390
T4C0.0470
%
G90
G05
T1
X5.4429Y-4.2441
X5.4488Y-4.752
X5.4726Y-5.0709
X5.5039Y-4.752
X5.5039Y-4.8031
X5.5039Y-4.8543
X5.5041Y-5.0276
X5.5354Y-5.0709
X5.5591Y-4.8031
X5.5591Y-4.8543
X6.0965Y-4.4921
X6.0965Y-4.6102
X6.0965Y-4.7283
X6.122Y-4.4665
X6.122Y-4.5177
X6.122Y-4.5846
X6.122Y-4.6358
X6.122Y-4.7027
X6.122Y-4.7539
X6.1476Y-4.4921
X6.1476Y-4.6102
X6.1476Y-4.7283
X6.2146Y-4.4921
X6.2146Y-4.6102
X6.2146Y-4.7283
X6.2402Y-4.4665
X6.2402Y-4.5177
X6.2402Y-4.5846
X6.2402Y-4.6358
X6.2402Y-4.7027
X6.2402Y-4.7539
X6.2657Y-4.4921
X6.2657Y-4.6112
X6.2657Y-4.7293
X6.3327Y-4.4921
X6.3327Y-4.6102
X6.3327Y-4.7283
X6.3583Y-4.4665
X6.3583Y-4.5177
X6.3583Y-4.5846
X6.3583Y-4.6358
X6.3583Y-4.7027
X6.3583Y-4.7539
X6.3839Y-4.4921
X6.3839Y-4.6102
X6.3839Y-4.7283
X5.1329Y-4.8465
X5.1329Y-5.063
X5.1722Y-4.8465
X5.1722Y-4.924
X5.1722Y-4.9646
X5.1722Y-5.0051
X5.1722Y-5.063
X5.2116Y-4.8465
X5.2116Y-5.063
X5.4813Y-4.9409
X5.5039Y-4.9035
X5.5039Y-4.9783
X5.5266Y-4.9409
T2
X5.0157Y-4.6929
X5.1142Y-4.5157
X5.1142Y-4.563
X5.1734Y-4.0008
X5.1734Y-4.0402
X5.1734Y-4.0795
X5.2087Y-4.2126
X5.2087Y-4.2756
X5.4488Y-4.8268
X5.4488Y-4.8543
X5.4721Y-4.5276
X5.6378Y-4.7559
X5.6378Y-4.7815
X5.6421Y-4.5276
X5.7215Y-4.3776
X5.7215Y-4.6776
X5.7465Y-4.3776
X5.7465Y-4.6776
X5.7715Y-4.3776
X5.7715Y-4.6776
X5.8701Y-4.8011
X5.9243Y-4.9526
X5.9243Y-5.1026
X5.9743Y-5.1026
X6.0242Y-4.8011
X6.0242Y-5.1026
X6.0743Y-5.1026
X6.1242Y-4.8189
X6.1242Y-4.9276
X6.1742Y-4.8189
X6.2742Y-4.9526
X6.3242Y-4.2776
X6.3742Y-4.2776
X6.3742Y-4.9526
X6.3742Y-5.1026
X6.4242Y-5.1026
X6.4742Y-4.9276
X6.5742Y-4.9276
X6.6242Y-4.4511
X6.6242Y-4.5011
X6.6242Y-4.5511
X6.6242Y-4.6011
X6.7242Y-4.7511
X6.7242Y-4.8011
X6.7242Y-4.8681
T3
X6.2742Y-5.0276
X6.5742Y-4.9876
X6.5742Y-5.0675
X5.8743Y-5.0276
X6.1743Y-4.9876
X6.1743Y-5.0675
T4
X5.8465Y-4.4776
X5.8465Y-4.5776
T0
M30
