%TF.GenerationSoftware,KiCad,Pcbnew,(5.1.6-0-10_14)*%
%TF.CreationDate,2021-08-10T12:06:40-04:00*%
%TF.ProjectId,fanboard,66616e62-6f61-4726-942e-6b696361645f,rev?*%
%TF.SameCoordinates,Original*%
%TF.FileFunction,Soldermask,Top*%
%TF.FilePolarity,Negative*%
%FSLAX46Y46*%
G04 Gerber Fmt 4.6, Leading zero omitted, Abs format (unit mm)*
G04 Created by KiCad (PCBNEW (5.1.6-0-10_14)) date 2021-08-10 12:06:40*
%MOMM*%
%LPD*%
G01*
G04 APERTURE LIST*
%ADD10R,0.500000X0.750000*%
%ADD11C,0.887000*%
%ADD12C,1.091000*%
%ADD13C,0.100000*%
%ADD14R,0.800000X0.800000*%
%ADD15R,1.300000X0.600000*%
%ADD16C,1.293800*%
G04 APERTURE END LIST*
%TO.C,U1*%
G36*
G01*
X145840000Y-119821610D02*
X145840000Y-120653390D01*
G75*
G02*
X145768390Y-120725000I-71610J0D01*
G01*
X145581610Y-120725000D01*
G75*
G02*
X145510000Y-120653390I0J71610D01*
G01*
X145510000Y-119821610D01*
G75*
G02*
X145581610Y-119750000I71610J0D01*
G01*
X145768390Y-119750000D01*
G75*
G02*
X145840000Y-119821610I0J-71610D01*
G01*
G37*
G36*
G01*
X146490000Y-119821610D02*
X146490000Y-120653390D01*
G75*
G02*
X146418390Y-120725000I-71610J0D01*
G01*
X146231610Y-120725000D01*
G75*
G02*
X146160000Y-120653390I0J71610D01*
G01*
X146160000Y-119821610D01*
G75*
G02*
X146231610Y-119750000I71610J0D01*
G01*
X146418390Y-119750000D01*
G75*
G02*
X146490000Y-119821610I0J-71610D01*
G01*
G37*
G36*
G01*
X145840000Y-122346610D02*
X145840000Y-123178390D01*
G75*
G02*
X145768390Y-123250000I-71610J0D01*
G01*
X145581610Y-123250000D01*
G75*
G02*
X145510000Y-123178390I0J71610D01*
G01*
X145510000Y-122346610D01*
G75*
G02*
X145581610Y-122275000I71610J0D01*
G01*
X145768390Y-122275000D01*
G75*
G02*
X145840000Y-122346610I0J-71610D01*
G01*
G37*
G36*
G01*
X146490000Y-122346610D02*
X146490000Y-123178390D01*
G75*
G02*
X146418390Y-123250000I-71610J0D01*
G01*
X146231610Y-123250000D01*
G75*
G02*
X146160000Y-123178390I0J71610D01*
G01*
X146160000Y-122346610D01*
G75*
G02*
X146231610Y-122275000I71610J0D01*
G01*
X146418390Y-122275000D01*
G75*
G02*
X146490000Y-122346610I0J-71610D01*
G01*
G37*
G36*
G01*
X146800000Y-120627800D02*
X146800000Y-122372200D01*
G75*
G02*
X146747200Y-122425000I-52800J0D01*
G01*
X145252800Y-122425000D01*
G75*
G02*
X145200000Y-122372200I0J52800D01*
G01*
X145200000Y-120627800D01*
G75*
G02*
X145252800Y-120575000I52800J0D01*
G01*
X146747200Y-120575000D01*
G75*
G02*
X146800000Y-120627800I0J-52800D01*
G01*
G37*
G36*
G01*
X144316010Y-122270000D02*
X144883990Y-122270000D01*
G75*
G02*
X144950000Y-122336010I0J-66010D01*
G01*
X144950000Y-122613990D01*
G75*
G02*
X144883990Y-122680000I-66010J0D01*
G01*
X144316010Y-122680000D01*
G75*
G02*
X144250000Y-122613990I0J66010D01*
G01*
X144250000Y-122336010D01*
G75*
G02*
X144316010Y-122270000I66010J0D01*
G01*
G37*
G36*
G01*
X144316010Y-121620000D02*
X144883990Y-121620000D01*
G75*
G02*
X144950000Y-121686010I0J-66010D01*
G01*
X144950000Y-121963990D01*
G75*
G02*
X144883990Y-122030000I-66010J0D01*
G01*
X144316010Y-122030000D01*
G75*
G02*
X144250000Y-121963990I0J66010D01*
G01*
X144250000Y-121686010D01*
G75*
G02*
X144316010Y-121620000I66010J0D01*
G01*
G37*
G36*
G01*
X144316010Y-120970000D02*
X144883990Y-120970000D01*
G75*
G02*
X144950000Y-121036010I0J-66010D01*
G01*
X144950000Y-121313990D01*
G75*
G02*
X144883990Y-121380000I-66010J0D01*
G01*
X144316010Y-121380000D01*
G75*
G02*
X144250000Y-121313990I0J66010D01*
G01*
X144250000Y-121036010D01*
G75*
G02*
X144316010Y-120970000I66010J0D01*
G01*
G37*
G36*
G01*
X144316010Y-120320000D02*
X144883990Y-120320000D01*
G75*
G02*
X144950000Y-120386010I0J-66010D01*
G01*
X144950000Y-120663990D01*
G75*
G02*
X144883990Y-120730000I-66010J0D01*
G01*
X144316010Y-120730000D01*
G75*
G02*
X144250000Y-120663990I0J66010D01*
G01*
X144250000Y-120386010D01*
G75*
G02*
X144316010Y-120320000I66010J0D01*
G01*
G37*
G36*
G01*
X147116010Y-120320000D02*
X147683990Y-120320000D01*
G75*
G02*
X147750000Y-120386010I0J-66010D01*
G01*
X147750000Y-120663990D01*
G75*
G02*
X147683990Y-120730000I-66010J0D01*
G01*
X147116010Y-120730000D01*
G75*
G02*
X147050000Y-120663990I0J66010D01*
G01*
X147050000Y-120386010D01*
G75*
G02*
X147116010Y-120320000I66010J0D01*
G01*
G37*
G36*
G01*
X147116010Y-120970000D02*
X147683990Y-120970000D01*
G75*
G02*
X147750000Y-121036010I0J-66010D01*
G01*
X147750000Y-121313990D01*
G75*
G02*
X147683990Y-121380000I-66010J0D01*
G01*
X147116010Y-121380000D01*
G75*
G02*
X147050000Y-121313990I0J66010D01*
G01*
X147050000Y-121036010D01*
G75*
G02*
X147116010Y-120970000I66010J0D01*
G01*
G37*
G36*
G01*
X147116010Y-121620000D02*
X147683990Y-121620000D01*
G75*
G02*
X147750000Y-121686010I0J-66010D01*
G01*
X147750000Y-121963990D01*
G75*
G02*
X147683990Y-122030000I-66010J0D01*
G01*
X147116010Y-122030000D01*
G75*
G02*
X147050000Y-121963990I0J66010D01*
G01*
X147050000Y-121686010D01*
G75*
G02*
X147116010Y-121620000I66010J0D01*
G01*
G37*
G36*
G01*
X147116010Y-122270000D02*
X147683990Y-122270000D01*
G75*
G02*
X147750000Y-122336010I0J-66010D01*
G01*
X147750000Y-122613990D01*
G75*
G02*
X147683990Y-122680000I-66010J0D01*
G01*
X147116010Y-122680000D01*
G75*
G02*
X147050000Y-122613990I0J66010D01*
G01*
X147050000Y-122336010D01*
G75*
G02*
X147116010Y-122270000I66010J0D01*
G01*
G37*
%TD*%
%TO.C,D3*%
G36*
G01*
X134875000Y-112575000D02*
X135325000Y-112575000D01*
G75*
G02*
X135550000Y-112800000I0J-225000D01*
G01*
X135550000Y-113250000D01*
G75*
G02*
X135325000Y-113475000I-225000J0D01*
G01*
X134875000Y-113475000D01*
G75*
G02*
X134650000Y-113250000I0J225000D01*
G01*
X134650000Y-112800000D01*
G75*
G02*
X134875000Y-112575000I225000J0D01*
G01*
G37*
G36*
G01*
X134875000Y-110925000D02*
X135325000Y-110925000D01*
G75*
G02*
X135550000Y-111150000I0J-225000D01*
G01*
X135550000Y-111600000D01*
G75*
G02*
X135325000Y-111825000I-225000J0D01*
G01*
X134875000Y-111825000D01*
G75*
G02*
X134650000Y-111600000I0J225000D01*
G01*
X134650000Y-111150000D01*
G75*
G02*
X134875000Y-110925000I225000J0D01*
G01*
G37*
%TD*%
%TO.C,D2*%
G36*
G01*
X136575000Y-112575000D02*
X137025000Y-112575000D01*
G75*
G02*
X137250000Y-112800000I0J-225000D01*
G01*
X137250000Y-113250000D01*
G75*
G02*
X137025000Y-113475000I-225000J0D01*
G01*
X136575000Y-113475000D01*
G75*
G02*
X136350000Y-113250000I0J225000D01*
G01*
X136350000Y-112800000D01*
G75*
G02*
X136575000Y-112575000I225000J0D01*
G01*
G37*
G36*
G01*
X136575000Y-110925000D02*
X137025000Y-110925000D01*
G75*
G02*
X137250000Y-111150000I0J-225000D01*
G01*
X137250000Y-111600000D01*
G75*
G02*
X137025000Y-111825000I-225000J0D01*
G01*
X136575000Y-111825000D01*
G75*
G02*
X136350000Y-111600000I0J225000D01*
G01*
X136350000Y-111150000D01*
G75*
G02*
X136575000Y-110925000I225000J0D01*
G01*
G37*
%TD*%
%TO.C,J4*%
G36*
G01*
X127050000Y-116650000D02*
X127550000Y-116650000D01*
G75*
G02*
X127750000Y-116850000I0J-200000D01*
G01*
X127750000Y-117250000D01*
G75*
G02*
X127550000Y-117450000I-200000J0D01*
G01*
X127050000Y-117450000D01*
G75*
G02*
X126850000Y-117250000I0J200000D01*
G01*
X126850000Y-116850000D01*
G75*
G02*
X127050000Y-116650000I200000J0D01*
G01*
G37*
G36*
G01*
X127050000Y-110750000D02*
X127550000Y-110750000D01*
G75*
G02*
X127750000Y-110950000I0J-200000D01*
G01*
X127750000Y-111350000D01*
G75*
G02*
X127550000Y-111550000I-200000J0D01*
G01*
X127050000Y-111550000D01*
G75*
G02*
X126850000Y-111350000I0J200000D01*
G01*
X126850000Y-110950000D01*
G75*
G02*
X127050000Y-110750000I200000J0D01*
G01*
G37*
G36*
G01*
X130775000Y-115550000D02*
X131375000Y-115550000D01*
G75*
G02*
X131550000Y-115725000I0J-175000D01*
G01*
X131550000Y-116075000D01*
G75*
G02*
X131375000Y-116250000I-175000J0D01*
G01*
X130775000Y-116250000D01*
G75*
G02*
X130600000Y-116075000I0J175000D01*
G01*
X130600000Y-115725000D01*
G75*
G02*
X130775000Y-115550000I175000J0D01*
G01*
G37*
G36*
G01*
X130775000Y-114350000D02*
X131375000Y-114350000D01*
G75*
G02*
X131550000Y-114525000I0J-175000D01*
G01*
X131550000Y-114875000D01*
G75*
G02*
X131375000Y-115050000I-175000J0D01*
G01*
X130775000Y-115050000D01*
G75*
G02*
X130600000Y-114875000I0J175000D01*
G01*
X130600000Y-114525000D01*
G75*
G02*
X130775000Y-114350000I175000J0D01*
G01*
G37*
G36*
G01*
X130775000Y-113150000D02*
X131375000Y-113150000D01*
G75*
G02*
X131550000Y-113325000I0J-175000D01*
G01*
X131550000Y-113675000D01*
G75*
G02*
X131375000Y-113850000I-175000J0D01*
G01*
X130775000Y-113850000D01*
G75*
G02*
X130600000Y-113675000I0J175000D01*
G01*
X130600000Y-113325000D01*
G75*
G02*
X130775000Y-113150000I175000J0D01*
G01*
G37*
G36*
G01*
X130775000Y-111950000D02*
X131375000Y-111950000D01*
G75*
G02*
X131550000Y-112125000I0J-175000D01*
G01*
X131550000Y-112475000D01*
G75*
G02*
X131375000Y-112650000I-175000J0D01*
G01*
X130775000Y-112650000D01*
G75*
G02*
X130600000Y-112475000I0J175000D01*
G01*
X130600000Y-112125000D01*
G75*
G02*
X130775000Y-111950000I175000J0D01*
G01*
G37*
%TD*%
D10*
%TO.C,Q1*%
X136950000Y-106850000D03*
X138250000Y-106850000D03*
X137600000Y-108750000D03*
X137600000Y-106850000D03*
X138250000Y-108750000D03*
X136950000Y-108750000D03*
%TD*%
%TO.C,R16*%
G36*
G01*
X140500000Y-108318750D02*
X140500000Y-108881250D01*
G75*
G02*
X140256250Y-109125000I-243750J0D01*
G01*
X139768750Y-109125000D01*
G75*
G02*
X139525000Y-108881250I0J243750D01*
G01*
X139525000Y-108318750D01*
G75*
G02*
X139768750Y-108075000I243750J0D01*
G01*
X140256250Y-108075000D01*
G75*
G02*
X140500000Y-108318750I0J-243750D01*
G01*
G37*
G36*
G01*
X142075000Y-108318750D02*
X142075000Y-108881250D01*
G75*
G02*
X141831250Y-109125000I-243750J0D01*
G01*
X141343750Y-109125000D01*
G75*
G02*
X141100000Y-108881250I0J243750D01*
G01*
X141100000Y-108318750D01*
G75*
G02*
X141343750Y-108075000I243750J0D01*
G01*
X141831250Y-108075000D01*
G75*
G02*
X142075000Y-108318750I0J-243750D01*
G01*
G37*
%TD*%
%TO.C,R15*%
G36*
G01*
X140500000Y-106718750D02*
X140500000Y-107281250D01*
G75*
G02*
X140256250Y-107525000I-243750J0D01*
G01*
X139768750Y-107525000D01*
G75*
G02*
X139525000Y-107281250I0J243750D01*
G01*
X139525000Y-106718750D01*
G75*
G02*
X139768750Y-106475000I243750J0D01*
G01*
X140256250Y-106475000D01*
G75*
G02*
X140500000Y-106718750I0J-243750D01*
G01*
G37*
G36*
G01*
X142075000Y-106718750D02*
X142075000Y-107281250D01*
G75*
G02*
X141831250Y-107525000I-243750J0D01*
G01*
X141343750Y-107525000D01*
G75*
G02*
X141100000Y-107281250I0J243750D01*
G01*
X141100000Y-106718750D01*
G75*
G02*
X141343750Y-106475000I243750J0D01*
G01*
X141831250Y-106475000D01*
G75*
G02*
X142075000Y-106718750I0J-243750D01*
G01*
G37*
%TD*%
%TO.C,R14*%
G36*
G01*
X131375000Y-106718750D02*
X131375000Y-107281250D01*
G75*
G02*
X131131250Y-107525000I-243750J0D01*
G01*
X130643750Y-107525000D01*
G75*
G02*
X130400000Y-107281250I0J243750D01*
G01*
X130400000Y-106718750D01*
G75*
G02*
X130643750Y-106475000I243750J0D01*
G01*
X131131250Y-106475000D01*
G75*
G02*
X131375000Y-106718750I0J-243750D01*
G01*
G37*
G36*
G01*
X129800000Y-106718750D02*
X129800000Y-107281250D01*
G75*
G02*
X129556250Y-107525000I-243750J0D01*
G01*
X129068750Y-107525000D01*
G75*
G02*
X128825000Y-107281250I0J243750D01*
G01*
X128825000Y-106718750D01*
G75*
G02*
X129068750Y-106475000I243750J0D01*
G01*
X129556250Y-106475000D01*
G75*
G02*
X129800000Y-106718750I0J-243750D01*
G01*
G37*
%TD*%
%TO.C,R13*%
G36*
G01*
X131375000Y-108318750D02*
X131375000Y-108881250D01*
G75*
G02*
X131131250Y-109125000I-243750J0D01*
G01*
X130643750Y-109125000D01*
G75*
G02*
X130400000Y-108881250I0J243750D01*
G01*
X130400000Y-108318750D01*
G75*
G02*
X130643750Y-108075000I243750J0D01*
G01*
X131131250Y-108075000D01*
G75*
G02*
X131375000Y-108318750I0J-243750D01*
G01*
G37*
G36*
G01*
X129800000Y-108318750D02*
X129800000Y-108881250D01*
G75*
G02*
X129556250Y-109125000I-243750J0D01*
G01*
X129068750Y-109125000D01*
G75*
G02*
X128825000Y-108881250I0J243750D01*
G01*
X128825000Y-108318750D01*
G75*
G02*
X129068750Y-108075000I243750J0D01*
G01*
X129556250Y-108075000D01*
G75*
G02*
X129800000Y-108318750I0J-243750D01*
G01*
G37*
%TD*%
%TO.C,R12*%
G36*
G01*
X135675000Y-106718750D02*
X135675000Y-107281250D01*
G75*
G02*
X135431250Y-107525000I-243750J0D01*
G01*
X134943750Y-107525000D01*
G75*
G02*
X134700000Y-107281250I0J243750D01*
G01*
X134700000Y-106718750D01*
G75*
G02*
X134943750Y-106475000I243750J0D01*
G01*
X135431250Y-106475000D01*
G75*
G02*
X135675000Y-106718750I0J-243750D01*
G01*
G37*
G36*
G01*
X134100000Y-106718750D02*
X134100000Y-107281250D01*
G75*
G02*
X133856250Y-107525000I-243750J0D01*
G01*
X133368750Y-107525000D01*
G75*
G02*
X133125000Y-107281250I0J243750D01*
G01*
X133125000Y-106718750D01*
G75*
G02*
X133368750Y-106475000I243750J0D01*
G01*
X133856250Y-106475000D01*
G75*
G02*
X134100000Y-106718750I0J-243750D01*
G01*
G37*
%TD*%
%TO.C,R11*%
G36*
G01*
X135675000Y-108318750D02*
X135675000Y-108881250D01*
G75*
G02*
X135431250Y-109125000I-243750J0D01*
G01*
X134943750Y-109125000D01*
G75*
G02*
X134700000Y-108881250I0J243750D01*
G01*
X134700000Y-108318750D01*
G75*
G02*
X134943750Y-108075000I243750J0D01*
G01*
X135431250Y-108075000D01*
G75*
G02*
X135675000Y-108318750I0J-243750D01*
G01*
G37*
G36*
G01*
X134100000Y-108318750D02*
X134100000Y-108881250D01*
G75*
G02*
X133856250Y-109125000I-243750J0D01*
G01*
X133368750Y-109125000D01*
G75*
G02*
X133125000Y-108881250I0J243750D01*
G01*
X133125000Y-108318750D01*
G75*
G02*
X133368750Y-108075000I243750J0D01*
G01*
X133856250Y-108075000D01*
G75*
G02*
X134100000Y-108318750I0J-243750D01*
G01*
G37*
%TD*%
%TO.C,R10*%
G36*
G01*
X137081250Y-117975000D02*
X136518750Y-117975000D01*
G75*
G02*
X136275000Y-117731250I0J243750D01*
G01*
X136275000Y-117243750D01*
G75*
G02*
X136518750Y-117000000I243750J0D01*
G01*
X137081250Y-117000000D01*
G75*
G02*
X137325000Y-117243750I0J-243750D01*
G01*
X137325000Y-117731250D01*
G75*
G02*
X137081250Y-117975000I-243750J0D01*
G01*
G37*
G36*
G01*
X137081250Y-116400000D02*
X136518750Y-116400000D01*
G75*
G02*
X136275000Y-116156250I0J243750D01*
G01*
X136275000Y-115668750D01*
G75*
G02*
X136518750Y-115425000I243750J0D01*
G01*
X137081250Y-115425000D01*
G75*
G02*
X137325000Y-115668750I0J-243750D01*
G01*
X137325000Y-116156250D01*
G75*
G02*
X137081250Y-116400000I-243750J0D01*
G01*
G37*
%TD*%
%TO.C,R9*%
G36*
G01*
X135381250Y-117975000D02*
X134818750Y-117975000D01*
G75*
G02*
X134575000Y-117731250I0J243750D01*
G01*
X134575000Y-117243750D01*
G75*
G02*
X134818750Y-117000000I243750J0D01*
G01*
X135381250Y-117000000D01*
G75*
G02*
X135625000Y-117243750I0J-243750D01*
G01*
X135625000Y-117731250D01*
G75*
G02*
X135381250Y-117975000I-243750J0D01*
G01*
G37*
G36*
G01*
X135381250Y-116400000D02*
X134818750Y-116400000D01*
G75*
G02*
X134575000Y-116156250I0J243750D01*
G01*
X134575000Y-115668750D01*
G75*
G02*
X134818750Y-115425000I243750J0D01*
G01*
X135381250Y-115425000D01*
G75*
G02*
X135625000Y-115668750I0J-243750D01*
G01*
X135625000Y-116156250D01*
G75*
G02*
X135381250Y-116400000I-243750J0D01*
G01*
G37*
%TD*%
%TO.C,U3*%
G36*
G01*
X131775000Y-124649600D02*
X131775000Y-127550400D01*
G75*
G02*
X131725400Y-127600000I-49600J0D01*
G01*
X131024600Y-127600000D01*
G75*
G02*
X130975000Y-127550400I0J49600D01*
G01*
X130975000Y-124649600D01*
G75*
G02*
X131024600Y-124600000I49600J0D01*
G01*
X131725400Y-124600000D01*
G75*
G02*
X131775000Y-124649600I0J-49600D01*
G01*
G37*
G36*
G01*
X130100000Y-127112500D02*
X130100000Y-127487500D01*
G75*
G02*
X130037500Y-127550000I-62500J0D01*
G01*
X129312500Y-127550000D01*
G75*
G02*
X129250000Y-127487500I0J62500D01*
G01*
X129250000Y-127112500D01*
G75*
G02*
X129312500Y-127050000I62500J0D01*
G01*
X130037500Y-127050000D01*
G75*
G02*
X130100000Y-127112500I0J-62500D01*
G01*
G37*
G36*
G01*
X130100000Y-126512500D02*
X130100000Y-126887500D01*
G75*
G02*
X130037500Y-126950000I-62500J0D01*
G01*
X129312500Y-126950000D01*
G75*
G02*
X129250000Y-126887500I0J62500D01*
G01*
X129250000Y-126512500D01*
G75*
G02*
X129312500Y-126450000I62500J0D01*
G01*
X130037500Y-126450000D01*
G75*
G02*
X130100000Y-126512500I0J-62500D01*
G01*
G37*
G36*
G01*
X130100000Y-125912500D02*
X130100000Y-126287500D01*
G75*
G02*
X130037500Y-126350000I-62500J0D01*
G01*
X129312500Y-126350000D01*
G75*
G02*
X129250000Y-126287500I0J62500D01*
G01*
X129250000Y-125912500D01*
G75*
G02*
X129312500Y-125850000I62500J0D01*
G01*
X130037500Y-125850000D01*
G75*
G02*
X130100000Y-125912500I0J-62500D01*
G01*
G37*
G36*
G01*
X130100000Y-125312500D02*
X130100000Y-125687500D01*
G75*
G02*
X130037500Y-125750000I-62500J0D01*
G01*
X129312500Y-125750000D01*
G75*
G02*
X129250000Y-125687500I0J62500D01*
G01*
X129250000Y-125312500D01*
G75*
G02*
X129312500Y-125250000I62500J0D01*
G01*
X130037500Y-125250000D01*
G75*
G02*
X130100000Y-125312500I0J-62500D01*
G01*
G37*
G36*
G01*
X130100000Y-124712500D02*
X130100000Y-125087500D01*
G75*
G02*
X130037500Y-125150000I-62500J0D01*
G01*
X129312500Y-125150000D01*
G75*
G02*
X129250000Y-125087500I0J62500D01*
G01*
X129250000Y-124712500D01*
G75*
G02*
X129312500Y-124650000I62500J0D01*
G01*
X130037500Y-124650000D01*
G75*
G02*
X130100000Y-124712500I0J-62500D01*
G01*
G37*
G36*
G01*
X133150000Y-124712500D02*
X133150000Y-125087500D01*
G75*
G02*
X133087500Y-125150000I-62500J0D01*
G01*
X132362500Y-125150000D01*
G75*
G02*
X132300000Y-125087500I0J62500D01*
G01*
X132300000Y-124712500D01*
G75*
G02*
X132362500Y-124650000I62500J0D01*
G01*
X133087500Y-124650000D01*
G75*
G02*
X133150000Y-124712500I0J-62500D01*
G01*
G37*
G36*
G01*
X133150000Y-125312500D02*
X133150000Y-125687500D01*
G75*
G02*
X133087500Y-125750000I-62500J0D01*
G01*
X132362500Y-125750000D01*
G75*
G02*
X132300000Y-125687500I0J62500D01*
G01*
X132300000Y-125312500D01*
G75*
G02*
X132362500Y-125250000I62500J0D01*
G01*
X133087500Y-125250000D01*
G75*
G02*
X133150000Y-125312500I0J-62500D01*
G01*
G37*
G36*
G01*
X133150000Y-125912500D02*
X133150000Y-126287500D01*
G75*
G02*
X133087500Y-126350000I-62500J0D01*
G01*
X132362500Y-126350000D01*
G75*
G02*
X132300000Y-126287500I0J62500D01*
G01*
X132300000Y-125912500D01*
G75*
G02*
X132362500Y-125850000I62500J0D01*
G01*
X133087500Y-125850000D01*
G75*
G02*
X133150000Y-125912500I0J-62500D01*
G01*
G37*
G36*
G01*
X133150000Y-126512500D02*
X133150000Y-126887500D01*
G75*
G02*
X133087500Y-126950000I-62500J0D01*
G01*
X132362500Y-126950000D01*
G75*
G02*
X132300000Y-126887500I0J62500D01*
G01*
X132300000Y-126512500D01*
G75*
G02*
X132362500Y-126450000I62500J0D01*
G01*
X133087500Y-126450000D01*
G75*
G02*
X133150000Y-126512500I0J-62500D01*
G01*
G37*
G36*
G01*
X133150000Y-127112500D02*
X133150000Y-127487500D01*
G75*
G02*
X133087500Y-127550000I-62500J0D01*
G01*
X132362500Y-127550000D01*
G75*
G02*
X132300000Y-127487500I0J62500D01*
G01*
X132300000Y-127112500D01*
G75*
G02*
X132362500Y-127050000I62500J0D01*
G01*
X133087500Y-127050000D01*
G75*
G02*
X133150000Y-127112500I0J-62500D01*
G01*
G37*
%TD*%
D11*
%TO.C,J3*%
X160635000Y-128335000D03*
X161905000Y-128335000D03*
X163175000Y-128335000D03*
X164445000Y-128335000D03*
X165715000Y-128335000D03*
X165715000Y-127065000D03*
X164445000Y-127065000D03*
X163175000Y-127065000D03*
X161905000Y-127065000D03*
X160635000Y-127065000D03*
D12*
X159365000Y-127700000D03*
X166985000Y-126685000D03*
X166985000Y-128715000D03*
%TD*%
D11*
%TO.C,J2*%
X150476001Y-128335000D03*
X151746001Y-128335000D03*
X153016001Y-128335000D03*
X154286001Y-128335000D03*
X155556001Y-128335000D03*
X155556001Y-127065000D03*
X154286001Y-127065000D03*
X153016001Y-127065000D03*
X151746001Y-127065000D03*
X150476001Y-127065000D03*
D12*
X149206001Y-127700000D03*
X156826001Y-126685000D03*
X156826001Y-128715000D03*
%TD*%
%TO.C,C3*%
G36*
G01*
X134095000Y-127425000D02*
X136305000Y-127425000D01*
G75*
G02*
X136575000Y-127695000I0J-270000D01*
G01*
X136575000Y-128505000D01*
G75*
G02*
X136305000Y-128775000I-270000J0D01*
G01*
X134095000Y-128775000D01*
G75*
G02*
X133825000Y-128505000I0J270000D01*
G01*
X133825000Y-127695000D01*
G75*
G02*
X134095000Y-127425000I270000J0D01*
G01*
G37*
G36*
G01*
X134095000Y-124625000D02*
X136305000Y-124625000D01*
G75*
G02*
X136575000Y-124895000I0J-270000D01*
G01*
X136575000Y-125705000D01*
G75*
G02*
X136305000Y-125975000I-270000J0D01*
G01*
X134095000Y-125975000D01*
G75*
G02*
X133825000Y-125705000I0J270000D01*
G01*
X133825000Y-124895000D01*
G75*
G02*
X134095000Y-124625000I270000J0D01*
G01*
G37*
%TD*%
%TO.C,C2*%
G36*
G01*
X135300000Y-122418750D02*
X135300000Y-123381250D01*
G75*
G02*
X135031250Y-123650000I-268750J0D01*
G01*
X134493750Y-123650000D01*
G75*
G02*
X134225000Y-123381250I0J268750D01*
G01*
X134225000Y-122418750D01*
G75*
G02*
X134493750Y-122150000I268750J0D01*
G01*
X135031250Y-122150000D01*
G75*
G02*
X135300000Y-122418750I0J-268750D01*
G01*
G37*
G36*
G01*
X137175000Y-122418750D02*
X137175000Y-123381250D01*
G75*
G02*
X136906250Y-123650000I-268750J0D01*
G01*
X136368750Y-123650000D01*
G75*
G02*
X136100000Y-123381250I0J268750D01*
G01*
X136100000Y-122418750D01*
G75*
G02*
X136368750Y-122150000I268750J0D01*
G01*
X136906250Y-122150000D01*
G75*
G02*
X137175000Y-122418750I0J-268750D01*
G01*
G37*
%TD*%
%TO.C,R5*%
G36*
G01*
X135600000Y-120618750D02*
X135600000Y-121181250D01*
G75*
G02*
X135356250Y-121425000I-243750J0D01*
G01*
X134868750Y-121425000D01*
G75*
G02*
X134625000Y-121181250I0J243750D01*
G01*
X134625000Y-120618750D01*
G75*
G02*
X134868750Y-120375000I243750J0D01*
G01*
X135356250Y-120375000D01*
G75*
G02*
X135600000Y-120618750I0J-243750D01*
G01*
G37*
G36*
G01*
X137175000Y-120618750D02*
X137175000Y-121181250D01*
G75*
G02*
X136931250Y-121425000I-243750J0D01*
G01*
X136443750Y-121425000D01*
G75*
G02*
X136200000Y-121181250I0J243750D01*
G01*
X136200000Y-120618750D01*
G75*
G02*
X136443750Y-120375000I243750J0D01*
G01*
X136931250Y-120375000D01*
G75*
G02*
X137175000Y-120618750I0J-243750D01*
G01*
G37*
%TD*%
%TO.C,C1*%
G36*
G01*
X145550000Y-124218750D02*
X145550000Y-125181250D01*
G75*
G02*
X145281250Y-125450000I-268750J0D01*
G01*
X144743750Y-125450000D01*
G75*
G02*
X144475000Y-125181250I0J268750D01*
G01*
X144475000Y-124218750D01*
G75*
G02*
X144743750Y-123950000I268750J0D01*
G01*
X145281250Y-123950000D01*
G75*
G02*
X145550000Y-124218750I0J-268750D01*
G01*
G37*
G36*
G01*
X147425000Y-124218750D02*
X147425000Y-125181250D01*
G75*
G02*
X147156250Y-125450000I-268750J0D01*
G01*
X146618750Y-125450000D01*
G75*
G02*
X146350000Y-125181250I0J268750D01*
G01*
X146350000Y-124218750D01*
G75*
G02*
X146618750Y-123950000I268750J0D01*
G01*
X147156250Y-123950000D01*
G75*
G02*
X147425000Y-124218750I0J-268750D01*
G01*
G37*
%TD*%
%TO.C,U2*%
G36*
G01*
X140225000Y-123820000D02*
X140225000Y-124330000D01*
G75*
G02*
X140155000Y-124400000I-70000J0D01*
G01*
X139945000Y-124400000D01*
G75*
G02*
X139875000Y-124330000I0J70000D01*
G01*
X139875000Y-123820000D01*
G75*
G02*
X139945000Y-123750000I70000J0D01*
G01*
X140155000Y-123750000D01*
G75*
G02*
X140225000Y-123820000I0J-70000D01*
G01*
G37*
G36*
G01*
X139725000Y-123820000D02*
X139725000Y-124330000D01*
G75*
G02*
X139655000Y-124400000I-70000J0D01*
G01*
X139445000Y-124400000D01*
G75*
G02*
X139375000Y-124330000I0J70000D01*
G01*
X139375000Y-123820000D01*
G75*
G02*
X139445000Y-123750000I70000J0D01*
G01*
X139655000Y-123750000D01*
G75*
G02*
X139725000Y-123820000I0J-70000D01*
G01*
G37*
G36*
G01*
X139725000Y-126670000D02*
X139725000Y-127180000D01*
G75*
G02*
X139655000Y-127250000I-70000J0D01*
G01*
X139445000Y-127250000D01*
G75*
G02*
X139375000Y-127180000I0J70000D01*
G01*
X139375000Y-126670000D01*
G75*
G02*
X139445000Y-126600000I70000J0D01*
G01*
X139655000Y-126600000D01*
G75*
G02*
X139725000Y-126670000I0J-70000D01*
G01*
G37*
G36*
G01*
X140225000Y-126670000D02*
X140225000Y-127180000D01*
G75*
G02*
X140155000Y-127250000I-70000J0D01*
G01*
X139945000Y-127250000D01*
G75*
G02*
X139875000Y-127180000I0J70000D01*
G01*
X139875000Y-126670000D01*
G75*
G02*
X139945000Y-126600000I70000J0D01*
G01*
X140155000Y-126600000D01*
G75*
G02*
X140225000Y-126670000I0J-70000D01*
G01*
G37*
G36*
G01*
X140675000Y-124302500D02*
X140675000Y-126697500D01*
G75*
G02*
X140622500Y-126750000I-52500J0D01*
G01*
X138977500Y-126750000D01*
G75*
G02*
X138925000Y-126697500I0J52500D01*
G01*
X138925000Y-124302500D01*
G75*
G02*
X138977500Y-124250000I52500J0D01*
G01*
X140622500Y-124250000D01*
G75*
G02*
X140675000Y-124302500I0J-52500D01*
G01*
G37*
G36*
G01*
X138800000Y-126339349D02*
X138800000Y-126660651D01*
G75*
G02*
X138735651Y-126725000I-64349J0D01*
G01*
X138064349Y-126725000D01*
G75*
G02*
X138000000Y-126660651I0J64349D01*
G01*
X138000000Y-126339349D01*
G75*
G02*
X138064349Y-126275000I64349J0D01*
G01*
X138735651Y-126275000D01*
G75*
G02*
X138800000Y-126339349I0J-64349D01*
G01*
G37*
G36*
G01*
X138800000Y-125839349D02*
X138800000Y-126160651D01*
G75*
G02*
X138735651Y-126225000I-64349J0D01*
G01*
X138064349Y-126225000D01*
G75*
G02*
X138000000Y-126160651I0J64349D01*
G01*
X138000000Y-125839349D01*
G75*
G02*
X138064349Y-125775000I64349J0D01*
G01*
X138735651Y-125775000D01*
G75*
G02*
X138800000Y-125839349I0J-64349D01*
G01*
G37*
G36*
G01*
X138800000Y-125339349D02*
X138800000Y-125660651D01*
G75*
G02*
X138735651Y-125725000I-64349J0D01*
G01*
X138064349Y-125725000D01*
G75*
G02*
X138000000Y-125660651I0J64349D01*
G01*
X138000000Y-125339349D01*
G75*
G02*
X138064349Y-125275000I64349J0D01*
G01*
X138735651Y-125275000D01*
G75*
G02*
X138800000Y-125339349I0J-64349D01*
G01*
G37*
G36*
G01*
X138800000Y-124839349D02*
X138800000Y-125160651D01*
G75*
G02*
X138735651Y-125225000I-64349J0D01*
G01*
X138064349Y-125225000D01*
G75*
G02*
X138000000Y-125160651I0J64349D01*
G01*
X138000000Y-124839349D01*
G75*
G02*
X138064349Y-124775000I64349J0D01*
G01*
X138735651Y-124775000D01*
G75*
G02*
X138800000Y-124839349I0J-64349D01*
G01*
G37*
G36*
G01*
X138800000Y-124339349D02*
X138800000Y-124660651D01*
G75*
G02*
X138735651Y-124725000I-64349J0D01*
G01*
X138064349Y-124725000D01*
G75*
G02*
X138000000Y-124660651I0J64349D01*
G01*
X138000000Y-124339349D01*
G75*
G02*
X138064349Y-124275000I64349J0D01*
G01*
X138735651Y-124275000D01*
G75*
G02*
X138800000Y-124339349I0J-64349D01*
G01*
G37*
G36*
G01*
X141600000Y-124339349D02*
X141600000Y-124660651D01*
G75*
G02*
X141535651Y-124725000I-64349J0D01*
G01*
X140864349Y-124725000D01*
G75*
G02*
X140800000Y-124660651I0J64349D01*
G01*
X140800000Y-124339349D01*
G75*
G02*
X140864349Y-124275000I64349J0D01*
G01*
X141535651Y-124275000D01*
G75*
G02*
X141600000Y-124339349I0J-64349D01*
G01*
G37*
G36*
G01*
X141600000Y-124839349D02*
X141600000Y-125160651D01*
G75*
G02*
X141535651Y-125225000I-64349J0D01*
G01*
X140864349Y-125225000D01*
G75*
G02*
X140800000Y-125160651I0J64349D01*
G01*
X140800000Y-124839349D01*
G75*
G02*
X140864349Y-124775000I64349J0D01*
G01*
X141535651Y-124775000D01*
G75*
G02*
X141600000Y-124839349I0J-64349D01*
G01*
G37*
G36*
G01*
X141600000Y-125339349D02*
X141600000Y-125660651D01*
G75*
G02*
X141535651Y-125725000I-64349J0D01*
G01*
X140864349Y-125725000D01*
G75*
G02*
X140800000Y-125660651I0J64349D01*
G01*
X140800000Y-125339349D01*
G75*
G02*
X140864349Y-125275000I64349J0D01*
G01*
X141535651Y-125275000D01*
G75*
G02*
X141600000Y-125339349I0J-64349D01*
G01*
G37*
G36*
G01*
X141600000Y-125839349D02*
X141600000Y-126160651D01*
G75*
G02*
X141535651Y-126225000I-64349J0D01*
G01*
X140864349Y-126225000D01*
G75*
G02*
X140800000Y-126160651I0J64349D01*
G01*
X140800000Y-125839349D01*
G75*
G02*
X140864349Y-125775000I64349J0D01*
G01*
X141535651Y-125775000D01*
G75*
G02*
X141600000Y-125839349I0J-64349D01*
G01*
G37*
G36*
G01*
X141600000Y-126339349D02*
X141600000Y-126660651D01*
G75*
G02*
X141535651Y-126725000I-64349J0D01*
G01*
X140864349Y-126725000D01*
G75*
G02*
X140800000Y-126660651I0J64349D01*
G01*
X140800000Y-126339349D01*
G75*
G02*
X140864349Y-126275000I64349J0D01*
G01*
X141535651Y-126275000D01*
G75*
G02*
X141600000Y-126339349I0J-64349D01*
G01*
G37*
%TD*%
%TO.C,R2*%
G36*
G01*
X145281250Y-127200000D02*
X144718750Y-127200000D01*
G75*
G02*
X144475000Y-126956250I0J243750D01*
G01*
X144475000Y-126468750D01*
G75*
G02*
X144718750Y-126225000I243750J0D01*
G01*
X145281250Y-126225000D01*
G75*
G02*
X145525000Y-126468750I0J-243750D01*
G01*
X145525000Y-126956250D01*
G75*
G02*
X145281250Y-127200000I-243750J0D01*
G01*
G37*
G36*
G01*
X145281250Y-128775000D02*
X144718750Y-128775000D01*
G75*
G02*
X144475000Y-128531250I0J243750D01*
G01*
X144475000Y-128043750D01*
G75*
G02*
X144718750Y-127800000I243750J0D01*
G01*
X145281250Y-127800000D01*
G75*
G02*
X145525000Y-128043750I0J-243750D01*
G01*
X145525000Y-128531250D01*
G75*
G02*
X145281250Y-128775000I-243750J0D01*
G01*
G37*
%TD*%
%TO.C,R1*%
G36*
G01*
X143481250Y-127200000D02*
X142918750Y-127200000D01*
G75*
G02*
X142675000Y-126956250I0J243750D01*
G01*
X142675000Y-126468750D01*
G75*
G02*
X142918750Y-126225000I243750J0D01*
G01*
X143481250Y-126225000D01*
G75*
G02*
X143725000Y-126468750I0J-243750D01*
G01*
X143725000Y-126956250D01*
G75*
G02*
X143481250Y-127200000I-243750J0D01*
G01*
G37*
G36*
G01*
X143481250Y-128775000D02*
X142918750Y-128775000D01*
G75*
G02*
X142675000Y-128531250I0J243750D01*
G01*
X142675000Y-128043750D01*
G75*
G02*
X142918750Y-127800000I243750J0D01*
G01*
X143481250Y-127800000D01*
G75*
G02*
X143725000Y-128043750I0J-243750D01*
G01*
X143725000Y-128531250D01*
G75*
G02*
X143481250Y-128775000I-243750J0D01*
G01*
G37*
%TD*%
%TO.C,R3*%
G36*
G01*
X143481250Y-123875000D02*
X142918750Y-123875000D01*
G75*
G02*
X142675000Y-123631250I0J243750D01*
G01*
X142675000Y-123143750D01*
G75*
G02*
X142918750Y-122900000I243750J0D01*
G01*
X143481250Y-122900000D01*
G75*
G02*
X143725000Y-123143750I0J-243750D01*
G01*
X143725000Y-123631250D01*
G75*
G02*
X143481250Y-123875000I-243750J0D01*
G01*
G37*
G36*
G01*
X143481250Y-125450000D02*
X142918750Y-125450000D01*
G75*
G02*
X142675000Y-125206250I0J243750D01*
G01*
X142675000Y-124718750D01*
G75*
G02*
X142918750Y-124475000I243750J0D01*
G01*
X143481250Y-124475000D01*
G75*
G02*
X143725000Y-124718750I0J-243750D01*
G01*
X143725000Y-125206250D01*
G75*
G02*
X143481250Y-125450000I-243750J0D01*
G01*
G37*
%TD*%
%TO.C,D1*%
G36*
G01*
X141808100Y-114400000D02*
X142391900Y-114400000D01*
G75*
G02*
X142450000Y-114458100I0J-58100D01*
G01*
X142450000Y-115541900D01*
G75*
G02*
X142391900Y-115600000I-58100J0D01*
G01*
X141808100Y-115600000D01*
G75*
G02*
X141750000Y-115541900I0J58100D01*
G01*
X141750000Y-114458100D01*
G75*
G02*
X141808100Y-114400000I58100J0D01*
G01*
G37*
G36*
G01*
X139908100Y-114400000D02*
X140491900Y-114400000D01*
G75*
G02*
X140550000Y-114458100I0J-58100D01*
G01*
X140550000Y-115541900D01*
G75*
G02*
X140491900Y-115600000I-58100J0D01*
G01*
X139908100Y-115600000D01*
G75*
G02*
X139850000Y-115541900I0J58100D01*
G01*
X139850000Y-114458100D01*
G75*
G02*
X139908100Y-114400000I58100J0D01*
G01*
G37*
G36*
G01*
X139908100Y-111800000D02*
X140491900Y-111800000D01*
G75*
G02*
X140550000Y-111858100I0J-58100D01*
G01*
X140550000Y-112941900D01*
G75*
G02*
X140491900Y-113000000I-58100J0D01*
G01*
X139908100Y-113000000D01*
G75*
G02*
X139850000Y-112941900I0J58100D01*
G01*
X139850000Y-111858100D01*
G75*
G02*
X139908100Y-111800000I58100J0D01*
G01*
G37*
G36*
G01*
X140858100Y-111800000D02*
X141441900Y-111800000D01*
G75*
G02*
X141500000Y-111858100I0J-58100D01*
G01*
X141500000Y-112941900D01*
G75*
G02*
X141441900Y-113000000I-58100J0D01*
G01*
X140858100Y-113000000D01*
G75*
G02*
X140800000Y-112941900I0J58100D01*
G01*
X140800000Y-111858100D01*
G75*
G02*
X140858100Y-111800000I58100J0D01*
G01*
G37*
G36*
G01*
X141808100Y-111800000D02*
X142391900Y-111800000D01*
G75*
G02*
X142450000Y-111858100I0J-58100D01*
G01*
X142450000Y-112941900D01*
G75*
G02*
X142391900Y-113000000I-58100J0D01*
G01*
X141808100Y-113000000D01*
G75*
G02*
X141750000Y-112941900I0J58100D01*
G01*
X141750000Y-111858100D01*
G75*
G02*
X141808100Y-111800000I58100J0D01*
G01*
G37*
%TD*%
%TO.C,C5*%
G36*
G01*
X129525000Y-121555000D02*
X129525000Y-120245000D01*
G75*
G02*
X129795000Y-119975000I270000J0D01*
G01*
X130605000Y-119975000D01*
G75*
G02*
X130875000Y-120245000I0J-270000D01*
G01*
X130875000Y-121555000D01*
G75*
G02*
X130605000Y-121825000I-270000J0D01*
G01*
X129795000Y-121825000D01*
G75*
G02*
X129525000Y-121555000I0J270000D01*
G01*
G37*
G36*
G01*
X126725000Y-121555000D02*
X126725000Y-120245000D01*
G75*
G02*
X126995000Y-119975000I270000J0D01*
G01*
X127805000Y-119975000D01*
G75*
G02*
X128075000Y-120245000I0J-270000D01*
G01*
X128075000Y-121555000D01*
G75*
G02*
X127805000Y-121825000I-270000J0D01*
G01*
X126995000Y-121825000D01*
G75*
G02*
X126725000Y-121555000I0J270000D01*
G01*
G37*
%TD*%
%TO.C,C4*%
G36*
G01*
X126867000Y-125525000D02*
X128177000Y-125525000D01*
G75*
G02*
X128447000Y-125795000I0J-270000D01*
G01*
X128447000Y-126605000D01*
G75*
G02*
X128177000Y-126875000I-270000J0D01*
G01*
X126867000Y-126875000D01*
G75*
G02*
X126597000Y-126605000I0J270000D01*
G01*
X126597000Y-125795000D01*
G75*
G02*
X126867000Y-125525000I270000J0D01*
G01*
G37*
G36*
G01*
X126867000Y-122725000D02*
X128177000Y-122725000D01*
G75*
G02*
X128447000Y-122995000I0J-270000D01*
G01*
X128447000Y-123805000D01*
G75*
G02*
X128177000Y-124075000I-270000J0D01*
G01*
X126867000Y-124075000D01*
G75*
G02*
X126597000Y-123805000I0J270000D01*
G01*
X126597000Y-122995000D01*
G75*
G02*
X126867000Y-122725000I270000J0D01*
G01*
G37*
%TD*%
%TO.C,R8*%
G36*
G01*
X127431250Y-107500000D02*
X126868750Y-107500000D01*
G75*
G02*
X126625000Y-107256250I0J243750D01*
G01*
X126625000Y-106768750D01*
G75*
G02*
X126868750Y-106525000I243750J0D01*
G01*
X127431250Y-106525000D01*
G75*
G02*
X127675000Y-106768750I0J-243750D01*
G01*
X127675000Y-107256250D01*
G75*
G02*
X127431250Y-107500000I-243750J0D01*
G01*
G37*
G36*
G01*
X127431250Y-109075000D02*
X126868750Y-109075000D01*
G75*
G02*
X126625000Y-108831250I0J243750D01*
G01*
X126625000Y-108343750D01*
G75*
G02*
X126868750Y-108100000I243750J0D01*
G01*
X127431250Y-108100000D01*
G75*
G02*
X127675000Y-108343750I0J-243750D01*
G01*
X127675000Y-108831250D01*
G75*
G02*
X127431250Y-109075000I-243750J0D01*
G01*
G37*
%TD*%
%TO.C,R7*%
G36*
G01*
X144681250Y-113820000D02*
X144118750Y-113820000D01*
G75*
G02*
X143875000Y-113576250I0J243750D01*
G01*
X143875000Y-113088750D01*
G75*
G02*
X144118750Y-112845000I243750J0D01*
G01*
X144681250Y-112845000D01*
G75*
G02*
X144925000Y-113088750I0J-243750D01*
G01*
X144925000Y-113576250D01*
G75*
G02*
X144681250Y-113820000I-243750J0D01*
G01*
G37*
G36*
G01*
X144681250Y-115395000D02*
X144118750Y-115395000D01*
G75*
G02*
X143875000Y-115151250I0J243750D01*
G01*
X143875000Y-114663750D01*
G75*
G02*
X144118750Y-114420000I243750J0D01*
G01*
X144681250Y-114420000D01*
G75*
G02*
X144925000Y-114663750I0J-243750D01*
G01*
X144925000Y-115151250D01*
G75*
G02*
X144681250Y-115395000I-243750J0D01*
G01*
G37*
%TD*%
%TO.C,C8*%
G36*
G01*
X148081250Y-109055000D02*
X147518750Y-109055000D01*
G75*
G02*
X147275000Y-108811250I0J243750D01*
G01*
X147275000Y-108323750D01*
G75*
G02*
X147518750Y-108080000I243750J0D01*
G01*
X148081250Y-108080000D01*
G75*
G02*
X148325000Y-108323750I0J-243750D01*
G01*
X148325000Y-108811250D01*
G75*
G02*
X148081250Y-109055000I-243750J0D01*
G01*
G37*
G36*
G01*
X148081250Y-107480000D02*
X147518750Y-107480000D01*
G75*
G02*
X147275000Y-107236250I0J243750D01*
G01*
X147275000Y-106748750D01*
G75*
G02*
X147518750Y-106505000I243750J0D01*
G01*
X148081250Y-106505000D01*
G75*
G02*
X148325000Y-106748750I0J-243750D01*
G01*
X148325000Y-107236250D01*
G75*
G02*
X148081250Y-107480000I-243750J0D01*
G01*
G37*
%TD*%
%TO.C,C7*%
G36*
G01*
X146381250Y-109055000D02*
X145818750Y-109055000D01*
G75*
G02*
X145575000Y-108811250I0J243750D01*
G01*
X145575000Y-108323750D01*
G75*
G02*
X145818750Y-108080000I243750J0D01*
G01*
X146381250Y-108080000D01*
G75*
G02*
X146625000Y-108323750I0J-243750D01*
G01*
X146625000Y-108811250D01*
G75*
G02*
X146381250Y-109055000I-243750J0D01*
G01*
G37*
G36*
G01*
X146381250Y-107480000D02*
X145818750Y-107480000D01*
G75*
G02*
X145575000Y-107236250I0J243750D01*
G01*
X145575000Y-106748750D01*
G75*
G02*
X145818750Y-106505000I243750J0D01*
G01*
X146381250Y-106505000D01*
G75*
G02*
X146625000Y-106748750I0J-243750D01*
G01*
X146625000Y-107236250D01*
G75*
G02*
X146381250Y-107480000I-243750J0D01*
G01*
G37*
%TD*%
%TO.C,C6*%
G36*
G01*
X144681250Y-109055000D02*
X144118750Y-109055000D01*
G75*
G02*
X143875000Y-108811250I0J243750D01*
G01*
X143875000Y-108323750D01*
G75*
G02*
X144118750Y-108080000I243750J0D01*
G01*
X144681250Y-108080000D01*
G75*
G02*
X144925000Y-108323750I0J-243750D01*
G01*
X144925000Y-108811250D01*
G75*
G02*
X144681250Y-109055000I-243750J0D01*
G01*
G37*
G36*
G01*
X144681250Y-107480000D02*
X144118750Y-107480000D01*
G75*
G02*
X143875000Y-107236250I0J243750D01*
G01*
X143875000Y-106748750D01*
G75*
G02*
X144118750Y-106505000I243750J0D01*
G01*
X144681250Y-106505000D01*
G75*
G02*
X144925000Y-106748750I0J-243750D01*
G01*
X144925000Y-107236250D01*
G75*
G02*
X144681250Y-107480000I-243750J0D01*
G01*
G37*
%TD*%
D13*
%TO.C,U4*%
G36*
X154450241Y-119144098D02*
G01*
X154451202Y-119134343D01*
X154453114Y-119124731D01*
X154455959Y-119115352D01*
X154459710Y-119106296D01*
X154464331Y-119097651D01*
X154469778Y-119089500D01*
X154475996Y-119081924D01*
X154482924Y-119074996D01*
X154490500Y-119068778D01*
X154498651Y-119063331D01*
X154507296Y-119058710D01*
X154516352Y-119054959D01*
X154525731Y-119052114D01*
X154535343Y-119050202D01*
X154545098Y-119049241D01*
X154550000Y-119049000D01*
X156450000Y-119049000D01*
X156454902Y-119049241D01*
X156464657Y-119050202D01*
X156474269Y-119052114D01*
X156483648Y-119054959D01*
X156492704Y-119058710D01*
X156501349Y-119063331D01*
X156509500Y-119068778D01*
X156517076Y-119074996D01*
X156524004Y-119081924D01*
X156530222Y-119089500D01*
X156535669Y-119097651D01*
X156540290Y-119106296D01*
X156544041Y-119115352D01*
X156546886Y-119124731D01*
X156548798Y-119134343D01*
X156549759Y-119144098D01*
X156550000Y-119149000D01*
X156550000Y-121049000D01*
X156549759Y-121053902D01*
X156548798Y-121063657D01*
X156546886Y-121073269D01*
X156544041Y-121082648D01*
X156540290Y-121091704D01*
X156535669Y-121100349D01*
X156530222Y-121108500D01*
X156524004Y-121116076D01*
X156517076Y-121123004D01*
X156509500Y-121129222D01*
X156501349Y-121134669D01*
X156492704Y-121139290D01*
X156483648Y-121143041D01*
X156474269Y-121145886D01*
X156464657Y-121147798D01*
X156454902Y-121148759D01*
X156450000Y-121149000D01*
X155500000Y-121149000D01*
X155495098Y-121148759D01*
X155485343Y-121147798D01*
X155475731Y-121145886D01*
X155466352Y-121143041D01*
X155457296Y-121139290D01*
X155448651Y-121134669D01*
X155440500Y-121129222D01*
X155432924Y-121123004D01*
X155429290Y-121119710D01*
X154479290Y-120169710D01*
X154475996Y-120166076D01*
X154469778Y-120158500D01*
X154464331Y-120150349D01*
X154459710Y-120141704D01*
X154455959Y-120132648D01*
X154453114Y-120123269D01*
X154451202Y-120113657D01*
X154450241Y-120103902D01*
X154450000Y-120099000D01*
X154450000Y-119149000D01*
X154450241Y-119144098D01*
G37*
G36*
G01*
X162497500Y-115149000D02*
X160502500Y-115149000D01*
G75*
G02*
X160450000Y-115096500I0J52500D01*
G01*
X160450000Y-113101500D01*
G75*
G02*
X160502500Y-113049000I52500J0D01*
G01*
X162497500Y-113049000D01*
G75*
G02*
X162550000Y-113101500I0J-52500D01*
G01*
X162550000Y-115096500D01*
G75*
G02*
X162497500Y-115149000I-52500J0D01*
G01*
G37*
G36*
G01*
X159497500Y-115149000D02*
X157502500Y-115149000D01*
G75*
G02*
X157450000Y-115096500I0J52500D01*
G01*
X157450000Y-113101500D01*
G75*
G02*
X157502500Y-113049000I52500J0D01*
G01*
X159497500Y-113049000D01*
G75*
G02*
X159550000Y-113101500I0J-52500D01*
G01*
X159550000Y-115096500D01*
G75*
G02*
X159497500Y-115149000I-52500J0D01*
G01*
G37*
G36*
G01*
X156497500Y-115149000D02*
X154502500Y-115149000D01*
G75*
G02*
X154450000Y-115096500I0J52500D01*
G01*
X154450000Y-113101500D01*
G75*
G02*
X154502500Y-113049000I52500J0D01*
G01*
X156497500Y-113049000D01*
G75*
G02*
X156550000Y-113101500I0J-52500D01*
G01*
X156550000Y-115096500D01*
G75*
G02*
X156497500Y-115149000I-52500J0D01*
G01*
G37*
G36*
G01*
X162497500Y-118149000D02*
X160502500Y-118149000D01*
G75*
G02*
X160450000Y-118096500I0J52500D01*
G01*
X160450000Y-116101500D01*
G75*
G02*
X160502500Y-116049000I52500J0D01*
G01*
X162497500Y-116049000D01*
G75*
G02*
X162550000Y-116101500I0J-52500D01*
G01*
X162550000Y-118096500D01*
G75*
G02*
X162497500Y-118149000I-52500J0D01*
G01*
G37*
G36*
G01*
X159497500Y-118149000D02*
X157502500Y-118149000D01*
G75*
G02*
X157450000Y-118096500I0J52500D01*
G01*
X157450000Y-116101500D01*
G75*
G02*
X157502500Y-116049000I52500J0D01*
G01*
X159497500Y-116049000D01*
G75*
G02*
X159550000Y-116101500I0J-52500D01*
G01*
X159550000Y-118096500D01*
G75*
G02*
X159497500Y-118149000I-52500J0D01*
G01*
G37*
G36*
G01*
X156497500Y-118149000D02*
X154502500Y-118149000D01*
G75*
G02*
X154450000Y-118096500I0J52500D01*
G01*
X154450000Y-116101500D01*
G75*
G02*
X154502500Y-116049000I52500J0D01*
G01*
X156497500Y-116049000D01*
G75*
G02*
X156550000Y-116101500I0J-52500D01*
G01*
X156550000Y-118096500D01*
G75*
G02*
X156497500Y-118149000I-52500J0D01*
G01*
G37*
G36*
G01*
X162497500Y-121149000D02*
X160502500Y-121149000D01*
G75*
G02*
X160450000Y-121096500I0J52500D01*
G01*
X160450000Y-119101500D01*
G75*
G02*
X160502500Y-119049000I52500J0D01*
G01*
X162497500Y-119049000D01*
G75*
G02*
X162550000Y-119101500I0J-52500D01*
G01*
X162550000Y-121096500D01*
G75*
G02*
X162497500Y-121149000I-52500J0D01*
G01*
G37*
G36*
G01*
X159497500Y-121149000D02*
X157502500Y-121149000D01*
G75*
G02*
X157450000Y-121096500I0J52500D01*
G01*
X157450000Y-119101500D01*
G75*
G02*
X157502500Y-119049000I52500J0D01*
G01*
X159497500Y-119049000D01*
G75*
G02*
X159550000Y-119101500I0J-52500D01*
G01*
X159550000Y-121096500D01*
G75*
G02*
X159497500Y-121149000I-52500J0D01*
G01*
G37*
G36*
G01*
X150976000Y-121504999D02*
X150976000Y-122393001D01*
G75*
G02*
X150920001Y-122449000I-55999J0D01*
G01*
X150031999Y-122449000D01*
G75*
G02*
X149976000Y-122393001I0J55999D01*
G01*
X149976000Y-121504999D01*
G75*
G02*
X150031999Y-121449000I55999J0D01*
G01*
X150920001Y-121449000D01*
G75*
G02*
X150976000Y-121504999I0J-55999D01*
G01*
G37*
G36*
G01*
X150976000Y-120234999D02*
X150976000Y-121123001D01*
G75*
G02*
X150920001Y-121179000I-55999J0D01*
G01*
X150031999Y-121179000D01*
G75*
G02*
X149976000Y-121123001I0J55999D01*
G01*
X149976000Y-120234999D01*
G75*
G02*
X150031999Y-120179000I55999J0D01*
G01*
X150920001Y-120179000D01*
G75*
G02*
X150976000Y-120234999I0J-55999D01*
G01*
G37*
G36*
G01*
X150976000Y-118964999D02*
X150976000Y-119853001D01*
G75*
G02*
X150920001Y-119909000I-55999J0D01*
G01*
X150031999Y-119909000D01*
G75*
G02*
X149976000Y-119853001I0J55999D01*
G01*
X149976000Y-118964999D01*
G75*
G02*
X150031999Y-118909000I55999J0D01*
G01*
X150920001Y-118909000D01*
G75*
G02*
X150976000Y-118964999I0J-55999D01*
G01*
G37*
G36*
G01*
X150976000Y-117694999D02*
X150976000Y-118583001D01*
G75*
G02*
X150920001Y-118639000I-55999J0D01*
G01*
X150031999Y-118639000D01*
G75*
G02*
X149976000Y-118583001I0J55999D01*
G01*
X149976000Y-117694999D01*
G75*
G02*
X150031999Y-117639000I55999J0D01*
G01*
X150920001Y-117639000D01*
G75*
G02*
X150976000Y-117694999I0J-55999D01*
G01*
G37*
G36*
G01*
X150976000Y-116424999D02*
X150976000Y-117313001D01*
G75*
G02*
X150920001Y-117369000I-55999J0D01*
G01*
X150031999Y-117369000D01*
G75*
G02*
X149976000Y-117313001I0J55999D01*
G01*
X149976000Y-116424999D01*
G75*
G02*
X150031999Y-116369000I55999J0D01*
G01*
X150920001Y-116369000D01*
G75*
G02*
X150976000Y-116424999I0J-55999D01*
G01*
G37*
G36*
G01*
X150976000Y-115154999D02*
X150976000Y-116043001D01*
G75*
G02*
X150920001Y-116099000I-55999J0D01*
G01*
X150031999Y-116099000D01*
G75*
G02*
X149976000Y-116043001I0J55999D01*
G01*
X149976000Y-115154999D01*
G75*
G02*
X150031999Y-115099000I55999J0D01*
G01*
X150920001Y-115099000D01*
G75*
G02*
X150976000Y-115154999I0J-55999D01*
G01*
G37*
G36*
G01*
X150976000Y-113884999D02*
X150976000Y-114773001D01*
G75*
G02*
X150920001Y-114829000I-55999J0D01*
G01*
X150031999Y-114829000D01*
G75*
G02*
X149976000Y-114773001I0J55999D01*
G01*
X149976000Y-113884999D01*
G75*
G02*
X150031999Y-113829000I55999J0D01*
G01*
X150920001Y-113829000D01*
G75*
G02*
X150976000Y-113884999I0J-55999D01*
G01*
G37*
G36*
G01*
X150976000Y-112614999D02*
X150976000Y-113503001D01*
G75*
G02*
X150920001Y-113559000I-55999J0D01*
G01*
X150031999Y-113559000D01*
G75*
G02*
X149976000Y-113503001I0J55999D01*
G01*
X149976000Y-112614999D01*
G75*
G02*
X150031999Y-112559000I55999J0D01*
G01*
X150920001Y-112559000D01*
G75*
G02*
X150976000Y-112614999I0J-55999D01*
G01*
G37*
G36*
G01*
X150976000Y-111344999D02*
X150976000Y-112233001D01*
G75*
G02*
X150920001Y-112289000I-55999J0D01*
G01*
X150031999Y-112289000D01*
G75*
G02*
X149976000Y-112233001I0J55999D01*
G01*
X149976000Y-111344999D01*
G75*
G02*
X150031999Y-111289000I55999J0D01*
G01*
X150920001Y-111289000D01*
G75*
G02*
X150976000Y-111344999I0J-55999D01*
G01*
G37*
G36*
G01*
X150976000Y-110074999D02*
X150976000Y-110963001D01*
G75*
G02*
X150920001Y-111019000I-55999J0D01*
G01*
X150031999Y-111019000D01*
G75*
G02*
X149976000Y-110963001I0J55999D01*
G01*
X149976000Y-110074999D01*
G75*
G02*
X150031999Y-110019000I55999J0D01*
G01*
X150920001Y-110019000D01*
G75*
G02*
X150976000Y-110074999I0J-55999D01*
G01*
G37*
G36*
G01*
X150976000Y-108804999D02*
X150976000Y-109693001D01*
G75*
G02*
X150920001Y-109749000I-55999J0D01*
G01*
X150031999Y-109749000D01*
G75*
G02*
X149976000Y-109693001I0J55999D01*
G01*
X149976000Y-108804999D01*
G75*
G02*
X150031999Y-108749000I55999J0D01*
G01*
X150920001Y-108749000D01*
G75*
G02*
X150976000Y-108804999I0J-55999D01*
G01*
G37*
G36*
G01*
X150920001Y-108049000D02*
X150031999Y-108049000D01*
G75*
G02*
X149976000Y-107993001I0J55999D01*
G01*
X149976000Y-107104999D01*
G75*
G02*
X150031999Y-107049000I55999J0D01*
G01*
X150920001Y-107049000D01*
G75*
G02*
X150976000Y-107104999I0J-55999D01*
G01*
X150976000Y-107993001D01*
G75*
G02*
X150920001Y-108049000I-55999J0D01*
G01*
G37*
G36*
G01*
X152189001Y-108049000D02*
X151300999Y-108049000D01*
G75*
G02*
X151245000Y-107993001I0J55999D01*
G01*
X151245000Y-107104999D01*
G75*
G02*
X151300999Y-107049000I55999J0D01*
G01*
X152189001Y-107049000D01*
G75*
G02*
X152245000Y-107104999I0J-55999D01*
G01*
X152245000Y-107993001D01*
G75*
G02*
X152189001Y-108049000I-55999J0D01*
G01*
G37*
G36*
G01*
X153459001Y-108049000D02*
X152570999Y-108049000D01*
G75*
G02*
X152515000Y-107993001I0J55999D01*
G01*
X152515000Y-107104999D01*
G75*
G02*
X152570999Y-107049000I55999J0D01*
G01*
X153459001Y-107049000D01*
G75*
G02*
X153515000Y-107104999I0J-55999D01*
G01*
X153515000Y-107993001D01*
G75*
G02*
X153459001Y-108049000I-55999J0D01*
G01*
G37*
G36*
G01*
X154729001Y-108049000D02*
X153840999Y-108049000D01*
G75*
G02*
X153785000Y-107993001I0J55999D01*
G01*
X153785000Y-107104999D01*
G75*
G02*
X153840999Y-107049000I55999J0D01*
G01*
X154729001Y-107049000D01*
G75*
G02*
X154785000Y-107104999I0J-55999D01*
G01*
X154785000Y-107993001D01*
G75*
G02*
X154729001Y-108049000I-55999J0D01*
G01*
G37*
G36*
G01*
X155999001Y-108049000D02*
X155110999Y-108049000D01*
G75*
G02*
X155055000Y-107993001I0J55999D01*
G01*
X155055000Y-107104999D01*
G75*
G02*
X155110999Y-107049000I55999J0D01*
G01*
X155999001Y-107049000D01*
G75*
G02*
X156055000Y-107104999I0J-55999D01*
G01*
X156055000Y-107993001D01*
G75*
G02*
X155999001Y-108049000I-55999J0D01*
G01*
G37*
G36*
G01*
X157269001Y-108049000D02*
X156380999Y-108049000D01*
G75*
G02*
X156325000Y-107993001I0J55999D01*
G01*
X156325000Y-107104999D01*
G75*
G02*
X156380999Y-107049000I55999J0D01*
G01*
X157269001Y-107049000D01*
G75*
G02*
X157325000Y-107104999I0J-55999D01*
G01*
X157325000Y-107993001D01*
G75*
G02*
X157269001Y-108049000I-55999J0D01*
G01*
G37*
G36*
G01*
X158539001Y-108049000D02*
X157650999Y-108049000D01*
G75*
G02*
X157595000Y-107993001I0J55999D01*
G01*
X157595000Y-107104999D01*
G75*
G02*
X157650999Y-107049000I55999J0D01*
G01*
X158539001Y-107049000D01*
G75*
G02*
X158595000Y-107104999I0J-55999D01*
G01*
X158595000Y-107993001D01*
G75*
G02*
X158539001Y-108049000I-55999J0D01*
G01*
G37*
G36*
G01*
X159809001Y-108049000D02*
X158920999Y-108049000D01*
G75*
G02*
X158865000Y-107993001I0J55999D01*
G01*
X158865000Y-107104999D01*
G75*
G02*
X158920999Y-107049000I55999J0D01*
G01*
X159809001Y-107049000D01*
G75*
G02*
X159865000Y-107104999I0J-55999D01*
G01*
X159865000Y-107993001D01*
G75*
G02*
X159809001Y-108049000I-55999J0D01*
G01*
G37*
G36*
G01*
X161079001Y-108049000D02*
X160190999Y-108049000D01*
G75*
G02*
X160135000Y-107993001I0J55999D01*
G01*
X160135000Y-107104999D01*
G75*
G02*
X160190999Y-107049000I55999J0D01*
G01*
X161079001Y-107049000D01*
G75*
G02*
X161135000Y-107104999I0J-55999D01*
G01*
X161135000Y-107993001D01*
G75*
G02*
X161079001Y-108049000I-55999J0D01*
G01*
G37*
G36*
G01*
X162349001Y-108049000D02*
X161460999Y-108049000D01*
G75*
G02*
X161405000Y-107993001I0J55999D01*
G01*
X161405000Y-107104999D01*
G75*
G02*
X161460999Y-107049000I55999J0D01*
G01*
X162349001Y-107049000D01*
G75*
G02*
X162405000Y-107104999I0J-55999D01*
G01*
X162405000Y-107993001D01*
G75*
G02*
X162349001Y-108049000I-55999J0D01*
G01*
G37*
G36*
G01*
X163619001Y-108049000D02*
X162730999Y-108049000D01*
G75*
G02*
X162675000Y-107993001I0J55999D01*
G01*
X162675000Y-107104999D01*
G75*
G02*
X162730999Y-107049000I55999J0D01*
G01*
X163619001Y-107049000D01*
G75*
G02*
X163675000Y-107104999I0J-55999D01*
G01*
X163675000Y-107993001D01*
G75*
G02*
X163619001Y-108049000I-55999J0D01*
G01*
G37*
G36*
G01*
X164889001Y-108049000D02*
X164000999Y-108049000D01*
G75*
G02*
X163945000Y-107993001I0J55999D01*
G01*
X163945000Y-107104999D01*
G75*
G02*
X164000999Y-107049000I55999J0D01*
G01*
X164889001Y-107049000D01*
G75*
G02*
X164945000Y-107104999I0J-55999D01*
G01*
X164945000Y-107993001D01*
G75*
G02*
X164889001Y-108049000I-55999J0D01*
G01*
G37*
G36*
G01*
X166159001Y-108049000D02*
X165270999Y-108049000D01*
G75*
G02*
X165215000Y-107993001I0J55999D01*
G01*
X165215000Y-107104999D01*
G75*
G02*
X165270999Y-107049000I55999J0D01*
G01*
X166159001Y-107049000D01*
G75*
G02*
X166215000Y-107104999I0J-55999D01*
G01*
X166215000Y-107993001D01*
G75*
G02*
X166159001Y-108049000I-55999J0D01*
G01*
G37*
G36*
G01*
X167429001Y-108049000D02*
X166540999Y-108049000D01*
G75*
G02*
X166485000Y-107993001I0J55999D01*
G01*
X166485000Y-107104999D01*
G75*
G02*
X166540999Y-107049000I55999J0D01*
G01*
X167429001Y-107049000D01*
G75*
G02*
X167485000Y-107104999I0J-55999D01*
G01*
X167485000Y-107993001D01*
G75*
G02*
X167429001Y-108049000I-55999J0D01*
G01*
G37*
G36*
G01*
X168699001Y-108049000D02*
X167810999Y-108049000D01*
G75*
G02*
X167755000Y-107993001I0J55999D01*
G01*
X167755000Y-107104999D01*
G75*
G02*
X167810999Y-107049000I55999J0D01*
G01*
X168699001Y-107049000D01*
G75*
G02*
X168755000Y-107104999I0J-55999D01*
G01*
X168755000Y-107993001D01*
G75*
G02*
X168699001Y-108049000I-55999J0D01*
G01*
G37*
G36*
G01*
X169969001Y-108049000D02*
X169080999Y-108049000D01*
G75*
G02*
X169025000Y-107993001I0J55999D01*
G01*
X169025000Y-107104999D01*
G75*
G02*
X169080999Y-107049000I55999J0D01*
G01*
X169969001Y-107049000D01*
G75*
G02*
X170025000Y-107104999I0J-55999D01*
G01*
X170025000Y-107993001D01*
G75*
G02*
X169969001Y-108049000I-55999J0D01*
G01*
G37*
G36*
G01*
X170025000Y-108804999D02*
X170025000Y-109693001D01*
G75*
G02*
X169969001Y-109749000I-55999J0D01*
G01*
X169080999Y-109749000D01*
G75*
G02*
X169025000Y-109693001I0J55999D01*
G01*
X169025000Y-108804999D01*
G75*
G02*
X169080999Y-108749000I55999J0D01*
G01*
X169969001Y-108749000D01*
G75*
G02*
X170025000Y-108804999I0J-55999D01*
G01*
G37*
G36*
G01*
X170025000Y-110074999D02*
X170025000Y-110963001D01*
G75*
G02*
X169969001Y-111019000I-55999J0D01*
G01*
X169080999Y-111019000D01*
G75*
G02*
X169025000Y-110963001I0J55999D01*
G01*
X169025000Y-110074999D01*
G75*
G02*
X169080999Y-110019000I55999J0D01*
G01*
X169969001Y-110019000D01*
G75*
G02*
X170025000Y-110074999I0J-55999D01*
G01*
G37*
G36*
G01*
X170025000Y-111344999D02*
X170025000Y-112233001D01*
G75*
G02*
X169969001Y-112289000I-55999J0D01*
G01*
X169080999Y-112289000D01*
G75*
G02*
X169025000Y-112233001I0J55999D01*
G01*
X169025000Y-111344999D01*
G75*
G02*
X169080999Y-111289000I55999J0D01*
G01*
X169969001Y-111289000D01*
G75*
G02*
X170025000Y-111344999I0J-55999D01*
G01*
G37*
G36*
G01*
X170025000Y-112614999D02*
X170025000Y-113503001D01*
G75*
G02*
X169969001Y-113559000I-55999J0D01*
G01*
X169080999Y-113559000D01*
G75*
G02*
X169025000Y-113503001I0J55999D01*
G01*
X169025000Y-112614999D01*
G75*
G02*
X169080999Y-112559000I55999J0D01*
G01*
X169969001Y-112559000D01*
G75*
G02*
X170025000Y-112614999I0J-55999D01*
G01*
G37*
G36*
G01*
X170025000Y-113884999D02*
X170025000Y-114773001D01*
G75*
G02*
X169969001Y-114829000I-55999J0D01*
G01*
X169080999Y-114829000D01*
G75*
G02*
X169025000Y-114773001I0J55999D01*
G01*
X169025000Y-113884999D01*
G75*
G02*
X169080999Y-113829000I55999J0D01*
G01*
X169969001Y-113829000D01*
G75*
G02*
X170025000Y-113884999I0J-55999D01*
G01*
G37*
G36*
G01*
X170025000Y-115154999D02*
X170025000Y-116043001D01*
G75*
G02*
X169969001Y-116099000I-55999J0D01*
G01*
X169080999Y-116099000D01*
G75*
G02*
X169025000Y-116043001I0J55999D01*
G01*
X169025000Y-115154999D01*
G75*
G02*
X169080999Y-115099000I55999J0D01*
G01*
X169969001Y-115099000D01*
G75*
G02*
X170025000Y-115154999I0J-55999D01*
G01*
G37*
G36*
G01*
X170025000Y-116424999D02*
X170025000Y-117313001D01*
G75*
G02*
X169969001Y-117369000I-55999J0D01*
G01*
X169080999Y-117369000D01*
G75*
G02*
X169025000Y-117313001I0J55999D01*
G01*
X169025000Y-116424999D01*
G75*
G02*
X169080999Y-116369000I55999J0D01*
G01*
X169969001Y-116369000D01*
G75*
G02*
X170025000Y-116424999I0J-55999D01*
G01*
G37*
G36*
G01*
X170025000Y-117694999D02*
X170025000Y-118583001D01*
G75*
G02*
X169969001Y-118639000I-55999J0D01*
G01*
X169080999Y-118639000D01*
G75*
G02*
X169025000Y-118583001I0J55999D01*
G01*
X169025000Y-117694999D01*
G75*
G02*
X169080999Y-117639000I55999J0D01*
G01*
X169969001Y-117639000D01*
G75*
G02*
X170025000Y-117694999I0J-55999D01*
G01*
G37*
G36*
G01*
X170025000Y-118964999D02*
X170025000Y-119853001D01*
G75*
G02*
X169969001Y-119909000I-55999J0D01*
G01*
X169080999Y-119909000D01*
G75*
G02*
X169025000Y-119853001I0J55999D01*
G01*
X169025000Y-118964999D01*
G75*
G02*
X169080999Y-118909000I55999J0D01*
G01*
X169969001Y-118909000D01*
G75*
G02*
X170025000Y-118964999I0J-55999D01*
G01*
G37*
G36*
G01*
X170025000Y-120234999D02*
X170025000Y-121123001D01*
G75*
G02*
X169969001Y-121179000I-55999J0D01*
G01*
X169080999Y-121179000D01*
G75*
G02*
X169025000Y-121123001I0J55999D01*
G01*
X169025000Y-120234999D01*
G75*
G02*
X169080999Y-120179000I55999J0D01*
G01*
X169969001Y-120179000D01*
G75*
G02*
X170025000Y-120234999I0J-55999D01*
G01*
G37*
G36*
G01*
X170025000Y-121504999D02*
X170025000Y-122393001D01*
G75*
G02*
X169969001Y-122449000I-55999J0D01*
G01*
X169080999Y-122449000D01*
G75*
G02*
X169025000Y-122393001I0J55999D01*
G01*
X169025000Y-121504999D01*
G75*
G02*
X169080999Y-121449000I55999J0D01*
G01*
X169969001Y-121449000D01*
G75*
G02*
X170025000Y-121504999I0J-55999D01*
G01*
G37*
G36*
G01*
X169969001Y-124149000D02*
X169080999Y-124149000D01*
G75*
G02*
X169025000Y-124093001I0J55999D01*
G01*
X169025000Y-123204999D01*
G75*
G02*
X169080999Y-123149000I55999J0D01*
G01*
X169969001Y-123149000D01*
G75*
G02*
X170025000Y-123204999I0J-55999D01*
G01*
X170025000Y-124093001D01*
G75*
G02*
X169969001Y-124149000I-55999J0D01*
G01*
G37*
G36*
G01*
X168699001Y-124149000D02*
X167810999Y-124149000D01*
G75*
G02*
X167755000Y-124093001I0J55999D01*
G01*
X167755000Y-123204999D01*
G75*
G02*
X167810999Y-123149000I55999J0D01*
G01*
X168699001Y-123149000D01*
G75*
G02*
X168755000Y-123204999I0J-55999D01*
G01*
X168755000Y-124093001D01*
G75*
G02*
X168699001Y-124149000I-55999J0D01*
G01*
G37*
G36*
G01*
X167429001Y-124149000D02*
X166540999Y-124149000D01*
G75*
G02*
X166485000Y-124093001I0J55999D01*
G01*
X166485000Y-123204999D01*
G75*
G02*
X166540999Y-123149000I55999J0D01*
G01*
X167429001Y-123149000D01*
G75*
G02*
X167485000Y-123204999I0J-55999D01*
G01*
X167485000Y-124093001D01*
G75*
G02*
X167429001Y-124149000I-55999J0D01*
G01*
G37*
G36*
G01*
X166159001Y-124149000D02*
X165270999Y-124149000D01*
G75*
G02*
X165215000Y-124093001I0J55999D01*
G01*
X165215000Y-123204999D01*
G75*
G02*
X165270999Y-123149000I55999J0D01*
G01*
X166159001Y-123149000D01*
G75*
G02*
X166215000Y-123204999I0J-55999D01*
G01*
X166215000Y-124093001D01*
G75*
G02*
X166159001Y-124149000I-55999J0D01*
G01*
G37*
G36*
G01*
X164889001Y-124149000D02*
X164000999Y-124149000D01*
G75*
G02*
X163945000Y-124093001I0J55999D01*
G01*
X163945000Y-123204999D01*
G75*
G02*
X164000999Y-123149000I55999J0D01*
G01*
X164889001Y-123149000D01*
G75*
G02*
X164945000Y-123204999I0J-55999D01*
G01*
X164945000Y-124093001D01*
G75*
G02*
X164889001Y-124149000I-55999J0D01*
G01*
G37*
G36*
G01*
X163619001Y-124149000D02*
X162730999Y-124149000D01*
G75*
G02*
X162675000Y-124093001I0J55999D01*
G01*
X162675000Y-123204999D01*
G75*
G02*
X162730999Y-123149000I55999J0D01*
G01*
X163619001Y-123149000D01*
G75*
G02*
X163675000Y-123204999I0J-55999D01*
G01*
X163675000Y-124093001D01*
G75*
G02*
X163619001Y-124149000I-55999J0D01*
G01*
G37*
G36*
G01*
X162349001Y-124149000D02*
X161460999Y-124149000D01*
G75*
G02*
X161405000Y-124093001I0J55999D01*
G01*
X161405000Y-123204999D01*
G75*
G02*
X161460999Y-123149000I55999J0D01*
G01*
X162349001Y-123149000D01*
G75*
G02*
X162405000Y-123204999I0J-55999D01*
G01*
X162405000Y-124093001D01*
G75*
G02*
X162349001Y-124149000I-55999J0D01*
G01*
G37*
G36*
G01*
X161079001Y-124149000D02*
X160190999Y-124149000D01*
G75*
G02*
X160135000Y-124093001I0J55999D01*
G01*
X160135000Y-123204999D01*
G75*
G02*
X160190999Y-123149000I55999J0D01*
G01*
X161079001Y-123149000D01*
G75*
G02*
X161135000Y-123204999I0J-55999D01*
G01*
X161135000Y-124093001D01*
G75*
G02*
X161079001Y-124149000I-55999J0D01*
G01*
G37*
G36*
G01*
X159809001Y-124149000D02*
X158920999Y-124149000D01*
G75*
G02*
X158865000Y-124093001I0J55999D01*
G01*
X158865000Y-123204999D01*
G75*
G02*
X158920999Y-123149000I55999J0D01*
G01*
X159809001Y-123149000D01*
G75*
G02*
X159865000Y-123204999I0J-55999D01*
G01*
X159865000Y-124093001D01*
G75*
G02*
X159809001Y-124149000I-55999J0D01*
G01*
G37*
G36*
G01*
X158539001Y-124149000D02*
X157650999Y-124149000D01*
G75*
G02*
X157595000Y-124093001I0J55999D01*
G01*
X157595000Y-123204999D01*
G75*
G02*
X157650999Y-123149000I55999J0D01*
G01*
X158539001Y-123149000D01*
G75*
G02*
X158595000Y-123204999I0J-55999D01*
G01*
X158595000Y-124093001D01*
G75*
G02*
X158539001Y-124149000I-55999J0D01*
G01*
G37*
G36*
G01*
X157269001Y-124149000D02*
X156380999Y-124149000D01*
G75*
G02*
X156325000Y-124093001I0J55999D01*
G01*
X156325000Y-123204999D01*
G75*
G02*
X156380999Y-123149000I55999J0D01*
G01*
X157269001Y-123149000D01*
G75*
G02*
X157325000Y-123204999I0J-55999D01*
G01*
X157325000Y-124093001D01*
G75*
G02*
X157269001Y-124149000I-55999J0D01*
G01*
G37*
G36*
G01*
X155999001Y-124149000D02*
X155110999Y-124149000D01*
G75*
G02*
X155055000Y-124093001I0J55999D01*
G01*
X155055000Y-123204999D01*
G75*
G02*
X155110999Y-123149000I55999J0D01*
G01*
X155999001Y-123149000D01*
G75*
G02*
X156055000Y-123204999I0J-55999D01*
G01*
X156055000Y-124093001D01*
G75*
G02*
X155999001Y-124149000I-55999J0D01*
G01*
G37*
G36*
G01*
X154729001Y-124149000D02*
X153840999Y-124149000D01*
G75*
G02*
X153785000Y-124093001I0J55999D01*
G01*
X153785000Y-123204999D01*
G75*
G02*
X153840999Y-123149000I55999J0D01*
G01*
X154729001Y-123149000D01*
G75*
G02*
X154785000Y-123204999I0J-55999D01*
G01*
X154785000Y-124093001D01*
G75*
G02*
X154729001Y-124149000I-55999J0D01*
G01*
G37*
G36*
G01*
X153459001Y-124149000D02*
X152570999Y-124149000D01*
G75*
G02*
X152515000Y-124093001I0J55999D01*
G01*
X152515000Y-123204999D01*
G75*
G02*
X152570999Y-123149000I55999J0D01*
G01*
X153459001Y-123149000D01*
G75*
G02*
X153515000Y-123204999I0J-55999D01*
G01*
X153515000Y-124093001D01*
G75*
G02*
X153459001Y-124149000I-55999J0D01*
G01*
G37*
G36*
G01*
X152189001Y-124149000D02*
X151300999Y-124149000D01*
G75*
G02*
X151245000Y-124093001I0J55999D01*
G01*
X151245000Y-123204999D01*
G75*
G02*
X151300999Y-123149000I55999J0D01*
G01*
X152189001Y-123149000D01*
G75*
G02*
X152245000Y-123204999I0J-55999D01*
G01*
X152245000Y-124093001D01*
G75*
G02*
X152189001Y-124149000I-55999J0D01*
G01*
G37*
G36*
G01*
X150920001Y-124149000D02*
X150031999Y-124149000D01*
G75*
G02*
X149976000Y-124093001I0J55999D01*
G01*
X149976000Y-123204999D01*
G75*
G02*
X150031999Y-123149000I55999J0D01*
G01*
X150920001Y-123149000D01*
G75*
G02*
X150976000Y-123204999I0J-55999D01*
G01*
X150976000Y-124093001D01*
G75*
G02*
X150920001Y-124149000I-55999J0D01*
G01*
G37*
%TD*%
D14*
%TO.C,SW1*%
X132375000Y-104620000D03*
X128075000Y-104620000D03*
X132375000Y-100620000D03*
X128075000Y-100620000D03*
D15*
X133175000Y-101620000D03*
X127275000Y-103620000D03*
X133175000Y-102620000D03*
X127275000Y-102620000D03*
X133175000Y-103620000D03*
X127275000Y-101620000D03*
%TD*%
%TO.C,R6*%
G36*
G01*
X146381250Y-113820000D02*
X145818750Y-113820000D01*
G75*
G02*
X145575000Y-113576250I0J243750D01*
G01*
X145575000Y-113088750D01*
G75*
G02*
X145818750Y-112845000I243750J0D01*
G01*
X146381250Y-112845000D01*
G75*
G02*
X146625000Y-113088750I0J-243750D01*
G01*
X146625000Y-113576250D01*
G75*
G02*
X146381250Y-113820000I-243750J0D01*
G01*
G37*
G36*
G01*
X146381250Y-115395000D02*
X145818750Y-115395000D01*
G75*
G02*
X145575000Y-115151250I0J243750D01*
G01*
X145575000Y-114663750D01*
G75*
G02*
X145818750Y-114420000I243750J0D01*
G01*
X146381250Y-114420000D01*
G75*
G02*
X146625000Y-114663750I0J-243750D01*
G01*
X146625000Y-115151250D01*
G75*
G02*
X146381250Y-115395000I-243750J0D01*
G01*
G37*
%TD*%
D16*
%TO.C,J1*%
X148500000Y-113730000D03*
X148500000Y-116270000D03*
%TD*%
M02*
