%TF.GenerationSoftware,KiCad,Pcbnew,(5.1.6-0-10_14)*%
%TF.CreationDate,2021-08-10T12:06:40-04:00*%
%TF.ProjectId,fanboard,66616e62-6f61-4726-942e-6b696361645f,rev?*%
%TF.SameCoordinates,Original*%
%TF.FileFunction,Legend,Bot*%
%TF.FilePolarity,Positive*%
%FSLAX46Y46*%
G04 Gerber Fmt 4.6, Leading zero omitted, Abs format (unit mm)*
G04 Created by KiCad (PCBNEW (5.1.6-0-10_14)) date 2021-08-10 12:06:40*
%MOMM*%
%LPD*%
G01*
G04 APERTURE LIST*
%ADD10C,0.100000*%
%ADD11C,0.120000*%
%ADD12C,0.150000*%
G04 APERTURE END LIST*
D10*
X144150000Y-112879047D02*
X144176190Y-112931428D01*
X144176190Y-113010000D01*
X144150000Y-113088571D01*
X144097619Y-113140952D01*
X144045238Y-113167142D01*
X143940476Y-113193333D01*
X143861904Y-113193333D01*
X143757142Y-113167142D01*
X143704761Y-113140952D01*
X143652380Y-113088571D01*
X143626190Y-113010000D01*
X143626190Y-112957619D01*
X143652380Y-112879047D01*
X143678571Y-112852857D01*
X143861904Y-112852857D01*
X143861904Y-112957619D01*
X143626190Y-112617142D02*
X144176190Y-112617142D01*
X143626190Y-112302857D01*
X144176190Y-112302857D01*
X143626190Y-112040952D02*
X144176190Y-112040952D01*
X144176190Y-111910000D01*
X144150000Y-111831428D01*
X144097619Y-111779047D01*
X144045238Y-111752857D01*
X143940476Y-111726666D01*
X143861904Y-111726666D01*
X143757142Y-111752857D01*
X143704761Y-111779047D01*
X143652380Y-111831428D01*
X143626190Y-111910000D01*
X143626190Y-112040952D01*
X144176190Y-118142380D02*
X143626190Y-117959047D01*
X144176190Y-117775714D01*
X143626190Y-117592380D02*
X144176190Y-117592380D01*
X143626190Y-117330476D02*
X144176190Y-117330476D01*
X143626190Y-117016190D01*
X144176190Y-117016190D01*
X144176190Y-115694047D02*
X144176190Y-115379761D01*
X143626190Y-115536904D02*
X144176190Y-115536904D01*
X144176190Y-115248809D02*
X143626190Y-114882142D01*
X144176190Y-114882142D02*
X143626190Y-115248809D01*
X143626190Y-114672619D02*
X144176190Y-114672619D01*
X144176190Y-114541666D01*
X144150000Y-114463095D01*
X144097619Y-114410714D01*
X144045238Y-114384523D01*
X143940476Y-114358333D01*
X143861904Y-114358333D01*
X143757142Y-114384523D01*
X143704761Y-114410714D01*
X143652380Y-114463095D01*
X143626190Y-114541666D01*
X143626190Y-114672619D01*
X153400000Y-117959047D02*
X153426190Y-118011428D01*
X153426190Y-118090000D01*
X153400000Y-118168571D01*
X153347619Y-118220952D01*
X153295238Y-118247142D01*
X153190476Y-118273333D01*
X153111904Y-118273333D01*
X153007142Y-118247142D01*
X152954761Y-118220952D01*
X152902380Y-118168571D01*
X152876190Y-118090000D01*
X152876190Y-118037619D01*
X152902380Y-117959047D01*
X152928571Y-117932857D01*
X153111904Y-117932857D01*
X153111904Y-118037619D01*
X152876190Y-117697142D02*
X153426190Y-117697142D01*
X152876190Y-117382857D01*
X153426190Y-117382857D01*
X152876190Y-117120952D02*
X153426190Y-117120952D01*
X153426190Y-116990000D01*
X153400000Y-116911428D01*
X153347619Y-116859047D01*
X153295238Y-116832857D01*
X153190476Y-116806666D01*
X153111904Y-116806666D01*
X153007142Y-116832857D01*
X152954761Y-116859047D01*
X152902380Y-116911428D01*
X152876190Y-116990000D01*
X152876190Y-117120952D01*
X152876190Y-115366666D02*
X153138095Y-115550000D01*
X152876190Y-115680952D02*
X153426190Y-115680952D01*
X153426190Y-115471428D01*
X153400000Y-115419047D01*
X153373809Y-115392857D01*
X153321428Y-115366666D01*
X153242857Y-115366666D01*
X153190476Y-115392857D01*
X153164285Y-115419047D01*
X153138095Y-115471428D01*
X153138095Y-115680952D01*
X153426190Y-115183333D02*
X152876190Y-114816666D01*
X153426190Y-114816666D02*
X152876190Y-115183333D01*
X152876190Y-114607142D02*
X153426190Y-114607142D01*
X153426190Y-114476190D01*
X153400000Y-114397619D01*
X153347619Y-114345238D01*
X153295238Y-114319047D01*
X153190476Y-114292857D01*
X153111904Y-114292857D01*
X153007142Y-114319047D01*
X152954761Y-114345238D01*
X152902380Y-114397619D01*
X152876190Y-114476190D01*
X152876190Y-114607142D01*
X153426190Y-113062380D02*
X152876190Y-112879047D01*
X153426190Y-112695714D01*
X152876190Y-112512380D02*
X153426190Y-112512380D01*
X152876190Y-112250476D02*
X153426190Y-112250476D01*
X152876190Y-111936190D01*
X153426190Y-111936190D01*
D11*
X155436285Y-101822857D02*
X155507714Y-101787142D01*
X155650571Y-101787142D01*
X155722000Y-101822857D01*
X155793428Y-101894285D01*
X155829142Y-101965714D01*
X155829142Y-102108571D01*
X155793428Y-102180000D01*
X155722000Y-102251428D01*
X155650571Y-102287142D01*
X155507714Y-102287142D01*
X155436285Y-102251428D01*
X155579142Y-101537142D02*
X155757714Y-101572857D01*
X155936285Y-101680000D01*
X156043428Y-101858571D01*
X156079142Y-102037142D01*
X156043428Y-102215714D01*
X155936285Y-102394285D01*
X155757714Y-102501428D01*
X155579142Y-102537142D01*
X155400571Y-102501428D01*
X155222000Y-102394285D01*
X155114857Y-102215714D01*
X155079142Y-102037142D01*
X155114857Y-101858571D01*
X155222000Y-101680000D01*
X155400571Y-101572857D01*
X155579142Y-101537142D01*
X154222000Y-101715714D02*
X154186285Y-101680000D01*
X154114857Y-101644285D01*
X153936285Y-101644285D01*
X153864857Y-101680000D01*
X153829142Y-101715714D01*
X153793428Y-101787142D01*
X153793428Y-101858571D01*
X153829142Y-101965714D01*
X154257714Y-102394285D01*
X153793428Y-102394285D01*
X153329142Y-101644285D02*
X153257714Y-101644285D01*
X153186285Y-101680000D01*
X153150571Y-101715714D01*
X153114857Y-101787142D01*
X153079142Y-101930000D01*
X153079142Y-102108571D01*
X153114857Y-102251428D01*
X153150571Y-102322857D01*
X153186285Y-102358571D01*
X153257714Y-102394285D01*
X153329142Y-102394285D01*
X153400571Y-102358571D01*
X153436285Y-102322857D01*
X153472000Y-102251428D01*
X153507714Y-102108571D01*
X153507714Y-101930000D01*
X153472000Y-101787142D01*
X153436285Y-101715714D01*
X153400571Y-101680000D01*
X153329142Y-101644285D01*
X152793428Y-101715714D02*
X152757714Y-101680000D01*
X152686285Y-101644285D01*
X152507714Y-101644285D01*
X152436285Y-101680000D01*
X152400571Y-101715714D01*
X152364857Y-101787142D01*
X152364857Y-101858571D01*
X152400571Y-101965714D01*
X152829142Y-102394285D01*
X152364857Y-102394285D01*
X151650571Y-102394285D02*
X152079142Y-102394285D01*
X151864857Y-102394285D02*
X151864857Y-101644285D01*
X151936285Y-101751428D01*
X152007714Y-101822857D01*
X152079142Y-101858571D01*
X155829142Y-102889285D02*
X155829142Y-103425000D01*
X155864857Y-103532142D01*
X155936285Y-103603571D01*
X156043428Y-103639285D01*
X156114857Y-103639285D01*
X155364857Y-103639285D02*
X155436285Y-103603571D01*
X155472000Y-103567857D01*
X155507714Y-103496428D01*
X155507714Y-103282142D01*
X155472000Y-103210714D01*
X155436285Y-103175000D01*
X155364857Y-103139285D01*
X155257714Y-103139285D01*
X155186285Y-103175000D01*
X155150571Y-103210714D01*
X155114857Y-103282142D01*
X155114857Y-103496428D01*
X155150571Y-103567857D01*
X155186285Y-103603571D01*
X155257714Y-103639285D01*
X155364857Y-103639285D01*
X154793428Y-103639285D02*
X154793428Y-102889285D01*
X154472000Y-103639285D02*
X154472000Y-103246428D01*
X154507714Y-103175000D01*
X154579142Y-103139285D01*
X154686285Y-103139285D01*
X154757714Y-103175000D01*
X154793428Y-103210714D01*
X154114857Y-103139285D02*
X154114857Y-103639285D01*
X154114857Y-103210714D02*
X154079142Y-103175000D01*
X154007714Y-103139285D01*
X153900571Y-103139285D01*
X153829142Y-103175000D01*
X153793428Y-103246428D01*
X153793428Y-103639285D01*
X152543428Y-103639285D02*
X152543428Y-103246428D01*
X152579142Y-103175000D01*
X152650571Y-103139285D01*
X152793428Y-103139285D01*
X152864857Y-103175000D01*
X152543428Y-103603571D02*
X152614857Y-103639285D01*
X152793428Y-103639285D01*
X152864857Y-103603571D01*
X152900571Y-103532142D01*
X152900571Y-103460714D01*
X152864857Y-103389285D01*
X152793428Y-103353571D01*
X152614857Y-103353571D01*
X152543428Y-103317857D01*
X152186285Y-103139285D02*
X152186285Y-103639285D01*
X152186285Y-103210714D02*
X152150571Y-103175000D01*
X152079142Y-103139285D01*
X151972000Y-103139285D01*
X151900571Y-103175000D01*
X151864857Y-103246428D01*
X151864857Y-103639285D01*
X151186285Y-103639285D02*
X151186285Y-102889285D01*
X151186285Y-103603571D02*
X151257714Y-103639285D01*
X151400571Y-103639285D01*
X151472000Y-103603571D01*
X151507714Y-103567857D01*
X151543428Y-103496428D01*
X151543428Y-103282142D01*
X151507714Y-103210714D01*
X151472000Y-103175000D01*
X151400571Y-103139285D01*
X151257714Y-103139285D01*
X151186285Y-103175000D01*
X150043428Y-102889285D02*
X150043428Y-103425000D01*
X150079142Y-103532142D01*
X150150571Y-103603571D01*
X150257714Y-103639285D01*
X150329142Y-103639285D01*
X149364857Y-103139285D02*
X149364857Y-103639285D01*
X149686285Y-103139285D02*
X149686285Y-103532142D01*
X149650571Y-103603571D01*
X149579142Y-103639285D01*
X149472000Y-103639285D01*
X149400571Y-103603571D01*
X149364857Y-103567857D01*
X148900571Y-103639285D02*
X148972000Y-103603571D01*
X149007714Y-103532142D01*
X149007714Y-102889285D01*
X148614857Y-103639285D02*
X148614857Y-103139285D01*
X148614857Y-102889285D02*
X148650571Y-102925000D01*
X148614857Y-102960714D01*
X148579142Y-102925000D01*
X148614857Y-102889285D01*
X148614857Y-102960714D01*
X147936285Y-103639285D02*
X147936285Y-103246428D01*
X147972000Y-103175000D01*
X148043428Y-103139285D01*
X148186285Y-103139285D01*
X148257714Y-103175000D01*
X147936285Y-103603571D02*
X148007714Y-103639285D01*
X148186285Y-103639285D01*
X148257714Y-103603571D01*
X148293428Y-103532142D01*
X148293428Y-103460714D01*
X148257714Y-103389285D01*
X148186285Y-103353571D01*
X148007714Y-103353571D01*
X147936285Y-103317857D01*
X155793428Y-104491428D02*
X155686285Y-104527142D01*
X155650571Y-104562857D01*
X155614857Y-104634285D01*
X155614857Y-104741428D01*
X155650571Y-104812857D01*
X155686285Y-104848571D01*
X155757714Y-104884285D01*
X156043428Y-104884285D01*
X156043428Y-104134285D01*
X155793428Y-104134285D01*
X155722000Y-104170000D01*
X155686285Y-104205714D01*
X155650571Y-104277142D01*
X155650571Y-104348571D01*
X155686285Y-104420000D01*
X155722000Y-104455714D01*
X155793428Y-104491428D01*
X156043428Y-104491428D01*
X154972000Y-104384285D02*
X154972000Y-104884285D01*
X155293428Y-104384285D02*
X155293428Y-104777142D01*
X155257714Y-104848571D01*
X155186285Y-104884285D01*
X155079142Y-104884285D01*
X155007714Y-104848571D01*
X154972000Y-104812857D01*
X154507714Y-104884285D02*
X154579142Y-104848571D01*
X154614857Y-104812857D01*
X154650571Y-104741428D01*
X154650571Y-104527142D01*
X154614857Y-104455714D01*
X154579142Y-104420000D01*
X154507714Y-104384285D01*
X154400571Y-104384285D01*
X154329142Y-104420000D01*
X154293428Y-104455714D01*
X154257714Y-104527142D01*
X154257714Y-104741428D01*
X154293428Y-104812857D01*
X154329142Y-104848571D01*
X154400571Y-104884285D01*
X154507714Y-104884285D01*
X153936285Y-104384285D02*
X153936285Y-104884285D01*
X153936285Y-104455714D02*
X153900571Y-104420000D01*
X153829142Y-104384285D01*
X153722000Y-104384285D01*
X153650571Y-104420000D01*
X153614857Y-104491428D01*
X153614857Y-104884285D01*
X152936285Y-104884285D02*
X152936285Y-104491428D01*
X152972000Y-104420000D01*
X153043428Y-104384285D01*
X153186285Y-104384285D01*
X153257714Y-104420000D01*
X152936285Y-104848571D02*
X153007714Y-104884285D01*
X153186285Y-104884285D01*
X153257714Y-104848571D01*
X153293428Y-104777142D01*
X153293428Y-104705714D01*
X153257714Y-104634285D01*
X153186285Y-104598571D01*
X153007714Y-104598571D01*
X152936285Y-104562857D01*
X152257714Y-104384285D02*
X152257714Y-104991428D01*
X152293428Y-105062857D01*
X152329142Y-105098571D01*
X152400571Y-105134285D01*
X152507714Y-105134285D01*
X152579142Y-105098571D01*
X152257714Y-104848571D02*
X152329142Y-104884285D01*
X152472000Y-104884285D01*
X152543428Y-104848571D01*
X152579142Y-104812857D01*
X152614857Y-104741428D01*
X152614857Y-104527142D01*
X152579142Y-104455714D01*
X152543428Y-104420000D01*
X152472000Y-104384285D01*
X152329142Y-104384285D01*
X152257714Y-104420000D01*
X151579142Y-104384285D02*
X151579142Y-104884285D01*
X151900571Y-104384285D02*
X151900571Y-104777142D01*
X151864857Y-104848571D01*
X151793428Y-104884285D01*
X151686285Y-104884285D01*
X151614857Y-104848571D01*
X151579142Y-104812857D01*
X151222000Y-104884285D02*
X151222000Y-104384285D01*
X151222000Y-104527142D02*
X151186285Y-104455714D01*
X151150571Y-104420000D01*
X151079142Y-104384285D01*
X151007714Y-104384285D01*
X150757714Y-104884285D02*
X150757714Y-104384285D01*
X150757714Y-104134285D02*
X150793428Y-104170000D01*
X150757714Y-104205714D01*
X150722000Y-104170000D01*
X150757714Y-104134285D01*
X150757714Y-104205714D01*
X150293428Y-104884285D02*
X150364857Y-104848571D01*
X150400571Y-104812857D01*
X150436285Y-104741428D01*
X150436285Y-104527142D01*
X150400571Y-104455714D01*
X150364857Y-104420000D01*
X150293428Y-104384285D01*
X150186285Y-104384285D01*
X150114857Y-104420000D01*
X150079142Y-104455714D01*
X150043428Y-104527142D01*
X150043428Y-104741428D01*
X150079142Y-104812857D01*
X150114857Y-104848571D01*
X150186285Y-104884285D01*
X150293428Y-104884285D01*
D12*
X168858452Y-102927380D02*
X168733452Y-101927380D01*
X168792976Y-102403571D02*
X168221547Y-102403571D01*
X168287023Y-102927380D02*
X168162023Y-101927380D01*
X167822738Y-102641666D02*
X167346547Y-102641666D01*
X167953690Y-102927380D02*
X167495357Y-101927380D01*
X167287023Y-102927380D01*
X166953690Y-102927380D02*
X166828690Y-101927380D01*
X166477500Y-102927380D02*
X166352500Y-101927380D01*
X165906071Y-102927380D02*
X166263214Y-102355952D01*
X165781071Y-101927380D02*
X166423928Y-102498809D01*
X165352500Y-101927380D02*
X165453690Y-102736904D01*
X165417976Y-102832142D01*
X165376309Y-102879761D01*
X165287023Y-102927380D01*
X165096547Y-102927380D01*
X164995357Y-102879761D01*
X164941785Y-102832142D01*
X164882261Y-102736904D01*
X164781071Y-101927380D01*
X163709642Y-102879761D02*
X163572738Y-102927380D01*
X163334642Y-102927380D01*
X163233452Y-102879761D01*
X163179880Y-102832142D01*
X163120357Y-102736904D01*
X163108452Y-102641666D01*
X163144166Y-102546428D01*
X163185833Y-102498809D01*
X163275119Y-102451190D01*
X163459642Y-102403571D01*
X163548928Y-102355952D01*
X163590595Y-102308333D01*
X163626309Y-102213095D01*
X163614404Y-102117857D01*
X163554880Y-102022619D01*
X163501309Y-101975000D01*
X163400119Y-101927380D01*
X163162023Y-101927380D01*
X163025119Y-101975000D01*
X162590595Y-101927380D02*
X162691785Y-102736904D01*
X162656071Y-102832142D01*
X162614404Y-102879761D01*
X162525119Y-102927380D01*
X162334642Y-102927380D01*
X162233452Y-102879761D01*
X162179880Y-102832142D01*
X162120357Y-102736904D01*
X162019166Y-101927380D01*
X161667976Y-102927380D02*
X161542976Y-101927380D01*
X161162023Y-101927380D01*
X161072738Y-101975000D01*
X161031071Y-102022619D01*
X160995357Y-102117857D01*
X161013214Y-102260714D01*
X161072738Y-102355952D01*
X161126309Y-102403571D01*
X161227500Y-102451190D01*
X161608452Y-102451190D01*
X160602500Y-102403571D02*
X160269166Y-102403571D01*
X160191785Y-102927380D02*
X160667976Y-102927380D01*
X160542976Y-101927380D01*
X160066785Y-101927380D01*
X159191785Y-102927380D02*
X159465595Y-102451190D01*
X159763214Y-102927380D02*
X159638214Y-101927380D01*
X159257261Y-101927380D01*
X159167976Y-101975000D01*
X159126309Y-102022619D01*
X159090595Y-102117857D01*
X159108452Y-102260714D01*
X159167976Y-102355952D01*
X159221547Y-102403571D01*
X159322738Y-102451190D01*
X159703690Y-102451190D01*
X168828690Y-103577380D02*
X168715595Y-104577380D01*
X168435833Y-103863095D01*
X168334642Y-104577380D01*
X167971547Y-103577380D01*
X167715595Y-104577380D02*
X167590595Y-103577380D01*
X167191785Y-104196428D02*
X166429880Y-104196428D01*
X165602500Y-104053571D02*
X165935833Y-104053571D01*
X166001309Y-104577380D02*
X165876309Y-103577380D01*
X165400119Y-103577380D01*
X165144166Y-104577380D02*
X165019166Y-103577380D01*
X163334642Y-104577380D02*
X163608452Y-104101190D01*
X163906071Y-104577380D02*
X163781071Y-103577380D01*
X163400119Y-103577380D01*
X163310833Y-103625000D01*
X163269166Y-103672619D01*
X163233452Y-103767857D01*
X163251309Y-103910714D01*
X163310833Y-104005952D01*
X163364404Y-104053571D01*
X163465595Y-104101190D01*
X163846547Y-104101190D01*
X162840595Y-104053571D02*
X162507261Y-104053571D01*
X162429880Y-104577380D02*
X162906071Y-104577380D01*
X162781071Y-103577380D01*
X162304880Y-103577380D01*
X162019166Y-103577380D02*
X161810833Y-104577380D01*
X161352500Y-103577380D01*
X159983452Y-104053571D02*
X159846547Y-104101190D01*
X159804880Y-104148809D01*
X159769166Y-104244047D01*
X159787023Y-104386904D01*
X159846547Y-104482142D01*
X159900119Y-104529761D01*
X160001309Y-104577380D01*
X160382261Y-104577380D01*
X160257261Y-103577380D01*
X159923928Y-103577380D01*
X159834642Y-103625000D01*
X159792976Y-103672619D01*
X159757261Y-103767857D01*
X159769166Y-103863095D01*
X159828690Y-103958333D01*
X159882261Y-104005952D01*
X159983452Y-104053571D01*
X160316785Y-104053571D01*
D11*
%TO.C,J1*%
X151150000Y-111565000D02*
X152170000Y-111565000D01*
X145850000Y-111565000D02*
X145850000Y-111080000D01*
X145850000Y-111080000D02*
X151150000Y-111080000D01*
X151150000Y-111080000D02*
X151150000Y-111565000D01*
X145850000Y-118435000D02*
X145850000Y-118920000D01*
X145850000Y-118920000D02*
X151150000Y-118920000D01*
X151150000Y-118920000D02*
X151150000Y-118435000D01*
X145850000Y-113355000D02*
X145850000Y-114105000D01*
X151150000Y-113355000D02*
X151150000Y-114105000D01*
X145850000Y-115895000D02*
X145850000Y-116645000D01*
X151150000Y-115895000D02*
X151150000Y-116645000D01*
X148750000Y-119589285D02*
X148750000Y-120125000D01*
X148785714Y-120232142D01*
X148857142Y-120303571D01*
X148964285Y-120339285D01*
X149035714Y-120339285D01*
X148000000Y-120339285D02*
X148428571Y-120339285D01*
X148214285Y-120339285D02*
X148214285Y-119589285D01*
X148285714Y-119696428D01*
X148357142Y-119767857D01*
X148428571Y-119803571D01*
%TD*%
M02*
