%TF.GenerationSoftware,KiCad,Pcbnew,(5.1.6-0-10_14)*%
%TF.CreationDate,2021-08-10T12:06:40-04:00*%
%TF.ProjectId,fanboard,66616e62-6f61-4726-942e-6b696361645f,rev?*%
%TF.SameCoordinates,Original*%
%TF.FileFunction,Paste,Top*%
%TF.FilePolarity,Positive*%
%FSLAX46Y46*%
G04 Gerber Fmt 4.6, Leading zero omitted, Abs format (unit mm)*
G04 Created by KiCad (PCBNEW (5.1.6-0-10_14)) date 2021-08-10 12:06:40*
%MOMM*%
%LPD*%
G01*
G04 APERTURE LIST*
%ADD10R,0.400000X0.650000*%
%ADD11R,0.700000X0.700000*%
%ADD12R,1.200000X0.500000*%
G04 APERTURE END LIST*
%TO.C,U1*%
G36*
G01*
X145790000Y-119849910D02*
X145790000Y-120475090D01*
G75*
G02*
X145740090Y-120525000I-49910J0D01*
G01*
X145609910Y-120525000D01*
G75*
G02*
X145560000Y-120475090I0J49910D01*
G01*
X145560000Y-119849910D01*
G75*
G02*
X145609910Y-119800000I49910J0D01*
G01*
X145740090Y-119800000D01*
G75*
G02*
X145790000Y-119849910I0J-49910D01*
G01*
G37*
G36*
G01*
X146440000Y-119849910D02*
X146440000Y-120475090D01*
G75*
G02*
X146390090Y-120525000I-49910J0D01*
G01*
X146259910Y-120525000D01*
G75*
G02*
X146210000Y-120475090I0J49910D01*
G01*
X146210000Y-119849910D01*
G75*
G02*
X146259910Y-119800000I49910J0D01*
G01*
X146390090Y-119800000D01*
G75*
G02*
X146440000Y-119849910I0J-49910D01*
G01*
G37*
G36*
G01*
X145790000Y-122524910D02*
X145790000Y-123150090D01*
G75*
G02*
X145740090Y-123200000I-49910J0D01*
G01*
X145609910Y-123200000D01*
G75*
G02*
X145560000Y-123150090I0J49910D01*
G01*
X145560000Y-122524910D01*
G75*
G02*
X145609910Y-122475000I49910J0D01*
G01*
X145740090Y-122475000D01*
G75*
G02*
X145790000Y-122524910I0J-49910D01*
G01*
G37*
G36*
G01*
X146440000Y-122524910D02*
X146440000Y-123150090D01*
G75*
G02*
X146390090Y-123200000I-49910J0D01*
G01*
X146259910Y-123200000D01*
G75*
G02*
X146210000Y-123150090I0J49910D01*
G01*
X146210000Y-122524910D01*
G75*
G02*
X146259910Y-122475000I49910J0D01*
G01*
X146390090Y-122475000D01*
G75*
G02*
X146440000Y-122524910I0J-49910D01*
G01*
G37*
G36*
G01*
X146670000Y-120749220D02*
X146670000Y-122250780D01*
G75*
G02*
X146625780Y-122295000I-44220J0D01*
G01*
X145374220Y-122295000D01*
G75*
G02*
X145330000Y-122250780I0J44220D01*
G01*
X145330000Y-120749220D01*
G75*
G02*
X145374220Y-120705000I44220J0D01*
G01*
X146625780Y-120705000D01*
G75*
G02*
X146670000Y-120749220I0J-44220D01*
G01*
G37*
G36*
G01*
X144349910Y-122320000D02*
X144850090Y-122320000D01*
G75*
G02*
X144900000Y-122369910I0J-49910D01*
G01*
X144900000Y-122580090D01*
G75*
G02*
X144850090Y-122630000I-49910J0D01*
G01*
X144349910Y-122630000D01*
G75*
G02*
X144300000Y-122580090I0J49910D01*
G01*
X144300000Y-122369910D01*
G75*
G02*
X144349910Y-122320000I49910J0D01*
G01*
G37*
G36*
G01*
X144349910Y-121670000D02*
X144850090Y-121670000D01*
G75*
G02*
X144900000Y-121719910I0J-49910D01*
G01*
X144900000Y-121930090D01*
G75*
G02*
X144850090Y-121980000I-49910J0D01*
G01*
X144349910Y-121980000D01*
G75*
G02*
X144300000Y-121930090I0J49910D01*
G01*
X144300000Y-121719910D01*
G75*
G02*
X144349910Y-121670000I49910J0D01*
G01*
G37*
G36*
G01*
X144349910Y-121020000D02*
X144850090Y-121020000D01*
G75*
G02*
X144900000Y-121069910I0J-49910D01*
G01*
X144900000Y-121280090D01*
G75*
G02*
X144850090Y-121330000I-49910J0D01*
G01*
X144349910Y-121330000D01*
G75*
G02*
X144300000Y-121280090I0J49910D01*
G01*
X144300000Y-121069910D01*
G75*
G02*
X144349910Y-121020000I49910J0D01*
G01*
G37*
G36*
G01*
X144349910Y-120370000D02*
X144850090Y-120370000D01*
G75*
G02*
X144900000Y-120419910I0J-49910D01*
G01*
X144900000Y-120630090D01*
G75*
G02*
X144850090Y-120680000I-49910J0D01*
G01*
X144349910Y-120680000D01*
G75*
G02*
X144300000Y-120630090I0J49910D01*
G01*
X144300000Y-120419910D01*
G75*
G02*
X144349910Y-120370000I49910J0D01*
G01*
G37*
G36*
G01*
X147149910Y-120370000D02*
X147650090Y-120370000D01*
G75*
G02*
X147700000Y-120419910I0J-49910D01*
G01*
X147700000Y-120630090D01*
G75*
G02*
X147650090Y-120680000I-49910J0D01*
G01*
X147149910Y-120680000D01*
G75*
G02*
X147100000Y-120630090I0J49910D01*
G01*
X147100000Y-120419910D01*
G75*
G02*
X147149910Y-120370000I49910J0D01*
G01*
G37*
G36*
G01*
X147149910Y-121020000D02*
X147650090Y-121020000D01*
G75*
G02*
X147700000Y-121069910I0J-49910D01*
G01*
X147700000Y-121280090D01*
G75*
G02*
X147650090Y-121330000I-49910J0D01*
G01*
X147149910Y-121330000D01*
G75*
G02*
X147100000Y-121280090I0J49910D01*
G01*
X147100000Y-121069910D01*
G75*
G02*
X147149910Y-121020000I49910J0D01*
G01*
G37*
G36*
G01*
X147149910Y-121670000D02*
X147650090Y-121670000D01*
G75*
G02*
X147700000Y-121719910I0J-49910D01*
G01*
X147700000Y-121930090D01*
G75*
G02*
X147650090Y-121980000I-49910J0D01*
G01*
X147149910Y-121980000D01*
G75*
G02*
X147100000Y-121930090I0J49910D01*
G01*
X147100000Y-121719910D01*
G75*
G02*
X147149910Y-121670000I49910J0D01*
G01*
G37*
G36*
G01*
X147149910Y-122320000D02*
X147650090Y-122320000D01*
G75*
G02*
X147700000Y-122369910I0J-49910D01*
G01*
X147700000Y-122580090D01*
G75*
G02*
X147650090Y-122630000I-49910J0D01*
G01*
X147149910Y-122630000D01*
G75*
G02*
X147100000Y-122580090I0J49910D01*
G01*
X147100000Y-122369910D01*
G75*
G02*
X147149910Y-122320000I49910J0D01*
G01*
G37*
%TD*%
%TO.C,D3*%
G36*
G01*
X134900000Y-112625000D02*
X135300000Y-112625000D01*
G75*
G02*
X135500000Y-112825000I0J-200000D01*
G01*
X135500000Y-113225000D01*
G75*
G02*
X135300000Y-113425000I-200000J0D01*
G01*
X134900000Y-113425000D01*
G75*
G02*
X134700000Y-113225000I0J200000D01*
G01*
X134700000Y-112825000D01*
G75*
G02*
X134900000Y-112625000I200000J0D01*
G01*
G37*
G36*
G01*
X134900000Y-110975000D02*
X135300000Y-110975000D01*
G75*
G02*
X135500000Y-111175000I0J-200000D01*
G01*
X135500000Y-111575000D01*
G75*
G02*
X135300000Y-111775000I-200000J0D01*
G01*
X134900000Y-111775000D01*
G75*
G02*
X134700000Y-111575000I0J200000D01*
G01*
X134700000Y-111175000D01*
G75*
G02*
X134900000Y-110975000I200000J0D01*
G01*
G37*
%TD*%
%TO.C,D2*%
G36*
G01*
X136600000Y-112625000D02*
X137000000Y-112625000D01*
G75*
G02*
X137200000Y-112825000I0J-200000D01*
G01*
X137200000Y-113225000D01*
G75*
G02*
X137000000Y-113425000I-200000J0D01*
G01*
X136600000Y-113425000D01*
G75*
G02*
X136400000Y-113225000I0J200000D01*
G01*
X136400000Y-112825000D01*
G75*
G02*
X136600000Y-112625000I200000J0D01*
G01*
G37*
G36*
G01*
X136600000Y-110975000D02*
X137000000Y-110975000D01*
G75*
G02*
X137200000Y-111175000I0J-200000D01*
G01*
X137200000Y-111575000D01*
G75*
G02*
X137000000Y-111775000I-200000J0D01*
G01*
X136600000Y-111775000D01*
G75*
G02*
X136400000Y-111575000I0J200000D01*
G01*
X136400000Y-111175000D01*
G75*
G02*
X136600000Y-110975000I200000J0D01*
G01*
G37*
%TD*%
%TO.C,J4*%
G36*
G01*
X127075000Y-116700000D02*
X127525000Y-116700000D01*
G75*
G02*
X127700000Y-116875000I0J-175000D01*
G01*
X127700000Y-117225000D01*
G75*
G02*
X127525000Y-117400000I-175000J0D01*
G01*
X127075000Y-117400000D01*
G75*
G02*
X126900000Y-117225000I0J175000D01*
G01*
X126900000Y-116875000D01*
G75*
G02*
X127075000Y-116700000I175000J0D01*
G01*
G37*
G36*
G01*
X127075000Y-110800000D02*
X127525000Y-110800000D01*
G75*
G02*
X127700000Y-110975000I0J-175000D01*
G01*
X127700000Y-111325000D01*
G75*
G02*
X127525000Y-111500000I-175000J0D01*
G01*
X127075000Y-111500000D01*
G75*
G02*
X126900000Y-111325000I0J175000D01*
G01*
X126900000Y-110975000D01*
G75*
G02*
X127075000Y-110800000I175000J0D01*
G01*
G37*
G36*
G01*
X130800000Y-115600000D02*
X131350000Y-115600000D01*
G75*
G02*
X131500000Y-115750000I0J-150000D01*
G01*
X131500000Y-116050000D01*
G75*
G02*
X131350000Y-116200000I-150000J0D01*
G01*
X130800000Y-116200000D01*
G75*
G02*
X130650000Y-116050000I0J150000D01*
G01*
X130650000Y-115750000D01*
G75*
G02*
X130800000Y-115600000I150000J0D01*
G01*
G37*
G36*
G01*
X130800000Y-114400000D02*
X131350000Y-114400000D01*
G75*
G02*
X131500000Y-114550000I0J-150000D01*
G01*
X131500000Y-114850000D01*
G75*
G02*
X131350000Y-115000000I-150000J0D01*
G01*
X130800000Y-115000000D01*
G75*
G02*
X130650000Y-114850000I0J150000D01*
G01*
X130650000Y-114550000D01*
G75*
G02*
X130800000Y-114400000I150000J0D01*
G01*
G37*
G36*
G01*
X130800000Y-113200000D02*
X131350000Y-113200000D01*
G75*
G02*
X131500000Y-113350000I0J-150000D01*
G01*
X131500000Y-113650000D01*
G75*
G02*
X131350000Y-113800000I-150000J0D01*
G01*
X130800000Y-113800000D01*
G75*
G02*
X130650000Y-113650000I0J150000D01*
G01*
X130650000Y-113350000D01*
G75*
G02*
X130800000Y-113200000I150000J0D01*
G01*
G37*
G36*
G01*
X130800000Y-112000000D02*
X131350000Y-112000000D01*
G75*
G02*
X131500000Y-112150000I0J-150000D01*
G01*
X131500000Y-112450000D01*
G75*
G02*
X131350000Y-112600000I-150000J0D01*
G01*
X130800000Y-112600000D01*
G75*
G02*
X130650000Y-112450000I0J150000D01*
G01*
X130650000Y-112150000D01*
G75*
G02*
X130800000Y-112000000I150000J0D01*
G01*
G37*
%TD*%
D10*
%TO.C,Q1*%
X136950000Y-106850000D03*
X138250000Y-106850000D03*
X137600000Y-108750000D03*
X137600000Y-106850000D03*
X138250000Y-108750000D03*
X136950000Y-108750000D03*
%TD*%
%TO.C,R16*%
G36*
G01*
X140450000Y-108343750D02*
X140450000Y-108856250D01*
G75*
G02*
X140231250Y-109075000I-218750J0D01*
G01*
X139793750Y-109075000D01*
G75*
G02*
X139575000Y-108856250I0J218750D01*
G01*
X139575000Y-108343750D01*
G75*
G02*
X139793750Y-108125000I218750J0D01*
G01*
X140231250Y-108125000D01*
G75*
G02*
X140450000Y-108343750I0J-218750D01*
G01*
G37*
G36*
G01*
X142025000Y-108343750D02*
X142025000Y-108856250D01*
G75*
G02*
X141806250Y-109075000I-218750J0D01*
G01*
X141368750Y-109075000D01*
G75*
G02*
X141150000Y-108856250I0J218750D01*
G01*
X141150000Y-108343750D01*
G75*
G02*
X141368750Y-108125000I218750J0D01*
G01*
X141806250Y-108125000D01*
G75*
G02*
X142025000Y-108343750I0J-218750D01*
G01*
G37*
%TD*%
%TO.C,R15*%
G36*
G01*
X140450000Y-106743750D02*
X140450000Y-107256250D01*
G75*
G02*
X140231250Y-107475000I-218750J0D01*
G01*
X139793750Y-107475000D01*
G75*
G02*
X139575000Y-107256250I0J218750D01*
G01*
X139575000Y-106743750D01*
G75*
G02*
X139793750Y-106525000I218750J0D01*
G01*
X140231250Y-106525000D01*
G75*
G02*
X140450000Y-106743750I0J-218750D01*
G01*
G37*
G36*
G01*
X142025000Y-106743750D02*
X142025000Y-107256250D01*
G75*
G02*
X141806250Y-107475000I-218750J0D01*
G01*
X141368750Y-107475000D01*
G75*
G02*
X141150000Y-107256250I0J218750D01*
G01*
X141150000Y-106743750D01*
G75*
G02*
X141368750Y-106525000I218750J0D01*
G01*
X141806250Y-106525000D01*
G75*
G02*
X142025000Y-106743750I0J-218750D01*
G01*
G37*
%TD*%
%TO.C,R14*%
G36*
G01*
X131325000Y-106743750D02*
X131325000Y-107256250D01*
G75*
G02*
X131106250Y-107475000I-218750J0D01*
G01*
X130668750Y-107475000D01*
G75*
G02*
X130450000Y-107256250I0J218750D01*
G01*
X130450000Y-106743750D01*
G75*
G02*
X130668750Y-106525000I218750J0D01*
G01*
X131106250Y-106525000D01*
G75*
G02*
X131325000Y-106743750I0J-218750D01*
G01*
G37*
G36*
G01*
X129750000Y-106743750D02*
X129750000Y-107256250D01*
G75*
G02*
X129531250Y-107475000I-218750J0D01*
G01*
X129093750Y-107475000D01*
G75*
G02*
X128875000Y-107256250I0J218750D01*
G01*
X128875000Y-106743750D01*
G75*
G02*
X129093750Y-106525000I218750J0D01*
G01*
X129531250Y-106525000D01*
G75*
G02*
X129750000Y-106743750I0J-218750D01*
G01*
G37*
%TD*%
%TO.C,R13*%
G36*
G01*
X131325000Y-108343750D02*
X131325000Y-108856250D01*
G75*
G02*
X131106250Y-109075000I-218750J0D01*
G01*
X130668750Y-109075000D01*
G75*
G02*
X130450000Y-108856250I0J218750D01*
G01*
X130450000Y-108343750D01*
G75*
G02*
X130668750Y-108125000I218750J0D01*
G01*
X131106250Y-108125000D01*
G75*
G02*
X131325000Y-108343750I0J-218750D01*
G01*
G37*
G36*
G01*
X129750000Y-108343750D02*
X129750000Y-108856250D01*
G75*
G02*
X129531250Y-109075000I-218750J0D01*
G01*
X129093750Y-109075000D01*
G75*
G02*
X128875000Y-108856250I0J218750D01*
G01*
X128875000Y-108343750D01*
G75*
G02*
X129093750Y-108125000I218750J0D01*
G01*
X129531250Y-108125000D01*
G75*
G02*
X129750000Y-108343750I0J-218750D01*
G01*
G37*
%TD*%
%TO.C,R12*%
G36*
G01*
X135625000Y-106743750D02*
X135625000Y-107256250D01*
G75*
G02*
X135406250Y-107475000I-218750J0D01*
G01*
X134968750Y-107475000D01*
G75*
G02*
X134750000Y-107256250I0J218750D01*
G01*
X134750000Y-106743750D01*
G75*
G02*
X134968750Y-106525000I218750J0D01*
G01*
X135406250Y-106525000D01*
G75*
G02*
X135625000Y-106743750I0J-218750D01*
G01*
G37*
G36*
G01*
X134050000Y-106743750D02*
X134050000Y-107256250D01*
G75*
G02*
X133831250Y-107475000I-218750J0D01*
G01*
X133393750Y-107475000D01*
G75*
G02*
X133175000Y-107256250I0J218750D01*
G01*
X133175000Y-106743750D01*
G75*
G02*
X133393750Y-106525000I218750J0D01*
G01*
X133831250Y-106525000D01*
G75*
G02*
X134050000Y-106743750I0J-218750D01*
G01*
G37*
%TD*%
%TO.C,R11*%
G36*
G01*
X135625000Y-108343750D02*
X135625000Y-108856250D01*
G75*
G02*
X135406250Y-109075000I-218750J0D01*
G01*
X134968750Y-109075000D01*
G75*
G02*
X134750000Y-108856250I0J218750D01*
G01*
X134750000Y-108343750D01*
G75*
G02*
X134968750Y-108125000I218750J0D01*
G01*
X135406250Y-108125000D01*
G75*
G02*
X135625000Y-108343750I0J-218750D01*
G01*
G37*
G36*
G01*
X134050000Y-108343750D02*
X134050000Y-108856250D01*
G75*
G02*
X133831250Y-109075000I-218750J0D01*
G01*
X133393750Y-109075000D01*
G75*
G02*
X133175000Y-108856250I0J218750D01*
G01*
X133175000Y-108343750D01*
G75*
G02*
X133393750Y-108125000I218750J0D01*
G01*
X133831250Y-108125000D01*
G75*
G02*
X134050000Y-108343750I0J-218750D01*
G01*
G37*
%TD*%
%TO.C,R10*%
G36*
G01*
X137056250Y-117925000D02*
X136543750Y-117925000D01*
G75*
G02*
X136325000Y-117706250I0J218750D01*
G01*
X136325000Y-117268750D01*
G75*
G02*
X136543750Y-117050000I218750J0D01*
G01*
X137056250Y-117050000D01*
G75*
G02*
X137275000Y-117268750I0J-218750D01*
G01*
X137275000Y-117706250D01*
G75*
G02*
X137056250Y-117925000I-218750J0D01*
G01*
G37*
G36*
G01*
X137056250Y-116350000D02*
X136543750Y-116350000D01*
G75*
G02*
X136325000Y-116131250I0J218750D01*
G01*
X136325000Y-115693750D01*
G75*
G02*
X136543750Y-115475000I218750J0D01*
G01*
X137056250Y-115475000D01*
G75*
G02*
X137275000Y-115693750I0J-218750D01*
G01*
X137275000Y-116131250D01*
G75*
G02*
X137056250Y-116350000I-218750J0D01*
G01*
G37*
%TD*%
%TO.C,R9*%
G36*
G01*
X135356250Y-117925000D02*
X134843750Y-117925000D01*
G75*
G02*
X134625000Y-117706250I0J218750D01*
G01*
X134625000Y-117268750D01*
G75*
G02*
X134843750Y-117050000I218750J0D01*
G01*
X135356250Y-117050000D01*
G75*
G02*
X135575000Y-117268750I0J-218750D01*
G01*
X135575000Y-117706250D01*
G75*
G02*
X135356250Y-117925000I-218750J0D01*
G01*
G37*
G36*
G01*
X135356250Y-116350000D02*
X134843750Y-116350000D01*
G75*
G02*
X134625000Y-116131250I0J218750D01*
G01*
X134625000Y-115693750D01*
G75*
G02*
X134843750Y-115475000I218750J0D01*
G01*
X135356250Y-115475000D01*
G75*
G02*
X135575000Y-115693750I0J-218750D01*
G01*
X135575000Y-116131250D01*
G75*
G02*
X135356250Y-116350000I-218750J0D01*
G01*
G37*
%TD*%
%TO.C,U3*%
G36*
G01*
X131725000Y-126756900D02*
X131725000Y-127503100D01*
G75*
G02*
X131681600Y-127546500I-43400J0D01*
G01*
X131068400Y-127546500D01*
G75*
G02*
X131025000Y-127503100I0J43400D01*
G01*
X131025000Y-126756900D01*
G75*
G02*
X131068400Y-126713500I43400J0D01*
G01*
X131681600Y-126713500D01*
G75*
G02*
X131725000Y-126756900I0J-43400D01*
G01*
G37*
G36*
G01*
X131725000Y-125726900D02*
X131725000Y-126473100D01*
G75*
G02*
X131681600Y-126516500I-43400J0D01*
G01*
X131068400Y-126516500D01*
G75*
G02*
X131025000Y-126473100I0J43400D01*
G01*
X131025000Y-125726900D01*
G75*
G02*
X131068400Y-125683500I43400J0D01*
G01*
X131681600Y-125683500D01*
G75*
G02*
X131725000Y-125726900I0J-43400D01*
G01*
G37*
G36*
G01*
X131725000Y-124696900D02*
X131725000Y-125443100D01*
G75*
G02*
X131681600Y-125486500I-43400J0D01*
G01*
X131068400Y-125486500D01*
G75*
G02*
X131025000Y-125443100I0J43400D01*
G01*
X131025000Y-124696900D01*
G75*
G02*
X131068400Y-124653500I43400J0D01*
G01*
X131681600Y-124653500D01*
G75*
G02*
X131725000Y-124696900I0J-43400D01*
G01*
G37*
G36*
G01*
X130050000Y-127150000D02*
X130050000Y-127450000D01*
G75*
G02*
X130000000Y-127500000I-50000J0D01*
G01*
X129350000Y-127500000D01*
G75*
G02*
X129300000Y-127450000I0J50000D01*
G01*
X129300000Y-127150000D01*
G75*
G02*
X129350000Y-127100000I50000J0D01*
G01*
X130000000Y-127100000D01*
G75*
G02*
X130050000Y-127150000I0J-50000D01*
G01*
G37*
G36*
G01*
X130050000Y-126550000D02*
X130050000Y-126850000D01*
G75*
G02*
X130000000Y-126900000I-50000J0D01*
G01*
X129350000Y-126900000D01*
G75*
G02*
X129300000Y-126850000I0J50000D01*
G01*
X129300000Y-126550000D01*
G75*
G02*
X129350000Y-126500000I50000J0D01*
G01*
X130000000Y-126500000D01*
G75*
G02*
X130050000Y-126550000I0J-50000D01*
G01*
G37*
G36*
G01*
X130050000Y-125950000D02*
X130050000Y-126250000D01*
G75*
G02*
X130000000Y-126300000I-50000J0D01*
G01*
X129350000Y-126300000D01*
G75*
G02*
X129300000Y-126250000I0J50000D01*
G01*
X129300000Y-125950000D01*
G75*
G02*
X129350000Y-125900000I50000J0D01*
G01*
X130000000Y-125900000D01*
G75*
G02*
X130050000Y-125950000I0J-50000D01*
G01*
G37*
G36*
G01*
X130050000Y-125350000D02*
X130050000Y-125650000D01*
G75*
G02*
X130000000Y-125700000I-50000J0D01*
G01*
X129350000Y-125700000D01*
G75*
G02*
X129300000Y-125650000I0J50000D01*
G01*
X129300000Y-125350000D01*
G75*
G02*
X129350000Y-125300000I50000J0D01*
G01*
X130000000Y-125300000D01*
G75*
G02*
X130050000Y-125350000I0J-50000D01*
G01*
G37*
G36*
G01*
X130050000Y-124750000D02*
X130050000Y-125050000D01*
G75*
G02*
X130000000Y-125100000I-50000J0D01*
G01*
X129350000Y-125100000D01*
G75*
G02*
X129300000Y-125050000I0J50000D01*
G01*
X129300000Y-124750000D01*
G75*
G02*
X129350000Y-124700000I50000J0D01*
G01*
X130000000Y-124700000D01*
G75*
G02*
X130050000Y-124750000I0J-50000D01*
G01*
G37*
G36*
G01*
X133100000Y-124750000D02*
X133100000Y-125050000D01*
G75*
G02*
X133050000Y-125100000I-50000J0D01*
G01*
X132400000Y-125100000D01*
G75*
G02*
X132350000Y-125050000I0J50000D01*
G01*
X132350000Y-124750000D01*
G75*
G02*
X132400000Y-124700000I50000J0D01*
G01*
X133050000Y-124700000D01*
G75*
G02*
X133100000Y-124750000I0J-50000D01*
G01*
G37*
G36*
G01*
X133100000Y-125350000D02*
X133100000Y-125650000D01*
G75*
G02*
X133050000Y-125700000I-50000J0D01*
G01*
X132400000Y-125700000D01*
G75*
G02*
X132350000Y-125650000I0J50000D01*
G01*
X132350000Y-125350000D01*
G75*
G02*
X132400000Y-125300000I50000J0D01*
G01*
X133050000Y-125300000D01*
G75*
G02*
X133100000Y-125350000I0J-50000D01*
G01*
G37*
G36*
G01*
X133100000Y-125950000D02*
X133100000Y-126250000D01*
G75*
G02*
X133050000Y-126300000I-50000J0D01*
G01*
X132400000Y-126300000D01*
G75*
G02*
X132350000Y-126250000I0J50000D01*
G01*
X132350000Y-125950000D01*
G75*
G02*
X132400000Y-125900000I50000J0D01*
G01*
X133050000Y-125900000D01*
G75*
G02*
X133100000Y-125950000I0J-50000D01*
G01*
G37*
G36*
G01*
X133100000Y-126550000D02*
X133100000Y-126850000D01*
G75*
G02*
X133050000Y-126900000I-50000J0D01*
G01*
X132400000Y-126900000D01*
G75*
G02*
X132350000Y-126850000I0J50000D01*
G01*
X132350000Y-126550000D01*
G75*
G02*
X132400000Y-126500000I50000J0D01*
G01*
X133050000Y-126500000D01*
G75*
G02*
X133100000Y-126550000I0J-50000D01*
G01*
G37*
G36*
G01*
X133100000Y-127150000D02*
X133100000Y-127450000D01*
G75*
G02*
X133050000Y-127500000I-50000J0D01*
G01*
X132400000Y-127500000D01*
G75*
G02*
X132350000Y-127450000I0J50000D01*
G01*
X132350000Y-127150000D01*
G75*
G02*
X132400000Y-127100000I50000J0D01*
G01*
X133050000Y-127100000D01*
G75*
G02*
X133100000Y-127150000I0J-50000D01*
G01*
G37*
%TD*%
%TO.C,C3*%
G36*
G01*
X134125000Y-127475000D02*
X136275000Y-127475000D01*
G75*
G02*
X136525000Y-127725000I0J-250000D01*
G01*
X136525000Y-128475000D01*
G75*
G02*
X136275000Y-128725000I-250000J0D01*
G01*
X134125000Y-128725000D01*
G75*
G02*
X133875000Y-128475000I0J250000D01*
G01*
X133875000Y-127725000D01*
G75*
G02*
X134125000Y-127475000I250000J0D01*
G01*
G37*
G36*
G01*
X134125000Y-124675000D02*
X136275000Y-124675000D01*
G75*
G02*
X136525000Y-124925000I0J-250000D01*
G01*
X136525000Y-125675000D01*
G75*
G02*
X136275000Y-125925000I-250000J0D01*
G01*
X134125000Y-125925000D01*
G75*
G02*
X133875000Y-125675000I0J250000D01*
G01*
X133875000Y-124925000D01*
G75*
G02*
X134125000Y-124675000I250000J0D01*
G01*
G37*
%TD*%
%TO.C,C2*%
G36*
G01*
X135250000Y-122443750D02*
X135250000Y-123356250D01*
G75*
G02*
X135006250Y-123600000I-243750J0D01*
G01*
X134518750Y-123600000D01*
G75*
G02*
X134275000Y-123356250I0J243750D01*
G01*
X134275000Y-122443750D01*
G75*
G02*
X134518750Y-122200000I243750J0D01*
G01*
X135006250Y-122200000D01*
G75*
G02*
X135250000Y-122443750I0J-243750D01*
G01*
G37*
G36*
G01*
X137125000Y-122443750D02*
X137125000Y-123356250D01*
G75*
G02*
X136881250Y-123600000I-243750J0D01*
G01*
X136393750Y-123600000D01*
G75*
G02*
X136150000Y-123356250I0J243750D01*
G01*
X136150000Y-122443750D01*
G75*
G02*
X136393750Y-122200000I243750J0D01*
G01*
X136881250Y-122200000D01*
G75*
G02*
X137125000Y-122443750I0J-243750D01*
G01*
G37*
%TD*%
%TO.C,R5*%
G36*
G01*
X135550000Y-120643750D02*
X135550000Y-121156250D01*
G75*
G02*
X135331250Y-121375000I-218750J0D01*
G01*
X134893750Y-121375000D01*
G75*
G02*
X134675000Y-121156250I0J218750D01*
G01*
X134675000Y-120643750D01*
G75*
G02*
X134893750Y-120425000I218750J0D01*
G01*
X135331250Y-120425000D01*
G75*
G02*
X135550000Y-120643750I0J-218750D01*
G01*
G37*
G36*
G01*
X137125000Y-120643750D02*
X137125000Y-121156250D01*
G75*
G02*
X136906250Y-121375000I-218750J0D01*
G01*
X136468750Y-121375000D01*
G75*
G02*
X136250000Y-121156250I0J218750D01*
G01*
X136250000Y-120643750D01*
G75*
G02*
X136468750Y-120425000I218750J0D01*
G01*
X136906250Y-120425000D01*
G75*
G02*
X137125000Y-120643750I0J-218750D01*
G01*
G37*
%TD*%
%TO.C,C1*%
G36*
G01*
X145500000Y-124243750D02*
X145500000Y-125156250D01*
G75*
G02*
X145256250Y-125400000I-243750J0D01*
G01*
X144768750Y-125400000D01*
G75*
G02*
X144525000Y-125156250I0J243750D01*
G01*
X144525000Y-124243750D01*
G75*
G02*
X144768750Y-124000000I243750J0D01*
G01*
X145256250Y-124000000D01*
G75*
G02*
X145500000Y-124243750I0J-243750D01*
G01*
G37*
G36*
G01*
X147375000Y-124243750D02*
X147375000Y-125156250D01*
G75*
G02*
X147131250Y-125400000I-243750J0D01*
G01*
X146643750Y-125400000D01*
G75*
G02*
X146400000Y-125156250I0J243750D01*
G01*
X146400000Y-124243750D01*
G75*
G02*
X146643750Y-124000000I243750J0D01*
G01*
X147131250Y-124000000D01*
G75*
G02*
X147375000Y-124243750I0J-243750D01*
G01*
G37*
%TD*%
%TO.C,U2*%
G36*
G01*
X139675000Y-123850000D02*
X139675000Y-124090000D01*
G75*
G02*
X139625000Y-124140000I-50000J0D01*
G01*
X139475000Y-124140000D01*
G75*
G02*
X139425000Y-124090000I0J50000D01*
G01*
X139425000Y-123850000D01*
G75*
G02*
X139475000Y-123800000I50000J0D01*
G01*
X139625000Y-123800000D01*
G75*
G02*
X139675000Y-123850000I0J-50000D01*
G01*
G37*
G36*
G01*
X140175000Y-123850000D02*
X140175000Y-124090000D01*
G75*
G02*
X140125000Y-124140000I-50000J0D01*
G01*
X139975000Y-124140000D01*
G75*
G02*
X139925000Y-124090000I0J50000D01*
G01*
X139925000Y-123850000D01*
G75*
G02*
X139975000Y-123800000I50000J0D01*
G01*
X140125000Y-123800000D01*
G75*
G02*
X140175000Y-123850000I0J-50000D01*
G01*
G37*
G36*
G01*
X140550000Y-124395500D02*
X140550000Y-125304500D01*
G75*
G02*
X140499500Y-125355000I-50500J0D01*
G01*
X139100500Y-125355000D01*
G75*
G02*
X139050000Y-125304500I0J50500D01*
G01*
X139050000Y-124395500D01*
G75*
G02*
X139100500Y-124345000I50500J0D01*
G01*
X140499500Y-124345000D01*
G75*
G02*
X140550000Y-124395500I0J-50500D01*
G01*
G37*
G36*
G01*
X140550000Y-125695500D02*
X140550000Y-126604500D01*
G75*
G02*
X140499500Y-126655000I-50500J0D01*
G01*
X139100500Y-126655000D01*
G75*
G02*
X139050000Y-126604500I0J50500D01*
G01*
X139050000Y-125695500D01*
G75*
G02*
X139100500Y-125645000I50500J0D01*
G01*
X140499500Y-125645000D01*
G75*
G02*
X140550000Y-125695500I0J-50500D01*
G01*
G37*
G36*
G01*
X139675000Y-126910000D02*
X139675000Y-127150000D01*
G75*
G02*
X139625000Y-127200000I-50000J0D01*
G01*
X139475000Y-127200000D01*
G75*
G02*
X139425000Y-127150000I0J50000D01*
G01*
X139425000Y-126910000D01*
G75*
G02*
X139475000Y-126860000I50000J0D01*
G01*
X139625000Y-126860000D01*
G75*
G02*
X139675000Y-126910000I0J-50000D01*
G01*
G37*
G36*
G01*
X140175000Y-126910000D02*
X140175000Y-127150000D01*
G75*
G02*
X140125000Y-127200000I-50000J0D01*
G01*
X139975000Y-127200000D01*
G75*
G02*
X139925000Y-127150000I0J50000D01*
G01*
X139925000Y-126910000D01*
G75*
G02*
X139975000Y-126860000I50000J0D01*
G01*
X140125000Y-126860000D01*
G75*
G02*
X140175000Y-126910000I0J-50000D01*
G01*
G37*
G36*
G01*
X138750000Y-126375049D02*
X138750000Y-126624951D01*
G75*
G02*
X138699951Y-126675000I-50049J0D01*
G01*
X138100049Y-126675000D01*
G75*
G02*
X138050000Y-126624951I0J50049D01*
G01*
X138050000Y-126375049D01*
G75*
G02*
X138100049Y-126325000I50049J0D01*
G01*
X138699951Y-126325000D01*
G75*
G02*
X138750000Y-126375049I0J-50049D01*
G01*
G37*
G36*
G01*
X138750000Y-125875049D02*
X138750000Y-126124951D01*
G75*
G02*
X138699951Y-126175000I-50049J0D01*
G01*
X138100049Y-126175000D01*
G75*
G02*
X138050000Y-126124951I0J50049D01*
G01*
X138050000Y-125875049D01*
G75*
G02*
X138100049Y-125825000I50049J0D01*
G01*
X138699951Y-125825000D01*
G75*
G02*
X138750000Y-125875049I0J-50049D01*
G01*
G37*
G36*
G01*
X138750000Y-125375049D02*
X138750000Y-125624951D01*
G75*
G02*
X138699951Y-125675000I-50049J0D01*
G01*
X138100049Y-125675000D01*
G75*
G02*
X138050000Y-125624951I0J50049D01*
G01*
X138050000Y-125375049D01*
G75*
G02*
X138100049Y-125325000I50049J0D01*
G01*
X138699951Y-125325000D01*
G75*
G02*
X138750000Y-125375049I0J-50049D01*
G01*
G37*
G36*
G01*
X138750000Y-124875049D02*
X138750000Y-125124951D01*
G75*
G02*
X138699951Y-125175000I-50049J0D01*
G01*
X138100049Y-125175000D01*
G75*
G02*
X138050000Y-125124951I0J50049D01*
G01*
X138050000Y-124875049D01*
G75*
G02*
X138100049Y-124825000I50049J0D01*
G01*
X138699951Y-124825000D01*
G75*
G02*
X138750000Y-124875049I0J-50049D01*
G01*
G37*
G36*
G01*
X138750000Y-124375049D02*
X138750000Y-124624951D01*
G75*
G02*
X138699951Y-124675000I-50049J0D01*
G01*
X138100049Y-124675000D01*
G75*
G02*
X138050000Y-124624951I0J50049D01*
G01*
X138050000Y-124375049D01*
G75*
G02*
X138100049Y-124325000I50049J0D01*
G01*
X138699951Y-124325000D01*
G75*
G02*
X138750000Y-124375049I0J-50049D01*
G01*
G37*
G36*
G01*
X141550000Y-124375049D02*
X141550000Y-124624951D01*
G75*
G02*
X141499951Y-124675000I-50049J0D01*
G01*
X140900049Y-124675000D01*
G75*
G02*
X140850000Y-124624951I0J50049D01*
G01*
X140850000Y-124375049D01*
G75*
G02*
X140900049Y-124325000I50049J0D01*
G01*
X141499951Y-124325000D01*
G75*
G02*
X141550000Y-124375049I0J-50049D01*
G01*
G37*
G36*
G01*
X141550000Y-124875049D02*
X141550000Y-125124951D01*
G75*
G02*
X141499951Y-125175000I-50049J0D01*
G01*
X140900049Y-125175000D01*
G75*
G02*
X140850000Y-125124951I0J50049D01*
G01*
X140850000Y-124875049D01*
G75*
G02*
X140900049Y-124825000I50049J0D01*
G01*
X141499951Y-124825000D01*
G75*
G02*
X141550000Y-124875049I0J-50049D01*
G01*
G37*
G36*
G01*
X141550000Y-125375049D02*
X141550000Y-125624951D01*
G75*
G02*
X141499951Y-125675000I-50049J0D01*
G01*
X140900049Y-125675000D01*
G75*
G02*
X140850000Y-125624951I0J50049D01*
G01*
X140850000Y-125375049D01*
G75*
G02*
X140900049Y-125325000I50049J0D01*
G01*
X141499951Y-125325000D01*
G75*
G02*
X141550000Y-125375049I0J-50049D01*
G01*
G37*
G36*
G01*
X141550000Y-125875049D02*
X141550000Y-126124951D01*
G75*
G02*
X141499951Y-126175000I-50049J0D01*
G01*
X140900049Y-126175000D01*
G75*
G02*
X140850000Y-126124951I0J50049D01*
G01*
X140850000Y-125875049D01*
G75*
G02*
X140900049Y-125825000I50049J0D01*
G01*
X141499951Y-125825000D01*
G75*
G02*
X141550000Y-125875049I0J-50049D01*
G01*
G37*
G36*
G01*
X141550000Y-126375049D02*
X141550000Y-126624951D01*
G75*
G02*
X141499951Y-126675000I-50049J0D01*
G01*
X140900049Y-126675000D01*
G75*
G02*
X140850000Y-126624951I0J50049D01*
G01*
X140850000Y-126375049D01*
G75*
G02*
X140900049Y-126325000I50049J0D01*
G01*
X141499951Y-126325000D01*
G75*
G02*
X141550000Y-126375049I0J-50049D01*
G01*
G37*
%TD*%
%TO.C,R2*%
G36*
G01*
X145256250Y-127150000D02*
X144743750Y-127150000D01*
G75*
G02*
X144525000Y-126931250I0J218750D01*
G01*
X144525000Y-126493750D01*
G75*
G02*
X144743750Y-126275000I218750J0D01*
G01*
X145256250Y-126275000D01*
G75*
G02*
X145475000Y-126493750I0J-218750D01*
G01*
X145475000Y-126931250D01*
G75*
G02*
X145256250Y-127150000I-218750J0D01*
G01*
G37*
G36*
G01*
X145256250Y-128725000D02*
X144743750Y-128725000D01*
G75*
G02*
X144525000Y-128506250I0J218750D01*
G01*
X144525000Y-128068750D01*
G75*
G02*
X144743750Y-127850000I218750J0D01*
G01*
X145256250Y-127850000D01*
G75*
G02*
X145475000Y-128068750I0J-218750D01*
G01*
X145475000Y-128506250D01*
G75*
G02*
X145256250Y-128725000I-218750J0D01*
G01*
G37*
%TD*%
%TO.C,R1*%
G36*
G01*
X143456250Y-127150000D02*
X142943750Y-127150000D01*
G75*
G02*
X142725000Y-126931250I0J218750D01*
G01*
X142725000Y-126493750D01*
G75*
G02*
X142943750Y-126275000I218750J0D01*
G01*
X143456250Y-126275000D01*
G75*
G02*
X143675000Y-126493750I0J-218750D01*
G01*
X143675000Y-126931250D01*
G75*
G02*
X143456250Y-127150000I-218750J0D01*
G01*
G37*
G36*
G01*
X143456250Y-128725000D02*
X142943750Y-128725000D01*
G75*
G02*
X142725000Y-128506250I0J218750D01*
G01*
X142725000Y-128068750D01*
G75*
G02*
X142943750Y-127850000I218750J0D01*
G01*
X143456250Y-127850000D01*
G75*
G02*
X143675000Y-128068750I0J-218750D01*
G01*
X143675000Y-128506250D01*
G75*
G02*
X143456250Y-128725000I-218750J0D01*
G01*
G37*
%TD*%
%TO.C,R3*%
G36*
G01*
X143456250Y-123825000D02*
X142943750Y-123825000D01*
G75*
G02*
X142725000Y-123606250I0J218750D01*
G01*
X142725000Y-123168750D01*
G75*
G02*
X142943750Y-122950000I218750J0D01*
G01*
X143456250Y-122950000D01*
G75*
G02*
X143675000Y-123168750I0J-218750D01*
G01*
X143675000Y-123606250D01*
G75*
G02*
X143456250Y-123825000I-218750J0D01*
G01*
G37*
G36*
G01*
X143456250Y-125400000D02*
X142943750Y-125400000D01*
G75*
G02*
X142725000Y-125181250I0J218750D01*
G01*
X142725000Y-124743750D01*
G75*
G02*
X142943750Y-124525000I218750J0D01*
G01*
X143456250Y-124525000D01*
G75*
G02*
X143675000Y-124743750I0J-218750D01*
G01*
X143675000Y-125181250D01*
G75*
G02*
X143456250Y-125400000I-218750J0D01*
G01*
G37*
%TD*%
%TO.C,D1*%
G36*
G01*
X141849800Y-114450000D02*
X142350200Y-114450000D01*
G75*
G02*
X142400000Y-114499800I0J-49800D01*
G01*
X142400000Y-115500200D01*
G75*
G02*
X142350200Y-115550000I-49800J0D01*
G01*
X141849800Y-115550000D01*
G75*
G02*
X141800000Y-115500200I0J49800D01*
G01*
X141800000Y-114499800D01*
G75*
G02*
X141849800Y-114450000I49800J0D01*
G01*
G37*
G36*
G01*
X139949800Y-114450000D02*
X140450200Y-114450000D01*
G75*
G02*
X140500000Y-114499800I0J-49800D01*
G01*
X140500000Y-115500200D01*
G75*
G02*
X140450200Y-115550000I-49800J0D01*
G01*
X139949800Y-115550000D01*
G75*
G02*
X139900000Y-115500200I0J49800D01*
G01*
X139900000Y-114499800D01*
G75*
G02*
X139949800Y-114450000I49800J0D01*
G01*
G37*
G36*
G01*
X139949800Y-111850000D02*
X140450200Y-111850000D01*
G75*
G02*
X140500000Y-111899800I0J-49800D01*
G01*
X140500000Y-112900200D01*
G75*
G02*
X140450200Y-112950000I-49800J0D01*
G01*
X139949800Y-112950000D01*
G75*
G02*
X139900000Y-112900200I0J49800D01*
G01*
X139900000Y-111899800D01*
G75*
G02*
X139949800Y-111850000I49800J0D01*
G01*
G37*
G36*
G01*
X140899800Y-111850000D02*
X141400200Y-111850000D01*
G75*
G02*
X141450000Y-111899800I0J-49800D01*
G01*
X141450000Y-112900200D01*
G75*
G02*
X141400200Y-112950000I-49800J0D01*
G01*
X140899800Y-112950000D01*
G75*
G02*
X140850000Y-112900200I0J49800D01*
G01*
X140850000Y-111899800D01*
G75*
G02*
X140899800Y-111850000I49800J0D01*
G01*
G37*
G36*
G01*
X141849800Y-111850000D02*
X142350200Y-111850000D01*
G75*
G02*
X142400000Y-111899800I0J-49800D01*
G01*
X142400000Y-112900200D01*
G75*
G02*
X142350200Y-112950000I-49800J0D01*
G01*
X141849800Y-112950000D01*
G75*
G02*
X141800000Y-112900200I0J49800D01*
G01*
X141800000Y-111899800D01*
G75*
G02*
X141849800Y-111850000I49800J0D01*
G01*
G37*
%TD*%
%TO.C,C5*%
G36*
G01*
X129575000Y-121525000D02*
X129575000Y-120275000D01*
G75*
G02*
X129825000Y-120025000I250000J0D01*
G01*
X130575000Y-120025000D01*
G75*
G02*
X130825000Y-120275000I0J-250000D01*
G01*
X130825000Y-121525000D01*
G75*
G02*
X130575000Y-121775000I-250000J0D01*
G01*
X129825000Y-121775000D01*
G75*
G02*
X129575000Y-121525000I0J250000D01*
G01*
G37*
G36*
G01*
X126775000Y-121525000D02*
X126775000Y-120275000D01*
G75*
G02*
X127025000Y-120025000I250000J0D01*
G01*
X127775000Y-120025000D01*
G75*
G02*
X128025000Y-120275000I0J-250000D01*
G01*
X128025000Y-121525000D01*
G75*
G02*
X127775000Y-121775000I-250000J0D01*
G01*
X127025000Y-121775000D01*
G75*
G02*
X126775000Y-121525000I0J250000D01*
G01*
G37*
%TD*%
%TO.C,C4*%
G36*
G01*
X126897000Y-125575000D02*
X128147000Y-125575000D01*
G75*
G02*
X128397000Y-125825000I0J-250000D01*
G01*
X128397000Y-126575000D01*
G75*
G02*
X128147000Y-126825000I-250000J0D01*
G01*
X126897000Y-126825000D01*
G75*
G02*
X126647000Y-126575000I0J250000D01*
G01*
X126647000Y-125825000D01*
G75*
G02*
X126897000Y-125575000I250000J0D01*
G01*
G37*
G36*
G01*
X126897000Y-122775000D02*
X128147000Y-122775000D01*
G75*
G02*
X128397000Y-123025000I0J-250000D01*
G01*
X128397000Y-123775000D01*
G75*
G02*
X128147000Y-124025000I-250000J0D01*
G01*
X126897000Y-124025000D01*
G75*
G02*
X126647000Y-123775000I0J250000D01*
G01*
X126647000Y-123025000D01*
G75*
G02*
X126897000Y-122775000I250000J0D01*
G01*
G37*
%TD*%
%TO.C,R8*%
G36*
G01*
X127406250Y-107450000D02*
X126893750Y-107450000D01*
G75*
G02*
X126675000Y-107231250I0J218750D01*
G01*
X126675000Y-106793750D01*
G75*
G02*
X126893750Y-106575000I218750J0D01*
G01*
X127406250Y-106575000D01*
G75*
G02*
X127625000Y-106793750I0J-218750D01*
G01*
X127625000Y-107231250D01*
G75*
G02*
X127406250Y-107450000I-218750J0D01*
G01*
G37*
G36*
G01*
X127406250Y-109025000D02*
X126893750Y-109025000D01*
G75*
G02*
X126675000Y-108806250I0J218750D01*
G01*
X126675000Y-108368750D01*
G75*
G02*
X126893750Y-108150000I218750J0D01*
G01*
X127406250Y-108150000D01*
G75*
G02*
X127625000Y-108368750I0J-218750D01*
G01*
X127625000Y-108806250D01*
G75*
G02*
X127406250Y-109025000I-218750J0D01*
G01*
G37*
%TD*%
%TO.C,R7*%
G36*
G01*
X144656250Y-113770000D02*
X144143750Y-113770000D01*
G75*
G02*
X143925000Y-113551250I0J218750D01*
G01*
X143925000Y-113113750D01*
G75*
G02*
X144143750Y-112895000I218750J0D01*
G01*
X144656250Y-112895000D01*
G75*
G02*
X144875000Y-113113750I0J-218750D01*
G01*
X144875000Y-113551250D01*
G75*
G02*
X144656250Y-113770000I-218750J0D01*
G01*
G37*
G36*
G01*
X144656250Y-115345000D02*
X144143750Y-115345000D01*
G75*
G02*
X143925000Y-115126250I0J218750D01*
G01*
X143925000Y-114688750D01*
G75*
G02*
X144143750Y-114470000I218750J0D01*
G01*
X144656250Y-114470000D01*
G75*
G02*
X144875000Y-114688750I0J-218750D01*
G01*
X144875000Y-115126250D01*
G75*
G02*
X144656250Y-115345000I-218750J0D01*
G01*
G37*
%TD*%
%TO.C,C8*%
G36*
G01*
X148056250Y-109005000D02*
X147543750Y-109005000D01*
G75*
G02*
X147325000Y-108786250I0J218750D01*
G01*
X147325000Y-108348750D01*
G75*
G02*
X147543750Y-108130000I218750J0D01*
G01*
X148056250Y-108130000D01*
G75*
G02*
X148275000Y-108348750I0J-218750D01*
G01*
X148275000Y-108786250D01*
G75*
G02*
X148056250Y-109005000I-218750J0D01*
G01*
G37*
G36*
G01*
X148056250Y-107430000D02*
X147543750Y-107430000D01*
G75*
G02*
X147325000Y-107211250I0J218750D01*
G01*
X147325000Y-106773750D01*
G75*
G02*
X147543750Y-106555000I218750J0D01*
G01*
X148056250Y-106555000D01*
G75*
G02*
X148275000Y-106773750I0J-218750D01*
G01*
X148275000Y-107211250D01*
G75*
G02*
X148056250Y-107430000I-218750J0D01*
G01*
G37*
%TD*%
%TO.C,C7*%
G36*
G01*
X146356250Y-109005000D02*
X145843750Y-109005000D01*
G75*
G02*
X145625000Y-108786250I0J218750D01*
G01*
X145625000Y-108348750D01*
G75*
G02*
X145843750Y-108130000I218750J0D01*
G01*
X146356250Y-108130000D01*
G75*
G02*
X146575000Y-108348750I0J-218750D01*
G01*
X146575000Y-108786250D01*
G75*
G02*
X146356250Y-109005000I-218750J0D01*
G01*
G37*
G36*
G01*
X146356250Y-107430000D02*
X145843750Y-107430000D01*
G75*
G02*
X145625000Y-107211250I0J218750D01*
G01*
X145625000Y-106773750D01*
G75*
G02*
X145843750Y-106555000I218750J0D01*
G01*
X146356250Y-106555000D01*
G75*
G02*
X146575000Y-106773750I0J-218750D01*
G01*
X146575000Y-107211250D01*
G75*
G02*
X146356250Y-107430000I-218750J0D01*
G01*
G37*
%TD*%
%TO.C,C6*%
G36*
G01*
X144656250Y-109005000D02*
X144143750Y-109005000D01*
G75*
G02*
X143925000Y-108786250I0J218750D01*
G01*
X143925000Y-108348750D01*
G75*
G02*
X144143750Y-108130000I218750J0D01*
G01*
X144656250Y-108130000D01*
G75*
G02*
X144875000Y-108348750I0J-218750D01*
G01*
X144875000Y-108786250D01*
G75*
G02*
X144656250Y-109005000I-218750J0D01*
G01*
G37*
G36*
G01*
X144656250Y-107430000D02*
X144143750Y-107430000D01*
G75*
G02*
X143925000Y-107211250I0J218750D01*
G01*
X143925000Y-106773750D01*
G75*
G02*
X144143750Y-106555000I218750J0D01*
G01*
X144656250Y-106555000D01*
G75*
G02*
X144875000Y-106773750I0J-218750D01*
G01*
X144875000Y-107211250D01*
G75*
G02*
X144656250Y-107430000I-218750J0D01*
G01*
G37*
%TD*%
%TO.C,U4*%
G36*
G01*
X155340050Y-120529000D02*
X154989950Y-120529000D01*
G75*
G02*
X154940000Y-120479050I0J49950D01*
G01*
X154940000Y-119938950D01*
G75*
G02*
X154989950Y-119889000I49950J0D01*
G01*
X155340050Y-119889000D01*
G75*
G02*
X155390000Y-119938950I0J-49950D01*
G01*
X155390000Y-120479050D01*
G75*
G02*
X155340050Y-120529000I-49950J0D01*
G01*
G37*
G36*
G01*
X161340161Y-113989000D02*
X160549839Y-113989000D01*
G75*
G02*
X160500000Y-113939161I0J49839D01*
G01*
X160500000Y-113148839D01*
G75*
G02*
X160549839Y-113099000I49839J0D01*
G01*
X161340161Y-113099000D01*
G75*
G02*
X161390000Y-113148839I0J-49839D01*
G01*
X161390000Y-113939161D01*
G75*
G02*
X161340161Y-113989000I-49839J0D01*
G01*
G37*
G36*
G01*
X161340161Y-116989000D02*
X160549839Y-116989000D01*
G75*
G02*
X160500000Y-116939161I0J49839D01*
G01*
X160500000Y-116148839D01*
G75*
G02*
X160549839Y-116099000I49839J0D01*
G01*
X161340161Y-116099000D01*
G75*
G02*
X161390000Y-116148839I0J-49839D01*
G01*
X161390000Y-116939161D01*
G75*
G02*
X161340161Y-116989000I-49839J0D01*
G01*
G37*
G36*
G01*
X161340161Y-119989000D02*
X160549839Y-119989000D01*
G75*
G02*
X160500000Y-119939161I0J49839D01*
G01*
X160500000Y-119148839D01*
G75*
G02*
X160549839Y-119099000I49839J0D01*
G01*
X161340161Y-119099000D01*
G75*
G02*
X161390000Y-119148839I0J-49839D01*
G01*
X161390000Y-119939161D01*
G75*
G02*
X161340161Y-119989000I-49839J0D01*
G01*
G37*
G36*
G01*
X158340161Y-113989000D02*
X157549839Y-113989000D01*
G75*
G02*
X157500000Y-113939161I0J49839D01*
G01*
X157500000Y-113148839D01*
G75*
G02*
X157549839Y-113099000I49839J0D01*
G01*
X158340161Y-113099000D01*
G75*
G02*
X158390000Y-113148839I0J-49839D01*
G01*
X158390000Y-113939161D01*
G75*
G02*
X158340161Y-113989000I-49839J0D01*
G01*
G37*
G36*
G01*
X158340161Y-116989000D02*
X157549839Y-116989000D01*
G75*
G02*
X157500000Y-116939161I0J49839D01*
G01*
X157500000Y-116148839D01*
G75*
G02*
X157549839Y-116099000I49839J0D01*
G01*
X158340161Y-116099000D01*
G75*
G02*
X158390000Y-116148839I0J-49839D01*
G01*
X158390000Y-116939161D01*
G75*
G02*
X158340161Y-116989000I-49839J0D01*
G01*
G37*
G36*
G01*
X158340161Y-119989000D02*
X157549839Y-119989000D01*
G75*
G02*
X157500000Y-119939161I0J49839D01*
G01*
X157500000Y-119148839D01*
G75*
G02*
X157549839Y-119099000I49839J0D01*
G01*
X158340161Y-119099000D01*
G75*
G02*
X158390000Y-119148839I0J-49839D01*
G01*
X158390000Y-119939161D01*
G75*
G02*
X158340161Y-119989000I-49839J0D01*
G01*
G37*
G36*
G01*
X155340161Y-113989000D02*
X154549839Y-113989000D01*
G75*
G02*
X154500000Y-113939161I0J49839D01*
G01*
X154500000Y-113148839D01*
G75*
G02*
X154549839Y-113099000I49839J0D01*
G01*
X155340161Y-113099000D01*
G75*
G02*
X155390000Y-113148839I0J-49839D01*
G01*
X155390000Y-113939161D01*
G75*
G02*
X155340161Y-113989000I-49839J0D01*
G01*
G37*
G36*
G01*
X155340161Y-116989000D02*
X154549839Y-116989000D01*
G75*
G02*
X154500000Y-116939161I0J49839D01*
G01*
X154500000Y-116148839D01*
G75*
G02*
X154549839Y-116099000I49839J0D01*
G01*
X155340161Y-116099000D01*
G75*
G02*
X155390000Y-116148839I0J-49839D01*
G01*
X155390000Y-116939161D01*
G75*
G02*
X155340161Y-116989000I-49839J0D01*
G01*
G37*
G36*
G01*
X161340161Y-115095000D02*
X160549839Y-115095000D01*
G75*
G02*
X160500000Y-115045161I0J49839D01*
G01*
X160500000Y-114254839D01*
G75*
G02*
X160549839Y-114205000I49839J0D01*
G01*
X161340161Y-114205000D01*
G75*
G02*
X161390000Y-114254839I0J-49839D01*
G01*
X161390000Y-115045161D01*
G75*
G02*
X161340161Y-115095000I-49839J0D01*
G01*
G37*
G36*
G01*
X161340161Y-118095000D02*
X160549839Y-118095000D01*
G75*
G02*
X160500000Y-118045161I0J49839D01*
G01*
X160500000Y-117254839D01*
G75*
G02*
X160549839Y-117205000I49839J0D01*
G01*
X161340161Y-117205000D01*
G75*
G02*
X161390000Y-117254839I0J-49839D01*
G01*
X161390000Y-118045161D01*
G75*
G02*
X161340161Y-118095000I-49839J0D01*
G01*
G37*
G36*
G01*
X161340161Y-121095000D02*
X160549839Y-121095000D01*
G75*
G02*
X160500000Y-121045161I0J49839D01*
G01*
X160500000Y-120254839D01*
G75*
G02*
X160549839Y-120205000I49839J0D01*
G01*
X161340161Y-120205000D01*
G75*
G02*
X161390000Y-120254839I0J-49839D01*
G01*
X161390000Y-121045161D01*
G75*
G02*
X161340161Y-121095000I-49839J0D01*
G01*
G37*
G36*
G01*
X158340161Y-115095000D02*
X157549839Y-115095000D01*
G75*
G02*
X157500000Y-115045161I0J49839D01*
G01*
X157500000Y-114254839D01*
G75*
G02*
X157549839Y-114205000I49839J0D01*
G01*
X158340161Y-114205000D01*
G75*
G02*
X158390000Y-114254839I0J-49839D01*
G01*
X158390000Y-115045161D01*
G75*
G02*
X158340161Y-115095000I-49839J0D01*
G01*
G37*
G36*
G01*
X158340161Y-118095000D02*
X157549839Y-118095000D01*
G75*
G02*
X157500000Y-118045161I0J49839D01*
G01*
X157500000Y-117254839D01*
G75*
G02*
X157549839Y-117205000I49839J0D01*
G01*
X158340161Y-117205000D01*
G75*
G02*
X158390000Y-117254839I0J-49839D01*
G01*
X158390000Y-118045161D01*
G75*
G02*
X158340161Y-118095000I-49839J0D01*
G01*
G37*
G36*
G01*
X158340161Y-121095000D02*
X157549839Y-121095000D01*
G75*
G02*
X157500000Y-121045161I0J49839D01*
G01*
X157500000Y-120254839D01*
G75*
G02*
X157549839Y-120205000I49839J0D01*
G01*
X158340161Y-120205000D01*
G75*
G02*
X158390000Y-120254839I0J-49839D01*
G01*
X158390000Y-121045161D01*
G75*
G02*
X158340161Y-121095000I-49839J0D01*
G01*
G37*
G36*
G01*
X155340161Y-115095000D02*
X154549839Y-115095000D01*
G75*
G02*
X154500000Y-115045161I0J49839D01*
G01*
X154500000Y-114254839D01*
G75*
G02*
X154549839Y-114205000I49839J0D01*
G01*
X155340161Y-114205000D01*
G75*
G02*
X155390000Y-114254839I0J-49839D01*
G01*
X155390000Y-115045161D01*
G75*
G02*
X155340161Y-115095000I-49839J0D01*
G01*
G37*
G36*
G01*
X155340161Y-118095000D02*
X154549839Y-118095000D01*
G75*
G02*
X154500000Y-118045161I0J49839D01*
G01*
X154500000Y-117254839D01*
G75*
G02*
X154549839Y-117205000I49839J0D01*
G01*
X155340161Y-117205000D01*
G75*
G02*
X155390000Y-117254839I0J-49839D01*
G01*
X155390000Y-118045161D01*
G75*
G02*
X155340161Y-118095000I-49839J0D01*
G01*
G37*
G36*
G01*
X162450161Y-115099000D02*
X161659839Y-115099000D01*
G75*
G02*
X161610000Y-115049161I0J49839D01*
G01*
X161610000Y-114258839D01*
G75*
G02*
X161659839Y-114209000I49839J0D01*
G01*
X162450161Y-114209000D01*
G75*
G02*
X162500000Y-114258839I0J-49839D01*
G01*
X162500000Y-115049161D01*
G75*
G02*
X162450161Y-115099000I-49839J0D01*
G01*
G37*
G36*
G01*
X162450161Y-118099000D02*
X161659839Y-118099000D01*
G75*
G02*
X161610000Y-118049161I0J49839D01*
G01*
X161610000Y-117258839D01*
G75*
G02*
X161659839Y-117209000I49839J0D01*
G01*
X162450161Y-117209000D01*
G75*
G02*
X162500000Y-117258839I0J-49839D01*
G01*
X162500000Y-118049161D01*
G75*
G02*
X162450161Y-118099000I-49839J0D01*
G01*
G37*
G36*
G01*
X162450161Y-121099000D02*
X161659839Y-121099000D01*
G75*
G02*
X161610000Y-121049161I0J49839D01*
G01*
X161610000Y-120258839D01*
G75*
G02*
X161659839Y-120209000I49839J0D01*
G01*
X162450161Y-120209000D01*
G75*
G02*
X162500000Y-120258839I0J-49839D01*
G01*
X162500000Y-121049161D01*
G75*
G02*
X162450161Y-121099000I-49839J0D01*
G01*
G37*
G36*
G01*
X159450161Y-115099000D02*
X158659839Y-115099000D01*
G75*
G02*
X158610000Y-115049161I0J49839D01*
G01*
X158610000Y-114258839D01*
G75*
G02*
X158659839Y-114209000I49839J0D01*
G01*
X159450161Y-114209000D01*
G75*
G02*
X159500000Y-114258839I0J-49839D01*
G01*
X159500000Y-115049161D01*
G75*
G02*
X159450161Y-115099000I-49839J0D01*
G01*
G37*
G36*
G01*
X159450161Y-118099000D02*
X158659839Y-118099000D01*
G75*
G02*
X158610000Y-118049161I0J49839D01*
G01*
X158610000Y-117258839D01*
G75*
G02*
X158659839Y-117209000I49839J0D01*
G01*
X159450161Y-117209000D01*
G75*
G02*
X159500000Y-117258839I0J-49839D01*
G01*
X159500000Y-118049161D01*
G75*
G02*
X159450161Y-118099000I-49839J0D01*
G01*
G37*
G36*
G01*
X159450161Y-121099000D02*
X158659839Y-121099000D01*
G75*
G02*
X158610000Y-121049161I0J49839D01*
G01*
X158610000Y-120258839D01*
G75*
G02*
X158659839Y-120209000I49839J0D01*
G01*
X159450161Y-120209000D01*
G75*
G02*
X159500000Y-120258839I0J-49839D01*
G01*
X159500000Y-121049161D01*
G75*
G02*
X159450161Y-121099000I-49839J0D01*
G01*
G37*
G36*
G01*
X156450161Y-115099000D02*
X155659839Y-115099000D01*
G75*
G02*
X155610000Y-115049161I0J49839D01*
G01*
X155610000Y-114258839D01*
G75*
G02*
X155659839Y-114209000I49839J0D01*
G01*
X156450161Y-114209000D01*
G75*
G02*
X156500000Y-114258839I0J-49839D01*
G01*
X156500000Y-115049161D01*
G75*
G02*
X156450161Y-115099000I-49839J0D01*
G01*
G37*
G36*
G01*
X156450161Y-118099000D02*
X155659839Y-118099000D01*
G75*
G02*
X155610000Y-118049161I0J49839D01*
G01*
X155610000Y-117258839D01*
G75*
G02*
X155659839Y-117209000I49839J0D01*
G01*
X156450161Y-117209000D01*
G75*
G02*
X156500000Y-117258839I0J-49839D01*
G01*
X156500000Y-118049161D01*
G75*
G02*
X156450161Y-118099000I-49839J0D01*
G01*
G37*
G36*
G01*
X162450161Y-113989000D02*
X161659839Y-113989000D01*
G75*
G02*
X161610000Y-113939161I0J49839D01*
G01*
X161610000Y-113148839D01*
G75*
G02*
X161659839Y-113099000I49839J0D01*
G01*
X162450161Y-113099000D01*
G75*
G02*
X162500000Y-113148839I0J-49839D01*
G01*
X162500000Y-113939161D01*
G75*
G02*
X162450161Y-113989000I-49839J0D01*
G01*
G37*
G36*
G01*
X162450161Y-116989000D02*
X161659839Y-116989000D01*
G75*
G02*
X161610000Y-116939161I0J49839D01*
G01*
X161610000Y-116148839D01*
G75*
G02*
X161659839Y-116099000I49839J0D01*
G01*
X162450161Y-116099000D01*
G75*
G02*
X162500000Y-116148839I0J-49839D01*
G01*
X162500000Y-116939161D01*
G75*
G02*
X162450161Y-116989000I-49839J0D01*
G01*
G37*
G36*
G01*
X162450161Y-119989000D02*
X161659839Y-119989000D01*
G75*
G02*
X161610000Y-119939161I0J49839D01*
G01*
X161610000Y-119148839D01*
G75*
G02*
X161659839Y-119099000I49839J0D01*
G01*
X162450161Y-119099000D01*
G75*
G02*
X162500000Y-119148839I0J-49839D01*
G01*
X162500000Y-119939161D01*
G75*
G02*
X162450161Y-119989000I-49839J0D01*
G01*
G37*
G36*
G01*
X159450161Y-113989000D02*
X158659839Y-113989000D01*
G75*
G02*
X158610000Y-113939161I0J49839D01*
G01*
X158610000Y-113148839D01*
G75*
G02*
X158659839Y-113099000I49839J0D01*
G01*
X159450161Y-113099000D01*
G75*
G02*
X159500000Y-113148839I0J-49839D01*
G01*
X159500000Y-113939161D01*
G75*
G02*
X159450161Y-113989000I-49839J0D01*
G01*
G37*
G36*
G01*
X159450161Y-116989000D02*
X158659839Y-116989000D01*
G75*
G02*
X158610000Y-116939161I0J49839D01*
G01*
X158610000Y-116148839D01*
G75*
G02*
X158659839Y-116099000I49839J0D01*
G01*
X159450161Y-116099000D01*
G75*
G02*
X159500000Y-116148839I0J-49839D01*
G01*
X159500000Y-116939161D01*
G75*
G02*
X159450161Y-116989000I-49839J0D01*
G01*
G37*
G36*
G01*
X159450161Y-119989000D02*
X158659839Y-119989000D01*
G75*
G02*
X158610000Y-119939161I0J49839D01*
G01*
X158610000Y-119148839D01*
G75*
G02*
X158659839Y-119099000I49839J0D01*
G01*
X159450161Y-119099000D01*
G75*
G02*
X159500000Y-119148839I0J-49839D01*
G01*
X159500000Y-119939161D01*
G75*
G02*
X159450161Y-119989000I-49839J0D01*
G01*
G37*
G36*
G01*
X156450161Y-113989000D02*
X155659839Y-113989000D01*
G75*
G02*
X155610000Y-113939161I0J49839D01*
G01*
X155610000Y-113148839D01*
G75*
G02*
X155659839Y-113099000I49839J0D01*
G01*
X156450161Y-113099000D01*
G75*
G02*
X156500000Y-113148839I0J-49839D01*
G01*
X156500000Y-113939161D01*
G75*
G02*
X156450161Y-113989000I-49839J0D01*
G01*
G37*
G36*
G01*
X156450161Y-116989000D02*
X155659839Y-116989000D01*
G75*
G02*
X155610000Y-116939161I0J49839D01*
G01*
X155610000Y-116148839D01*
G75*
G02*
X155659839Y-116099000I49839J0D01*
G01*
X156450161Y-116099000D01*
G75*
G02*
X156500000Y-116148839I0J-49839D01*
G01*
X156500000Y-116939161D01*
G75*
G02*
X156450161Y-116989000I-49839J0D01*
G01*
G37*
G36*
G01*
X155340161Y-119989000D02*
X154549839Y-119989000D01*
G75*
G02*
X154500000Y-119939161I0J49839D01*
G01*
X154500000Y-119148839D01*
G75*
G02*
X154549839Y-119099000I49839J0D01*
G01*
X155340161Y-119099000D01*
G75*
G02*
X155390000Y-119148839I0J-49839D01*
G01*
X155390000Y-119939161D01*
G75*
G02*
X155340161Y-119989000I-49839J0D01*
G01*
G37*
G36*
G01*
X156450161Y-121099000D02*
X155659839Y-121099000D01*
G75*
G02*
X155610000Y-121049161I0J49839D01*
G01*
X155610000Y-120258839D01*
G75*
G02*
X155659839Y-120209000I49839J0D01*
G01*
X156450161Y-120209000D01*
G75*
G02*
X156500000Y-120258839I0J-49839D01*
G01*
X156500000Y-121049161D01*
G75*
G02*
X156450161Y-121099000I-49839J0D01*
G01*
G37*
G36*
G01*
X156450161Y-119989000D02*
X155659839Y-119989000D01*
G75*
G02*
X155610000Y-119939161I0J49839D01*
G01*
X155610000Y-119148839D01*
G75*
G02*
X155659839Y-119099000I49839J0D01*
G01*
X156450161Y-119099000D01*
G75*
G02*
X156500000Y-119148839I0J-49839D01*
G01*
X156500000Y-119939161D01*
G75*
G02*
X156450161Y-119989000I-49839J0D01*
G01*
G37*
G36*
G01*
X150926000Y-121549399D02*
X150926000Y-122348601D01*
G75*
G02*
X150875601Y-122399000I-50399J0D01*
G01*
X150076399Y-122399000D01*
G75*
G02*
X150026000Y-122348601I0J50399D01*
G01*
X150026000Y-121549399D01*
G75*
G02*
X150076399Y-121499000I50399J0D01*
G01*
X150875601Y-121499000D01*
G75*
G02*
X150926000Y-121549399I0J-50399D01*
G01*
G37*
G36*
G01*
X150926000Y-120279399D02*
X150926000Y-121078601D01*
G75*
G02*
X150875601Y-121129000I-50399J0D01*
G01*
X150076399Y-121129000D01*
G75*
G02*
X150026000Y-121078601I0J50399D01*
G01*
X150026000Y-120279399D01*
G75*
G02*
X150076399Y-120229000I50399J0D01*
G01*
X150875601Y-120229000D01*
G75*
G02*
X150926000Y-120279399I0J-50399D01*
G01*
G37*
G36*
G01*
X150926000Y-119009399D02*
X150926000Y-119808601D01*
G75*
G02*
X150875601Y-119859000I-50399J0D01*
G01*
X150076399Y-119859000D01*
G75*
G02*
X150026000Y-119808601I0J50399D01*
G01*
X150026000Y-119009399D01*
G75*
G02*
X150076399Y-118959000I50399J0D01*
G01*
X150875601Y-118959000D01*
G75*
G02*
X150926000Y-119009399I0J-50399D01*
G01*
G37*
G36*
G01*
X150926000Y-117739399D02*
X150926000Y-118538601D01*
G75*
G02*
X150875601Y-118589000I-50399J0D01*
G01*
X150076399Y-118589000D01*
G75*
G02*
X150026000Y-118538601I0J50399D01*
G01*
X150026000Y-117739399D01*
G75*
G02*
X150076399Y-117689000I50399J0D01*
G01*
X150875601Y-117689000D01*
G75*
G02*
X150926000Y-117739399I0J-50399D01*
G01*
G37*
G36*
G01*
X150926000Y-116469399D02*
X150926000Y-117268601D01*
G75*
G02*
X150875601Y-117319000I-50399J0D01*
G01*
X150076399Y-117319000D01*
G75*
G02*
X150026000Y-117268601I0J50399D01*
G01*
X150026000Y-116469399D01*
G75*
G02*
X150076399Y-116419000I50399J0D01*
G01*
X150875601Y-116419000D01*
G75*
G02*
X150926000Y-116469399I0J-50399D01*
G01*
G37*
G36*
G01*
X150926000Y-115199399D02*
X150926000Y-115998601D01*
G75*
G02*
X150875601Y-116049000I-50399J0D01*
G01*
X150076399Y-116049000D01*
G75*
G02*
X150026000Y-115998601I0J50399D01*
G01*
X150026000Y-115199399D01*
G75*
G02*
X150076399Y-115149000I50399J0D01*
G01*
X150875601Y-115149000D01*
G75*
G02*
X150926000Y-115199399I0J-50399D01*
G01*
G37*
G36*
G01*
X150926000Y-113929399D02*
X150926000Y-114728601D01*
G75*
G02*
X150875601Y-114779000I-50399J0D01*
G01*
X150076399Y-114779000D01*
G75*
G02*
X150026000Y-114728601I0J50399D01*
G01*
X150026000Y-113929399D01*
G75*
G02*
X150076399Y-113879000I50399J0D01*
G01*
X150875601Y-113879000D01*
G75*
G02*
X150926000Y-113929399I0J-50399D01*
G01*
G37*
G36*
G01*
X150926000Y-112659399D02*
X150926000Y-113458601D01*
G75*
G02*
X150875601Y-113509000I-50399J0D01*
G01*
X150076399Y-113509000D01*
G75*
G02*
X150026000Y-113458601I0J50399D01*
G01*
X150026000Y-112659399D01*
G75*
G02*
X150076399Y-112609000I50399J0D01*
G01*
X150875601Y-112609000D01*
G75*
G02*
X150926000Y-112659399I0J-50399D01*
G01*
G37*
G36*
G01*
X150926000Y-111389399D02*
X150926000Y-112188601D01*
G75*
G02*
X150875601Y-112239000I-50399J0D01*
G01*
X150076399Y-112239000D01*
G75*
G02*
X150026000Y-112188601I0J50399D01*
G01*
X150026000Y-111389399D01*
G75*
G02*
X150076399Y-111339000I50399J0D01*
G01*
X150875601Y-111339000D01*
G75*
G02*
X150926000Y-111389399I0J-50399D01*
G01*
G37*
G36*
G01*
X150926000Y-110119399D02*
X150926000Y-110918601D01*
G75*
G02*
X150875601Y-110969000I-50399J0D01*
G01*
X150076399Y-110969000D01*
G75*
G02*
X150026000Y-110918601I0J50399D01*
G01*
X150026000Y-110119399D01*
G75*
G02*
X150076399Y-110069000I50399J0D01*
G01*
X150875601Y-110069000D01*
G75*
G02*
X150926000Y-110119399I0J-50399D01*
G01*
G37*
G36*
G01*
X150926000Y-108849399D02*
X150926000Y-109648601D01*
G75*
G02*
X150875601Y-109699000I-50399J0D01*
G01*
X150076399Y-109699000D01*
G75*
G02*
X150026000Y-109648601I0J50399D01*
G01*
X150026000Y-108849399D01*
G75*
G02*
X150076399Y-108799000I50399J0D01*
G01*
X150875601Y-108799000D01*
G75*
G02*
X150926000Y-108849399I0J-50399D01*
G01*
G37*
G36*
G01*
X150875601Y-107999000D02*
X150076399Y-107999000D01*
G75*
G02*
X150026000Y-107948601I0J50399D01*
G01*
X150026000Y-107149399D01*
G75*
G02*
X150076399Y-107099000I50399J0D01*
G01*
X150875601Y-107099000D01*
G75*
G02*
X150926000Y-107149399I0J-50399D01*
G01*
X150926000Y-107948601D01*
G75*
G02*
X150875601Y-107999000I-50399J0D01*
G01*
G37*
G36*
G01*
X152144601Y-107999000D02*
X151345399Y-107999000D01*
G75*
G02*
X151295000Y-107948601I0J50399D01*
G01*
X151295000Y-107149399D01*
G75*
G02*
X151345399Y-107099000I50399J0D01*
G01*
X152144601Y-107099000D01*
G75*
G02*
X152195000Y-107149399I0J-50399D01*
G01*
X152195000Y-107948601D01*
G75*
G02*
X152144601Y-107999000I-50399J0D01*
G01*
G37*
G36*
G01*
X153414601Y-107999000D02*
X152615399Y-107999000D01*
G75*
G02*
X152565000Y-107948601I0J50399D01*
G01*
X152565000Y-107149399D01*
G75*
G02*
X152615399Y-107099000I50399J0D01*
G01*
X153414601Y-107099000D01*
G75*
G02*
X153465000Y-107149399I0J-50399D01*
G01*
X153465000Y-107948601D01*
G75*
G02*
X153414601Y-107999000I-50399J0D01*
G01*
G37*
G36*
G01*
X154684601Y-107999000D02*
X153885399Y-107999000D01*
G75*
G02*
X153835000Y-107948601I0J50399D01*
G01*
X153835000Y-107149399D01*
G75*
G02*
X153885399Y-107099000I50399J0D01*
G01*
X154684601Y-107099000D01*
G75*
G02*
X154735000Y-107149399I0J-50399D01*
G01*
X154735000Y-107948601D01*
G75*
G02*
X154684601Y-107999000I-50399J0D01*
G01*
G37*
G36*
G01*
X155954601Y-107999000D02*
X155155399Y-107999000D01*
G75*
G02*
X155105000Y-107948601I0J50399D01*
G01*
X155105000Y-107149399D01*
G75*
G02*
X155155399Y-107099000I50399J0D01*
G01*
X155954601Y-107099000D01*
G75*
G02*
X156005000Y-107149399I0J-50399D01*
G01*
X156005000Y-107948601D01*
G75*
G02*
X155954601Y-107999000I-50399J0D01*
G01*
G37*
G36*
G01*
X157224601Y-107999000D02*
X156425399Y-107999000D01*
G75*
G02*
X156375000Y-107948601I0J50399D01*
G01*
X156375000Y-107149399D01*
G75*
G02*
X156425399Y-107099000I50399J0D01*
G01*
X157224601Y-107099000D01*
G75*
G02*
X157275000Y-107149399I0J-50399D01*
G01*
X157275000Y-107948601D01*
G75*
G02*
X157224601Y-107999000I-50399J0D01*
G01*
G37*
G36*
G01*
X158494601Y-107999000D02*
X157695399Y-107999000D01*
G75*
G02*
X157645000Y-107948601I0J50399D01*
G01*
X157645000Y-107149399D01*
G75*
G02*
X157695399Y-107099000I50399J0D01*
G01*
X158494601Y-107099000D01*
G75*
G02*
X158545000Y-107149399I0J-50399D01*
G01*
X158545000Y-107948601D01*
G75*
G02*
X158494601Y-107999000I-50399J0D01*
G01*
G37*
G36*
G01*
X159764601Y-107999000D02*
X158965399Y-107999000D01*
G75*
G02*
X158915000Y-107948601I0J50399D01*
G01*
X158915000Y-107149399D01*
G75*
G02*
X158965399Y-107099000I50399J0D01*
G01*
X159764601Y-107099000D01*
G75*
G02*
X159815000Y-107149399I0J-50399D01*
G01*
X159815000Y-107948601D01*
G75*
G02*
X159764601Y-107999000I-50399J0D01*
G01*
G37*
G36*
G01*
X161034601Y-107999000D02*
X160235399Y-107999000D01*
G75*
G02*
X160185000Y-107948601I0J50399D01*
G01*
X160185000Y-107149399D01*
G75*
G02*
X160235399Y-107099000I50399J0D01*
G01*
X161034601Y-107099000D01*
G75*
G02*
X161085000Y-107149399I0J-50399D01*
G01*
X161085000Y-107948601D01*
G75*
G02*
X161034601Y-107999000I-50399J0D01*
G01*
G37*
G36*
G01*
X162304601Y-107999000D02*
X161505399Y-107999000D01*
G75*
G02*
X161455000Y-107948601I0J50399D01*
G01*
X161455000Y-107149399D01*
G75*
G02*
X161505399Y-107099000I50399J0D01*
G01*
X162304601Y-107099000D01*
G75*
G02*
X162355000Y-107149399I0J-50399D01*
G01*
X162355000Y-107948601D01*
G75*
G02*
X162304601Y-107999000I-50399J0D01*
G01*
G37*
G36*
G01*
X163574601Y-107999000D02*
X162775399Y-107999000D01*
G75*
G02*
X162725000Y-107948601I0J50399D01*
G01*
X162725000Y-107149399D01*
G75*
G02*
X162775399Y-107099000I50399J0D01*
G01*
X163574601Y-107099000D01*
G75*
G02*
X163625000Y-107149399I0J-50399D01*
G01*
X163625000Y-107948601D01*
G75*
G02*
X163574601Y-107999000I-50399J0D01*
G01*
G37*
G36*
G01*
X164844601Y-107999000D02*
X164045399Y-107999000D01*
G75*
G02*
X163995000Y-107948601I0J50399D01*
G01*
X163995000Y-107149399D01*
G75*
G02*
X164045399Y-107099000I50399J0D01*
G01*
X164844601Y-107099000D01*
G75*
G02*
X164895000Y-107149399I0J-50399D01*
G01*
X164895000Y-107948601D01*
G75*
G02*
X164844601Y-107999000I-50399J0D01*
G01*
G37*
G36*
G01*
X166114601Y-107999000D02*
X165315399Y-107999000D01*
G75*
G02*
X165265000Y-107948601I0J50399D01*
G01*
X165265000Y-107149399D01*
G75*
G02*
X165315399Y-107099000I50399J0D01*
G01*
X166114601Y-107099000D01*
G75*
G02*
X166165000Y-107149399I0J-50399D01*
G01*
X166165000Y-107948601D01*
G75*
G02*
X166114601Y-107999000I-50399J0D01*
G01*
G37*
G36*
G01*
X167384601Y-107999000D02*
X166585399Y-107999000D01*
G75*
G02*
X166535000Y-107948601I0J50399D01*
G01*
X166535000Y-107149399D01*
G75*
G02*
X166585399Y-107099000I50399J0D01*
G01*
X167384601Y-107099000D01*
G75*
G02*
X167435000Y-107149399I0J-50399D01*
G01*
X167435000Y-107948601D01*
G75*
G02*
X167384601Y-107999000I-50399J0D01*
G01*
G37*
G36*
G01*
X168654601Y-107999000D02*
X167855399Y-107999000D01*
G75*
G02*
X167805000Y-107948601I0J50399D01*
G01*
X167805000Y-107149399D01*
G75*
G02*
X167855399Y-107099000I50399J0D01*
G01*
X168654601Y-107099000D01*
G75*
G02*
X168705000Y-107149399I0J-50399D01*
G01*
X168705000Y-107948601D01*
G75*
G02*
X168654601Y-107999000I-50399J0D01*
G01*
G37*
G36*
G01*
X169924601Y-107999000D02*
X169125399Y-107999000D01*
G75*
G02*
X169075000Y-107948601I0J50399D01*
G01*
X169075000Y-107149399D01*
G75*
G02*
X169125399Y-107099000I50399J0D01*
G01*
X169924601Y-107099000D01*
G75*
G02*
X169975000Y-107149399I0J-50399D01*
G01*
X169975000Y-107948601D01*
G75*
G02*
X169924601Y-107999000I-50399J0D01*
G01*
G37*
G36*
G01*
X169975000Y-108849399D02*
X169975000Y-109648601D01*
G75*
G02*
X169924601Y-109699000I-50399J0D01*
G01*
X169125399Y-109699000D01*
G75*
G02*
X169075000Y-109648601I0J50399D01*
G01*
X169075000Y-108849399D01*
G75*
G02*
X169125399Y-108799000I50399J0D01*
G01*
X169924601Y-108799000D01*
G75*
G02*
X169975000Y-108849399I0J-50399D01*
G01*
G37*
G36*
G01*
X169975000Y-110119399D02*
X169975000Y-110918601D01*
G75*
G02*
X169924601Y-110969000I-50399J0D01*
G01*
X169125399Y-110969000D01*
G75*
G02*
X169075000Y-110918601I0J50399D01*
G01*
X169075000Y-110119399D01*
G75*
G02*
X169125399Y-110069000I50399J0D01*
G01*
X169924601Y-110069000D01*
G75*
G02*
X169975000Y-110119399I0J-50399D01*
G01*
G37*
G36*
G01*
X169975000Y-111389399D02*
X169975000Y-112188601D01*
G75*
G02*
X169924601Y-112239000I-50399J0D01*
G01*
X169125399Y-112239000D01*
G75*
G02*
X169075000Y-112188601I0J50399D01*
G01*
X169075000Y-111389399D01*
G75*
G02*
X169125399Y-111339000I50399J0D01*
G01*
X169924601Y-111339000D01*
G75*
G02*
X169975000Y-111389399I0J-50399D01*
G01*
G37*
G36*
G01*
X169975000Y-112659399D02*
X169975000Y-113458601D01*
G75*
G02*
X169924601Y-113509000I-50399J0D01*
G01*
X169125399Y-113509000D01*
G75*
G02*
X169075000Y-113458601I0J50399D01*
G01*
X169075000Y-112659399D01*
G75*
G02*
X169125399Y-112609000I50399J0D01*
G01*
X169924601Y-112609000D01*
G75*
G02*
X169975000Y-112659399I0J-50399D01*
G01*
G37*
G36*
G01*
X169975000Y-113929399D02*
X169975000Y-114728601D01*
G75*
G02*
X169924601Y-114779000I-50399J0D01*
G01*
X169125399Y-114779000D01*
G75*
G02*
X169075000Y-114728601I0J50399D01*
G01*
X169075000Y-113929399D01*
G75*
G02*
X169125399Y-113879000I50399J0D01*
G01*
X169924601Y-113879000D01*
G75*
G02*
X169975000Y-113929399I0J-50399D01*
G01*
G37*
G36*
G01*
X169975000Y-115199399D02*
X169975000Y-115998601D01*
G75*
G02*
X169924601Y-116049000I-50399J0D01*
G01*
X169125399Y-116049000D01*
G75*
G02*
X169075000Y-115998601I0J50399D01*
G01*
X169075000Y-115199399D01*
G75*
G02*
X169125399Y-115149000I50399J0D01*
G01*
X169924601Y-115149000D01*
G75*
G02*
X169975000Y-115199399I0J-50399D01*
G01*
G37*
G36*
G01*
X169975000Y-116469399D02*
X169975000Y-117268601D01*
G75*
G02*
X169924601Y-117319000I-50399J0D01*
G01*
X169125399Y-117319000D01*
G75*
G02*
X169075000Y-117268601I0J50399D01*
G01*
X169075000Y-116469399D01*
G75*
G02*
X169125399Y-116419000I50399J0D01*
G01*
X169924601Y-116419000D01*
G75*
G02*
X169975000Y-116469399I0J-50399D01*
G01*
G37*
G36*
G01*
X169975000Y-117739399D02*
X169975000Y-118538601D01*
G75*
G02*
X169924601Y-118589000I-50399J0D01*
G01*
X169125399Y-118589000D01*
G75*
G02*
X169075000Y-118538601I0J50399D01*
G01*
X169075000Y-117739399D01*
G75*
G02*
X169125399Y-117689000I50399J0D01*
G01*
X169924601Y-117689000D01*
G75*
G02*
X169975000Y-117739399I0J-50399D01*
G01*
G37*
G36*
G01*
X169975000Y-119009399D02*
X169975000Y-119808601D01*
G75*
G02*
X169924601Y-119859000I-50399J0D01*
G01*
X169125399Y-119859000D01*
G75*
G02*
X169075000Y-119808601I0J50399D01*
G01*
X169075000Y-119009399D01*
G75*
G02*
X169125399Y-118959000I50399J0D01*
G01*
X169924601Y-118959000D01*
G75*
G02*
X169975000Y-119009399I0J-50399D01*
G01*
G37*
G36*
G01*
X169975000Y-120279399D02*
X169975000Y-121078601D01*
G75*
G02*
X169924601Y-121129000I-50399J0D01*
G01*
X169125399Y-121129000D01*
G75*
G02*
X169075000Y-121078601I0J50399D01*
G01*
X169075000Y-120279399D01*
G75*
G02*
X169125399Y-120229000I50399J0D01*
G01*
X169924601Y-120229000D01*
G75*
G02*
X169975000Y-120279399I0J-50399D01*
G01*
G37*
G36*
G01*
X169975000Y-121549399D02*
X169975000Y-122348601D01*
G75*
G02*
X169924601Y-122399000I-50399J0D01*
G01*
X169125399Y-122399000D01*
G75*
G02*
X169075000Y-122348601I0J50399D01*
G01*
X169075000Y-121549399D01*
G75*
G02*
X169125399Y-121499000I50399J0D01*
G01*
X169924601Y-121499000D01*
G75*
G02*
X169975000Y-121549399I0J-50399D01*
G01*
G37*
G36*
G01*
X169924601Y-124099000D02*
X169125399Y-124099000D01*
G75*
G02*
X169075000Y-124048601I0J50399D01*
G01*
X169075000Y-123249399D01*
G75*
G02*
X169125399Y-123199000I50399J0D01*
G01*
X169924601Y-123199000D01*
G75*
G02*
X169975000Y-123249399I0J-50399D01*
G01*
X169975000Y-124048601D01*
G75*
G02*
X169924601Y-124099000I-50399J0D01*
G01*
G37*
G36*
G01*
X168654601Y-124099000D02*
X167855399Y-124099000D01*
G75*
G02*
X167805000Y-124048601I0J50399D01*
G01*
X167805000Y-123249399D01*
G75*
G02*
X167855399Y-123199000I50399J0D01*
G01*
X168654601Y-123199000D01*
G75*
G02*
X168705000Y-123249399I0J-50399D01*
G01*
X168705000Y-124048601D01*
G75*
G02*
X168654601Y-124099000I-50399J0D01*
G01*
G37*
G36*
G01*
X167384601Y-124099000D02*
X166585399Y-124099000D01*
G75*
G02*
X166535000Y-124048601I0J50399D01*
G01*
X166535000Y-123249399D01*
G75*
G02*
X166585399Y-123199000I50399J0D01*
G01*
X167384601Y-123199000D01*
G75*
G02*
X167435000Y-123249399I0J-50399D01*
G01*
X167435000Y-124048601D01*
G75*
G02*
X167384601Y-124099000I-50399J0D01*
G01*
G37*
G36*
G01*
X166114601Y-124099000D02*
X165315399Y-124099000D01*
G75*
G02*
X165265000Y-124048601I0J50399D01*
G01*
X165265000Y-123249399D01*
G75*
G02*
X165315399Y-123199000I50399J0D01*
G01*
X166114601Y-123199000D01*
G75*
G02*
X166165000Y-123249399I0J-50399D01*
G01*
X166165000Y-124048601D01*
G75*
G02*
X166114601Y-124099000I-50399J0D01*
G01*
G37*
G36*
G01*
X164844601Y-124099000D02*
X164045399Y-124099000D01*
G75*
G02*
X163995000Y-124048601I0J50399D01*
G01*
X163995000Y-123249399D01*
G75*
G02*
X164045399Y-123199000I50399J0D01*
G01*
X164844601Y-123199000D01*
G75*
G02*
X164895000Y-123249399I0J-50399D01*
G01*
X164895000Y-124048601D01*
G75*
G02*
X164844601Y-124099000I-50399J0D01*
G01*
G37*
G36*
G01*
X163574601Y-124099000D02*
X162775399Y-124099000D01*
G75*
G02*
X162725000Y-124048601I0J50399D01*
G01*
X162725000Y-123249399D01*
G75*
G02*
X162775399Y-123199000I50399J0D01*
G01*
X163574601Y-123199000D01*
G75*
G02*
X163625000Y-123249399I0J-50399D01*
G01*
X163625000Y-124048601D01*
G75*
G02*
X163574601Y-124099000I-50399J0D01*
G01*
G37*
G36*
G01*
X162304601Y-124099000D02*
X161505399Y-124099000D01*
G75*
G02*
X161455000Y-124048601I0J50399D01*
G01*
X161455000Y-123249399D01*
G75*
G02*
X161505399Y-123199000I50399J0D01*
G01*
X162304601Y-123199000D01*
G75*
G02*
X162355000Y-123249399I0J-50399D01*
G01*
X162355000Y-124048601D01*
G75*
G02*
X162304601Y-124099000I-50399J0D01*
G01*
G37*
G36*
G01*
X161034601Y-124099000D02*
X160235399Y-124099000D01*
G75*
G02*
X160185000Y-124048601I0J50399D01*
G01*
X160185000Y-123249399D01*
G75*
G02*
X160235399Y-123199000I50399J0D01*
G01*
X161034601Y-123199000D01*
G75*
G02*
X161085000Y-123249399I0J-50399D01*
G01*
X161085000Y-124048601D01*
G75*
G02*
X161034601Y-124099000I-50399J0D01*
G01*
G37*
G36*
G01*
X159764601Y-124099000D02*
X158965399Y-124099000D01*
G75*
G02*
X158915000Y-124048601I0J50399D01*
G01*
X158915000Y-123249399D01*
G75*
G02*
X158965399Y-123199000I50399J0D01*
G01*
X159764601Y-123199000D01*
G75*
G02*
X159815000Y-123249399I0J-50399D01*
G01*
X159815000Y-124048601D01*
G75*
G02*
X159764601Y-124099000I-50399J0D01*
G01*
G37*
G36*
G01*
X158494601Y-124099000D02*
X157695399Y-124099000D01*
G75*
G02*
X157645000Y-124048601I0J50399D01*
G01*
X157645000Y-123249399D01*
G75*
G02*
X157695399Y-123199000I50399J0D01*
G01*
X158494601Y-123199000D01*
G75*
G02*
X158545000Y-123249399I0J-50399D01*
G01*
X158545000Y-124048601D01*
G75*
G02*
X158494601Y-124099000I-50399J0D01*
G01*
G37*
G36*
G01*
X157224601Y-124099000D02*
X156425399Y-124099000D01*
G75*
G02*
X156375000Y-124048601I0J50399D01*
G01*
X156375000Y-123249399D01*
G75*
G02*
X156425399Y-123199000I50399J0D01*
G01*
X157224601Y-123199000D01*
G75*
G02*
X157275000Y-123249399I0J-50399D01*
G01*
X157275000Y-124048601D01*
G75*
G02*
X157224601Y-124099000I-50399J0D01*
G01*
G37*
G36*
G01*
X155954601Y-124099000D02*
X155155399Y-124099000D01*
G75*
G02*
X155105000Y-124048601I0J50399D01*
G01*
X155105000Y-123249399D01*
G75*
G02*
X155155399Y-123199000I50399J0D01*
G01*
X155954601Y-123199000D01*
G75*
G02*
X156005000Y-123249399I0J-50399D01*
G01*
X156005000Y-124048601D01*
G75*
G02*
X155954601Y-124099000I-50399J0D01*
G01*
G37*
G36*
G01*
X154684601Y-124099000D02*
X153885399Y-124099000D01*
G75*
G02*
X153835000Y-124048601I0J50399D01*
G01*
X153835000Y-123249399D01*
G75*
G02*
X153885399Y-123199000I50399J0D01*
G01*
X154684601Y-123199000D01*
G75*
G02*
X154735000Y-123249399I0J-50399D01*
G01*
X154735000Y-124048601D01*
G75*
G02*
X154684601Y-124099000I-50399J0D01*
G01*
G37*
G36*
G01*
X153414601Y-124099000D02*
X152615399Y-124099000D01*
G75*
G02*
X152565000Y-124048601I0J50399D01*
G01*
X152565000Y-123249399D01*
G75*
G02*
X152615399Y-123199000I50399J0D01*
G01*
X153414601Y-123199000D01*
G75*
G02*
X153465000Y-123249399I0J-50399D01*
G01*
X153465000Y-124048601D01*
G75*
G02*
X153414601Y-124099000I-50399J0D01*
G01*
G37*
G36*
G01*
X152144601Y-124099000D02*
X151345399Y-124099000D01*
G75*
G02*
X151295000Y-124048601I0J50399D01*
G01*
X151295000Y-123249399D01*
G75*
G02*
X151345399Y-123199000I50399J0D01*
G01*
X152144601Y-123199000D01*
G75*
G02*
X152195000Y-123249399I0J-50399D01*
G01*
X152195000Y-124048601D01*
G75*
G02*
X152144601Y-124099000I-50399J0D01*
G01*
G37*
G36*
G01*
X150875601Y-124099000D02*
X150076399Y-124099000D01*
G75*
G02*
X150026000Y-124048601I0J50399D01*
G01*
X150026000Y-123249399D01*
G75*
G02*
X150076399Y-123199000I50399J0D01*
G01*
X150875601Y-123199000D01*
G75*
G02*
X150926000Y-123249399I0J-50399D01*
G01*
X150926000Y-124048601D01*
G75*
G02*
X150875601Y-124099000I-50399J0D01*
G01*
G37*
%TD*%
D11*
%TO.C,SW1*%
X132375000Y-104620000D03*
X128075000Y-104620000D03*
X132375000Y-100620000D03*
X128075000Y-100620000D03*
D12*
X133175000Y-101620000D03*
X127275000Y-103620000D03*
X133175000Y-102620000D03*
X127275000Y-102620000D03*
X133175000Y-103620000D03*
X127275000Y-101620000D03*
%TD*%
%TO.C,R6*%
G36*
G01*
X146356250Y-113770000D02*
X145843750Y-113770000D01*
G75*
G02*
X145625000Y-113551250I0J218750D01*
G01*
X145625000Y-113113750D01*
G75*
G02*
X145843750Y-112895000I218750J0D01*
G01*
X146356250Y-112895000D01*
G75*
G02*
X146575000Y-113113750I0J-218750D01*
G01*
X146575000Y-113551250D01*
G75*
G02*
X146356250Y-113770000I-218750J0D01*
G01*
G37*
G36*
G01*
X146356250Y-115345000D02*
X145843750Y-115345000D01*
G75*
G02*
X145625000Y-115126250I0J218750D01*
G01*
X145625000Y-114688750D01*
G75*
G02*
X145843750Y-114470000I218750J0D01*
G01*
X146356250Y-114470000D01*
G75*
G02*
X146575000Y-114688750I0J-218750D01*
G01*
X146575000Y-115126250D01*
G75*
G02*
X146356250Y-115345000I-218750J0D01*
G01*
G37*
%TD*%
M02*
